SourceSerif-Italic_c0.ufo
<glyph name="numbersign" format="2">
	<unicode hex="0023"/>
	<advance width="560"/>
	<outline>
		<contour>
			<point x="94" y="0" type="line"/>
			<point x="116" y="0" type="line"/>
			<point x="288" y="654" type="line"/>
			<point x="266" y="654" type="line"/>
		</contour>
		<contour>
			<point x="52" y="235" type="line"/>
			<point x="47" y="208" type="line"/>
			<point x="508" y="208" type="line"/>
			<point x="513" y="235" type="line"/>
		</contour>
		<contour>
			<point x="569" y="444" type="line"/>
			<point x="574" y="470" type="line"/>
			<point x="113" y="470" type="line"/>
			<point x="108" y="444" type="line"/>
		</contour>
		<contour>
			<point x="325" y="0" type="line"/>
			<point x="347" y="0" type="line"/>
			<point x="519" y="654" type="line"/>
			<point x="497" y="654" type="line"/>
		</contour>
	</outline>
</glyph>
<glyph name="dollar" format="2">
	<unicode hex="0024"/>
	<advance width="532"/>
	<outline>
		<contour>
			<point x="236" y="-12" type="curve" smooth="yes"/>
			<point x="352" y="-12"/>
			<point x="428" y="60"/>
			<point x="428" y="156" type="curve" smooth="yes"/>
			<point x="428" y="234"/>
			<point x="380" y="276"/>
			<point x="297" y="335" type="curve" smooth="yes"/>
			<point x="290" y="340" type="line" smooth="yes"/>
			<point x="203" y="402"/>
			<point x="172" y="436"/>
			<point x="172" y="504" type="curve" smooth="yes"/>
			<point x="172" y="580"/>
			<point x="228" y="638"/>
			<point x="324" y="638" type="curve" smooth="yes"/>
			<point x="394" y="638"/>
			<point x="417" y="622"/>
			<point x="448" y="600" type="curve"/>
			<point x="416" y="636" type="line"/>
			<point x="432" y="548" type="line" smooth="yes"/>
			<point x="436" y="526"/>
			<point x="444" y="516"/>
			<point x="460" y="516" type="curve" smooth="yes"/>
			<point x="476" y="516"/>
			<point x="482" y="528"/>
			<point x="484" y="540" type="curve"/>
			<point x="472" y="624"/>
			<point x="412" y="664"/>
			<point x="324" y="664" type="curve" smooth="yes"/>
			<point x="212" y="664"/>
			<point x="140" y="596"/>
			<point x="140" y="500" type="curve" smooth="yes"/>
			<point x="140" y="422"/>
			<point x="188" y="376"/>
			<point x="271" y="317" type="curve" smooth="yes"/>
			<point x="278" y="312" type="line" smooth="yes"/>
			<point x="365" y="250"/>
			<point x="396" y="220"/>
			<point x="396" y="152" type="curve" smooth="yes"/>
			<point x="396" y="76"/>
			<point x="336" y="14"/>
			<point x="236" y="14" type="curve" smooth="yes"/>
			<point x="154" y="14"/>
			<point x="125" y="30"/>
			<point x="88" y="52" type="curve"/>
			<point x="124" y="16" type="line"/>
			<point x="104" y="112" type="line" smooth="yes"/>
			<point x="99" y="134"/>
			<point x="92" y="144"/>
			<point x="76" y="144" type="curve" smooth="yes"/>
			<point x="60" y="144"/>
			<point x="54" y="132"/>
			<point x="52" y="120" type="curve"/>
			<point x="64" y="28"/>
			<point x="136" y="-12"/>
		</contour>
		<contour>
			<point x="182" y="-120" type="line"/>
			<point x="208" y="-120" type="line"/>
			<point x="295" y="324" type="line"/>
			<point x="269" y="324" type="line"/>
		</contour>
		<contour>
			<point x="271" y="332" type="line"/>
			<point x="297" y="332" type="line"/>
			<point x="382" y="764" type="line"/>
			<point x="356" y="764" type="line"/>
		</contour>
	</outline>
</glyph>
<glyph name="ampersand" format="2">
	<unicode hex="0026"/>
	<advance width="702"/>
	<outline>
		<contour>
			<point x="306" y="-16" type="curve" smooth="yes"/>
			<point x="442" y="-16"/>
			<point x="534" y="64"/>
			<point x="534" y="176" type="curve" smooth="yes"/>
			<point x="534" y="246.2666666667"/>
			<point x="486.8142296339" y="281.9033139588"/>
			<point x="428" y="300" type="curve"/>
			<point x="429" y="306" type="line"/>
			<point x="580" y="306"/>
			<point x="674.2043599287" y="360.5676664686"/>
			<point x="710" y="460" type="curve"/>
			<point x="682" y="472" type="line"/>
			<point x="641.9648535566" y="375.9156485359"/>
			<point x="573.652173913" y="319"/>
			<point x="415" y="319" type="curve"/>
			<point x="411" y="291" type="line"/>
			<point x="473.2823297782" y="280.0090006274"/>
			<point x="506" y="235.4745762712"/>
			<point x="506" y="174" type="curve" smooth="yes"/>
			<point x="506" y="80"/>
			<point x="426" y="12"/>
			<point x="306" y="12" type="curve" smooth="yes"/>
			<point x="166" y="12"/>
			<point x="102" y="96"/>
			<point x="102" y="200" type="curve" smooth="yes"/>
			<point x="102" y="302"/>
			<point x="155" y="379"/>
			<point x="266" y="401" type="curve"/>
			<point x="249" y="406" type="line"/>
			<point x="274" y="380"/>
			<point x="297" y="368"/>
			<point x="318" y="368" type="curve" smooth="yes"/>
			<point x="342" y="368"/>
			<point x="350" y="380"/>
			<point x="350" y="392" type="curve" smooth="yes"/>
			<point x="350" y="408"/>
			<point x="334" y="420"/>
			<point x="286" y="420" type="curve" smooth="yes"/>
			<point x="281" y="420"/>
			<point x="276" y="420"/>
			<point x="262" y="420" type="curve"/>
			<point x="279" y="413" type="line"/>
			<point x="255" y="439"/>
			<point x="240" y="467"/>
			<point x="240" y="516" type="curve" smooth="yes"/>
			<point x="240" y="596"/>
			<point x="290" y="668"/>
			<point x="404" y="668" type="curve" smooth="yes"/>
			<point x="434" y="668"/>
			<point x="458" y="664"/>
			<point x="478" y="660" type="curve"/>
			<point x="446" y="684" type="line"/>
			<point x="470" y="632" type="line" smooth="yes"/>
			<point x="480" y="610"/>
			<point x="490" y="604"/>
			<point x="504" y="604" type="curve" smooth="yes"/>
			<point x="520" y="604"/>
			<point x="528" y="614"/>
			<point x="530" y="628" type="curve"/>
			<point x="514" y="660"/>
			<point x="474" y="692"/>
			<point x="400" y="692" type="curve" smooth="yes"/>
			<point x="274" y="692"/>
			<point x="210" y="612"/>
			<point x="210" y="518" type="curve" smooth="yes"/>
			<point x="210" y="481"/>
			<point x="227" y="449"/>
			<point x="253" y="417" type="curve"/>
			<point x="250" y="411" type="line"/>
			<point x="137" y="394"/>
			<point x="70" y="308.9671361502"/>
			<point x="70" y="200" type="curve" smooth="yes"/>
			<point x="70" y="80"/>
			<point x="150" y="-16"/>
		</contour>
	</outline>
</glyph>
<glyph name="quotesingle" format="2">
	<unicode hex="0027"/>
	<advance width="196"/>
	<outline>
		<contour>
			<point x="180" y="748" type="curve" smooth="yes"/>
			<point x="166" y="748"/>
			<point x="158" y="740"/>
			<point x="154" y="720" type="curve" smooth="yes"/>
			<point x="150" y="700"/>
			<point x="142" y="636"/>
			<point x="134" y="568" type="curve" smooth="yes"/>
			<point x="122" y="468" type="line"/>
			<point x="146" y="468" type="line"/>
			<point x="186" y="644"/>
			<point x="200" y="708"/>
			<point x="200" y="725" type="curve" smooth="yes"/>
			<point x="200" y="739"/>
			<point x="195" y="748"/>
		</contour>
	</outline>
</glyph>
<glyph name="parenleft" format="2">
	<unicode hex="0028"/>
	<advance width="352"/>
	<outline>
		<contour>
			<point x="218" y="-204" type="curve"/>
			<point x="236" y="-190" type="line"/>
			<point x="154" y="-68"/>
			<point x="122" y="48"/>
			<point x="122" y="172" type="curve" smooth="yes"/>
			<point x="122" y="368"/>
			<point x="198" y="560"/>
			<point x="422" y="744" type="curve"/>
			<point x="406" y="760" type="line"/>
			<point x="182" y="584"/>
			<point x="94" y="384"/>
			<point x="94" y="172" type="curve" smooth="yes"/>
			<point x="94" y="32"/>
			<point x="130" y="-84"/>
		</contour>
	</outline>
</glyph>
<glyph name="asterisk" format="2">
	<unicode hex="002A"/>
	<advance width="468"/>
	<outline>
		<contour>
			<point x="258" y="758" type="curve" smooth="yes"/>
			<point x="244" y="758"/>
			<point x="236" y="748"/>
			<point x="236" y="730" type="curve" smooth="yes"/>
			<point x="236" y="710"/>
			<point x="241" y="688"/>
			<point x="286" y="556" type="curve"/>
			<point x="166" y="594"/>
			<point x="134" y="600"/>
			<point x="114" y="600" type="curve" smooth="yes"/>
			<point x="96" y="600"/>
			<point x="84" y="592"/>
			<point x="84" y="578" type="curve" smooth="yes"/>
			<point x="84" y="554"/>
			<point x="96" y="543"/>
			<point x="284" y="548" type="curve"/>
			<point x="194" y="418"/>
			<point x="186" y="402"/>
			<point x="186" y="388" type="curve" smooth="yes"/>
			<point x="186" y="375"/>
			<point x="194" y="368"/>
			<point x="205" y="368" type="curve" smooth="yes"/>
			<point x="228" y="368"/>
			<point x="242" y="390"/>
			<point x="292" y="544" type="curve"/>
			<point x="388" y="420"/>
			<point x="406" y="406"/>
			<point x="424" y="406" type="curve" smooth="yes"/>
			<point x="438" y="406"/>
			<point x="446" y="416"/>
			<point x="446" y="428" type="curve" smooth="yes"/>
			<point x="446" y="444"/>
			<point x="430" y="460"/>
			<point x="298" y="550" type="curve"/>
			<point x="464.1123804201" y="611.698884156"/>
			<point x="476" y="622"/>
			<point x="476" y="640" type="curve" smooth="yes"/>
			<point x="476" y="651"/>
			<point x="467" y="660"/>
			<point x="454" y="660" type="curve" smooth="yes"/>
			<point x="438" y="660"/>
			<point x="415.656086819" y="644.4771540502"/>
			<point x="294" y="556" type="curve"/>
			<point x="292" y="700"/>
			<point x="288" y="722"/>
			<point x="284" y="736" type="curve" smooth="yes"/>
			<point x="280" y="750"/>
			<point x="272" y="758"/>
		</contour>
	</outline>
</glyph>
<glyph name="comma" format="2">
	<unicode hex="002C"/>
	<advance width="288"/>
	<outline>
		<contour>
			<point x="146" y="14" type="curve" smooth="yes"/>
			<point x="146" y="32"/>
			<point x="142" y="46"/>
			<point x="140" y="52" type="curve"/>
			<point x="136" y="54"/>
			<point x="128" y="56"/>
			<point x="118" y="56" type="curve" smooth="yes"/>
			<point x="98" y="56"/>
			<point x="82" y="42"/>
			<point x="82" y="22" type="curve" smooth="yes"/>
			<point x="82" y="2"/>
			<point x="96" y="-8"/>
			<point x="108" y="-16" type="curve" smooth="yes"/>
			<point x="120" y="-24" type="line"/>
			<point x="120" y="-8" type="line"/>
			<point x="102" y="-72"/>
			<point x="70" y="-112"/>
			<point x="8" y="-152" type="curve"/>
			<point x="22" y="-172" type="line"/>
			<point x="94" y="-128"/>
			<point x="146" y="-64"/>
		</contour>
	</outline>
</glyph>
<glyph name="hyphen" format="2">
	<unicode hex="002D"/>
	<unicode hex="00AD"/>
	<unicode hex="2010"/>
	<advance width="312"/>
	<outline>
		<contour>
			<point x="56" y="237" type="line"/>
			<point x="288" y="237" type="line"/>
			<point x="288" y="267" type="line"/>
			<point x="56" y="267" type="line"/>
		</contour>
	</outline>
</glyph>
<glyph name="slash" format="2">
	<unicode hex="002F"/>
	<advance width="332"/>
	<outline>
		<contour>
			<point x="-72" y="-160" type="line"/>
			<point x="-44" y="-160" type="line"/>
			<point x="404" y="710" type="line"/>
			<point x="376" y="710" type="line"/>
		</contour>
	</outline>
</glyph>
<glyph name="one" format="2">
	<unicode hex="0031"/>
	<advance width="594"/>
	<outline>
		<contour>
			<point x="79" y="0" type="line"/>
			<point x="451" y="0" type="line"/>
			<point x="457" y="28" type="line"/>
			<point x="277" y="28" type="line"/>
			<point x="258" y="28" type="line"/>
			<point x="85" y="28" type="line"/>
		</contour>
		<contour>
			<point x="247" y="0" type="line"/>
			<point x="281" y="0" type="line"/>
			<point x="295" y="71"/>
			<point x="309" y="143"/>
			<point x="323" y="214" type="curve" smooth="yes"/>
			<point x="381" y="508" type="line"/>
			<point x="413" y="664" type="line"/>
			<point x="393" y="664" type="line"/>
			<point x="198" y="608" type="line"/>
			<point x="192" y="580" type="line"/>
			<point x="395" y="636" type="line"/>
			<point x="375" y="644" type="line"/>
		</contour>
	</outline>
</glyph>
<glyph name="less" format="2">
	<unicode hex="003C"/>
	<advance width="538"/>
	<outline>
		<contour>
			<point x="91" y="318" type="line"/>
			<point x="475" y="88" type="line"/>
			<point x="493" y="116" type="line"/>
			<point x="107" y="344" type="line"/>
			<point x="107" y="320" type="line"/>
			<point x="493" y="548" type="line"/>
			<point x="475" y="576" type="line"/>
			<point x="91" y="346" type="line"/>
		</contour>
	</outline>
</glyph>
<glyph name="question" format="2">
	<unicode hex="003F"/>
	<advance width="416"/>
	<outline>
		<contour>
			<point x="80" y="148" type="curve"/>
			<point x="108" y="148" type="line"/>
			<point x="112" y="260"/>
			<point x="148" y="300"/>
			<point x="220" y="348" type="curve" smooth="yes"/>
			<point x="268" y="380" type="line" smooth="yes"/>
			<point x="376" y="452"/>
			<point x="412" y="492"/>
			<point x="412" y="568" type="curve" smooth="yes"/>
			<point x="412" y="644"/>
			<point x="356" y="692"/>
			<point x="264" y="692" type="curve" smooth="yes"/>
			<point x="180" y="692"/>
			<point x="132" y="648"/>
			<point x="116" y="608" type="curve"/>
			<point x="118" y="592"/>
			<point x="128" y="580"/>
			<point x="146" y="580" type="curve" smooth="yes"/>
			<point x="164" y="580"/>
			<point x="176" y="592"/>
			<point x="184" y="612" type="curve" smooth="yes"/>
			<point x="208" y="672" type="line"/>
			<point x="188" y="656" type="line"/>
			<point x="204" y="660"/>
			<point x="224" y="664"/>
			<point x="256" y="664" type="curve" smooth="yes"/>
			<point x="336" y="664"/>
			<point x="380" y="628"/>
			<point x="380" y="568" type="curve" smooth="yes"/>
			<point x="380" y="508"/>
			<point x="352" y="472"/>
			<point x="244" y="400" type="curve" smooth="yes"/>
			<point x="196" y="368" type="line" smooth="yes"/>
			<point x="124" y="320"/>
			<point x="84" y="276"/>
		</contour>
		<contour>
			<point x="56" y="21" type="curve" smooth="yes"/>
			<point x="56" y="3"/>
			<point x="68" y="-10"/>
			<point x="87" y="-10" type="curve" smooth="yes"/>
			<point x="108" y="-10"/>
			<point x="124" y="6"/>
			<point x="124" y="27" type="curve" smooth="yes"/>
			<point x="124" y="45"/>
			<point x="112" y="58"/>
			<point x="93" y="58" type="curve" smooth="yes"/>
			<point x="72" y="58"/>
			<point x="56" y="42"/>
		</contour>
	</outline>
</glyph>
<glyph name="at" format="2">
	<unicode hex="0040"/>
	<advance width="860"/>
	<outline>
		<contour>
			<point x="356" y="56" type="curve" smooth="yes"/>
			<point x="412" y="56"/>
			<point x="460" y="96"/>
			<point x="500" y="156" type="curve"/>
			<point x="532" y="156" type="line"/>
			<point x="532" y="212" type="line"/>
			<point x="460" y="132"/>
			<point x="420" y="82"/>
			<point x="360" y="82" type="curve" smooth="yes"/>
			<point x="320" y="82"/>
			<point x="294" y="108"/>
			<point x="294" y="180" type="curve" smooth="yes"/>
			<point x="294" y="300"/>
			<point x="392" y="458"/>
			<point x="516" y="458" type="curve" smooth="yes"/>
			<point x="548" y="458"/>
			<point x="572" y="448"/>
			<point x="588" y="432" type="curve"/>
			<point x="588" y="448" type="line"/>
			<point x="580" y="464"/>
			<point x="556" y="484"/>
			<point x="514" y="484" type="curve" smooth="yes"/>
			<point x="376" y="484"/>
			<point x="264" y="316"/>
			<point x="264" y="176" type="curve" smooth="yes"/>
			<point x="264" y="92"/>
			<point x="304" y="56"/>
		</contour>
		<contour>
			<point x="584" y="56" type="curve" smooth="yes"/>
			<point x="672" y="56"/>
			<point x="820" y="164"/>
			<point x="820" y="382" type="curve" smooth="yes"/>
			<point x="820" y="540"/>
			<point x="720" y="664"/>
			<point x="524" y="664" type="curve" smooth="yes"/>
			<point x="276" y="664"/>
			<point x="56" y="456"/>
			<point x="56" y="159" type="curve" smooth="yes"/>
			<point x="56" y="-28"/>
			<point x="164" y="-156"/>
			<point x="372" y="-156" type="curve" smooth="yes"/>
			<point x="444" y="-156"/>
			<point x="500" y="-144"/>
			<point x="560" y="-116" type="curve"/>
			<point x="550" y="-94" type="line"/>
			<point x="492" y="-120"/>
			<point x="444" y="-130"/>
			<point x="376" y="-130" type="curve" smooth="yes"/>
			<point x="180" y="-130"/>
			<point x="86" y="-12"/>
			<point x="86" y="163" type="curve" smooth="yes"/>
			<point x="86" y="440"/>
			<point x="292" y="638"/>
			<point x="524" y="638" type="curve" smooth="yes"/>
			<point x="704" y="638"/>
			<point x="792" y="524"/>
			<point x="792" y="382" type="curve" smooth="yes"/>
			<point x="792" y="180"/>
			<point x="656" y="80"/>
			<point x="588" y="80" type="curve" smooth="yes"/>
			<point x="544" y="80"/>
			<point x="528" y="108"/>
			<point x="540" y="164" type="curve" smooth="yes"/>
			<point x="608" y="484" type="line"/>
			<point x="592" y="484" type="line"/>
			<point x="576" y="456" type="line"/>
			<point x="514" y="164" type="line" smooth="yes"/>
			<point x="500" y="96"/>
			<point x="524" y="56"/>
		</contour>
	</outline>
</glyph>
<glyph name="A" format="2">
	<unicode hex="0041"/>
	<advance width="674"/>
	<outline>
		<contour>
			<point x="-10" y="0" type="line"/>
			<point x="210" y="0" type="line"/>
			<point x="216" y="28" type="line"/>
			<point x="106" y="28" type="line"/>
			<point x="94" y="28" type="line"/>
			<point x="-4" y="28" type="line"/>
		</contour>
		<contour>
			<point x="70" y="0" type="line"/>
			<point x="104" y="0" type="line"/>
			<point x="326" y="456" type="line"/>
			<point x="407" y="643" type="line"/>
			<point x="414" y="643" type="line"/>
			<point x="504" y="0" type="line"/>
			<point x="538" y="0" type="line"/>
			<point x="438" y="676" type="line"/>
			<point x="403" y="676" type="line"/>
		</contour>
		<contour>
			<point x="214" y="240" type="line"/>
			<point x="482" y="240" type="line"/>
			<point x="482" y="268" type="line"/>
			<point x="214" y="268" type="line"/>
		</contour>
		<contour>
			<point x="394" y="0" type="line"/>
			<point x="620" y="0" type="line"/>
			<point x="626" y="28" type="line"/>
			<point x="526" y="28" type="line"/>
			<point x="510" y="28" type="line"/>
			<point x="400" y="28" type="line"/>
		</contour>
	</outline>
	<anchor name="aboveUC" x="421" y="696"/>
	<anchor name="belowLC" x="290" y="-20"/>
	<anchor name="ogonek" x="521" y="0"/>
</glyph>
<glyph name="B" format="2">
	<unicode hex="0042"/>
	<advance width="600"/>
	<outline>
		<contour>
			<point x="20" y="0" type="line"/>
			<point x="148" y="0" type="line"/>
			<point x="148" y="28" type="line"/>
			<point x="140" y="28" type="line"/>
			<point x="26" y="28" type="line"/>
		</contour>
		<contour>
			<point x="126" y="0" type="line"/>
			<point x="160" y="0" type="line"/>
			<point x="216" y="312" type="line"/>
			<point x="282" y="676" type="line"/>
			<point x="248" y="676" type="line"/>
			<point x="192" y="364" type="line"/>
		</contour>
		<contour>
			<point x="132" y="648" type="line"/>
			<point x="252" y="648" type="line"/>
			<point x="260" y="648" type="line"/>
			<point x="260" y="676" type="line"/>
			<point x="138" y="676" type="line"/>
		</contour>
		<contour>
			<point x="156" y="0" type="line"/>
			<point x="284" y="0" type="line" smooth="yes"/>
			<point x="444" y="0"/>
			<point x="540" y="76"/>
			<point x="540" y="200" type="curve" smooth="yes"/>
			<point x="540" y="300"/>
			<point x="468" y="348"/>
			<point x="348" y="350" type="curve"/>
			<point x="348" y="358" type="line"/>
			<point x="468" y="360"/>
			<point x="556" y="424"/>
			<point x="556" y="528" type="curve" smooth="yes"/>
			<point x="556" y="616"/>
			<point x="492" y="676"/>
			<point x="352" y="676" type="curve" smooth="yes"/>
			<point x="268" y="676" type="line"/>
			<point x="268" y="648" type="line"/>
			<point x="348" y="648" type="line" smooth="yes"/>
			<point x="476" y="648"/>
			<point x="523" y="600"/>
			<point x="523" y="524" type="curve" smooth="yes"/>
			<point x="523" y="440"/>
			<point x="460" y="368"/>
			<point x="300" y="368" type="curve" smooth="yes"/>
			<point x="208" y="368" type="line"/>
			<point x="208" y="340" type="line"/>
			<point x="300" y="340" type="line" smooth="yes"/>
			<point x="452" y="340"/>
			<point x="506" y="284"/>
			<point x="506" y="200" type="curve" smooth="yes"/>
			<point x="506" y="92"/>
			<point x="428" y="28"/>
			<point x="284" y="28" type="curve" smooth="yes"/>
			<point x="156" y="28" type="line"/>
		</contour>
	</outline>
	<anchor name="aboveUC" x="346" y="682"/>
	<anchor name="belowLC" x="261" y="-22"/>
	<anchor name="aboveUC" x="358" y="682"/>
	<anchor name="belowLC" x="273" y="-22"/>
</glyph>
<glyph name="C" format="2">
	<unicode hex="0043"/>
	<advance width="660"/>
	<outline>
		<contour>
			<point x="368" y="-16" type="curve" smooth="yes"/>
			<point x="448" y="-16"/>
			<point x="512" y="8"/>
			<point x="552" y="32" type="curve"/>
			<point x="580" y="172" type="line"/>
			<point x="552" y="172" type="line"/>
			<point x="514" y="32" type="line"/>
			<point x="532" y="52" type="line"/>
			<point x="488" y="28"/>
			<point x="440" y="12"/>
			<point x="372" y="12" type="curve" smooth="yes"/>
			<point x="220" y="12"/>
			<point x="109" y="100"/>
			<point x="109" y="284" type="curve" smooth="yes"/>
			<point x="109" y="508"/>
			<point x="252" y="664"/>
			<point x="448" y="664" type="curve" smooth="yes"/>
			<point x="520" y="664"/>
			<point x="576" y="648"/>
			<point x="616" y="624" type="curve"/>
			<point x="598" y="644" type="line"/>
			<point x="588" y="504" type="line"/>
			<point x="616" y="504" type="line"/>
			<point x="636" y="644" type="line"/>
			<point x="592" y="672"/>
			<point x="528" y="692"/>
			<point x="448" y="692" type="curve" smooth="yes"/>
			<point x="236" y="692"/>
			<point x="76" y="524"/>
			<point x="76" y="280" type="curve" smooth="yes"/>
			<point x="76" y="88"/>
			<point x="204" y="-16"/>
		</contour>
	</outline>
	<anchor name="aboveUC" x="454" y="696"/>
	<anchor name="baseLC" x="369" y="0"/>
	<anchor name="belowLC" x="362" y="-20"/>
</glyph>
<glyph name="D" format="2">
	<unicode hex="0044"/>
	<advance width="720"/>
	<outline>
		<contour>
			<point x="20" y="0" type="line"/>
			<point x="148" y="0" type="line"/>
			<point x="148" y="28" type="line"/>
			<point x="140" y="28" type="line"/>
			<point x="26" y="28" type="line"/>
		</contour>
		<contour>
			<point x="126" y="0" type="line"/>
			<point x="160" y="0" type="line"/>
			<point x="179" y="104"/>
			<point x="197" y="208"/>
			<point x="216" y="312" type="curve" smooth="yes"/>
			<point x="282" y="676" type="line"/>
			<point x="248" y="676" type="line"/>
			<point x="229" y="572"/>
			<point x="211" y="468"/>
			<point x="192" y="364" type="curve" smooth="yes"/>
		</contour>
		<contour>
			<point x="132" y="648" type="line"/>
			<point x="252" y="648" type="line"/>
			<point x="260" y="648" type="line"/>
			<point x="260" y="676" type="line"/>
			<point x="138" y="676" type="line"/>
		</contour>
		<contour>
			<point x="156" y="0" type="line"/>
			<point x="260" y="0" type="line" smooth="yes"/>
			<point x="528" y="0"/>
			<point x="668" y="172"/>
			<point x="668" y="392" type="curve" smooth="yes"/>
			<point x="668" y="568"/>
			<point x="560" y="676"/>
			<point x="348" y="676" type="curve" smooth="yes"/>
			<point x="268" y="676" type="line"/>
			<point x="268" y="648" type="line"/>
			<point x="344" y="648" type="line" smooth="yes"/>
			<point x="544" y="648"/>
			<point x="635" y="552"/>
			<point x="635" y="392" type="curve" smooth="yes"/>
			<point x="635" y="188"/>
			<point x="512" y="28"/>
			<point x="260" y="28" type="curve" smooth="yes"/>
			<point x="156" y="28" type="line"/>
		</contour>
	</outline>
	<anchor name="aboveUC" x="425" y="682"/>
	<anchor name="belowLC" x="294" y="-22"/>
</glyph>
<glyph name="E" format="2">
	<unicode hex="0045"/>
	<advance width="632"/>
	<outline>
		<contour>
			<point x="20" y="0" type="line"/>
			<point x="148" y="0" type="line"/>
			<point x="148" y="28" type="line"/>
			<point x="140" y="28" type="line"/>
			<point x="26" y="28" type="line"/>
		</contour>
		<contour>
			<point x="126" y="0" type="line"/>
			<point x="160" y="0" type="line"/>
			<point x="216" y="312" type="line"/>
			<point x="282" y="676" type="line"/>
			<point x="248" y="676" type="line"/>
			<point x="192" y="364" type="line"/>
		</contour>
		<contour>
			<point x="132" y="648" type="line"/>
			<point x="252" y="648" type="line"/>
			<point x="260" y="648" type="line"/>
			<point x="260" y="676" type="line"/>
			<point x="138" y="676" type="line"/>
		</contour>
		<contour>
			<point x="156" y="0" type="line"/>
			<point x="508" y="0" type="line"/>
			<point x="548" y="168" type="line"/>
			<point x="520" y="168" type="line"/>
			<point x="474" y="12" type="line"/>
			<point x="488" y="28" type="line"/>
			<point x="156" y="28" type="line"/>
		</contour>
		<contour>
			<point x="204" y="328" type="line"/>
			<point x="428" y="328" type="line"/>
			<point x="428" y="356" type="line"/>
			<point x="204" y="356" type="line"/>
		</contour>
		<contour>
			<point x="268" y="648" type="line"/>
			<point x="582" y="648" type="line"/>
			<point x="562" y="664" type="line"/>
			<point x="554" y="516" type="line"/>
			<point x="582" y="516" type="line"/>
			<point x="600" y="676" type="line"/>
			<point x="268" y="676" type="line"/>
		</contour>
		<contour>
			<point x="402" y="232" type="line"/>
			<point x="428" y="232" type="line"/>
			<point x="468" y="456" type="line"/>
			<point x="442" y="456" type="line"/>
			<point x="414" y="352" type="line"/>
			<point x="410" y="332" type="line"/>
		</contour>
	</outline>
	<anchor name="aboveUC" x="415" y="682"/>
	<anchor name="belowLC" x="301" y="-22"/>
	<anchor name="ogonek" x="445" y="0"/>
</glyph>
<glyph name="F" format="2">
	<unicode hex="0046"/>
	<advance width="624"/>
	<outline>
		<contour>
			<point x="20" y="0" type="line"/>
			<point x="282" y="0" type="line"/>
			<point x="288" y="28" type="line"/>
			<point x="148" y="28" type="line"/>
			<point x="140" y="28" type="line"/>
			<point x="26" y="28" type="line"/>
		</contour>
		<contour>
			<point x="126" y="0" type="line"/>
			<point x="160" y="0" type="line"/>
			<point x="216" y="312" type="line"/>
			<point x="282" y="676" type="line"/>
			<point x="248" y="676" type="line"/>
			<point x="192" y="364" type="line"/>
		</contour>
		<contour>
			<point x="132" y="648" type="line"/>
			<point x="252" y="648" type="line"/>
			<point x="260" y="648" type="line"/>
			<point x="260" y="676" type="line"/>
			<point x="138" y="676" type="line"/>
		</contour>
		<contour>
			<point x="204" y="324" type="line"/>
			<point x="432" y="324" type="line"/>
			<point x="432" y="352" type="line"/>
			<point x="204" y="352" type="line"/>
		</contour>
		<contour>
			<point x="268" y="648" type="line"/>
			<point x="586" y="648" type="line"/>
			<point x="566" y="664" type="line"/>
			<point x="558" y="516" type="line"/>
			<point x="586" y="516" type="line"/>
			<point x="604" y="676" type="line"/>
			<point x="268" y="676" type="line"/>
		</contour>
		<contour>
			<point x="406" y="228" type="line"/>
			<point x="432" y="228" type="line"/>
			<point x="472" y="452" type="line"/>
			<point x="446" y="452" type="line"/>
			<point x="418" y="348" type="line"/>
			<point x="414" y="328" type="line"/>
		</contour>
	</outline>
	<anchor name="aboveUC" x="421" y="682"/>
	<anchor name="belowLC" x="150" y="-22"/>
</glyph>
<glyph name="G" format="2">
	<unicode hex="0047"/>
	<advance width="728"/>
	<outline>
		<contour>
			<point x="76" y="280" type="curve" smooth="yes"/>
			<point x="76" y="88"/>
			<point x="204" y="-16"/>
			<point x="372" y="-16" type="curve" smooth="yes"/>
			<point x="464" y="-16"/>
			<point x="528" y="12"/>
			<point x="568" y="36" type="curve"/>
			<point x="620" y="320" type="line"/>
			<point x="584" y="320" type="line"/>
			<point x="571" y="247"/>
			<point x="557" y="175"/>
			<point x="544" y="102" type="curve" smooth="yes"/>
			<point x="532" y="36" type="line"/>
			<point x="552" y="60" type="line"/>
			<point x="496" y="28"/>
			<point x="440" y="12"/>
			<point x="376" y="12" type="curve" smooth="yes"/>
			<point x="220" y="12"/>
			<point x="109" y="104"/>
			<point x="109" y="284" type="curve" smooth="yes"/>
			<point x="109" y="508"/>
			<point x="252" y="664"/>
			<point x="448" y="664" type="curve" smooth="yes"/>
			<point x="528" y="664"/>
			<point x="592" y="648"/>
			<point x="640" y="616" type="curve"/>
			<point x="622" y="636" type="line"/>
			<point x="612" y="496" type="line"/>
			<point x="640" y="496" type="line"/>
			<point x="660" y="636" type="line"/>
			<point x="608" y="672"/>
			<point x="544" y="692"/>
			<point x="448" y="692" type="curve" smooth="yes"/>
			<point x="236" y="692"/>
			<point x="76" y="524"/>
		</contour>
		<contour>
			<point x="460" y="292" type="line"/>
			<point x="588" y="292" type="line"/>
			<point x="604" y="292" type="line"/>
			<point x="690" y="292" type="line"/>
			<point x="696" y="320" type="line"/>
			<point x="466" y="320" type="line"/>
		</contour>
	</outline>
	<anchor name="aboveUC" x="462" y="682"/>
	<anchor name="belowLC" x="360" y="-22"/>
</glyph>
<glyph name="H" format="2">
	<unicode hex="0048"/>
	<advance width="792"/>
	<outline>
		<contour>
			<point x="20" y="0" type="line"/>
			<point x="270" y="0" type="line"/>
			<point x="276" y="28" type="line"/>
			<point x="156" y="28" type="line"/>
			<point x="140" y="28" type="line"/>
			<point x="26" y="28" type="line"/>
		</contour>
		<contour>
			<point x="126" y="0" type="line"/>
			<point x="160" y="0" type="line"/>
			<point x="179" y="104"/>
			<point x="197" y="208"/>
			<point x="216" y="312" type="curve" smooth="yes"/>
			<point x="282" y="676" type="line"/>
			<point x="248" y="676" type="line"/>
			<point x="229" y="572"/>
			<point x="211" y="468"/>
			<point x="192" y="364" type="curve" smooth="yes"/>
		</contour>
		<contour>
			<point x="132" y="648" type="line"/>
			<point x="252" y="648" type="line"/>
			<point x="268" y="648" type="line"/>
			<point x="382" y="648" type="line"/>
			<point x="388" y="676" type="line"/>
			<point x="138" y="676" type="line"/>
		</contour>
		<contour>
			<point x="212" y="342" type="line"/>
			<point x="636" y="342" type="line"/>
			<point x="636" y="370" type="line"/>
			<point x="212" y="370" type="line"/>
		</contour>
		<contour>
			<point x="452" y="0" type="line"/>
			<point x="702" y="0" type="line"/>
			<point x="708" y="28" type="line"/>
			<point x="588" y="28" type="line"/>
			<point x="572" y="28" type="line"/>
			<point x="458" y="28" type="line"/>
		</contour>
		<contour>
			<point x="558" y="0" type="line"/>
			<point x="592" y="0" type="line"/>
			<point x="611" y="104"/>
			<point x="629" y="208"/>
			<point x="648" y="312" type="curve" smooth="yes"/>
			<point x="714" y="676" type="line"/>
			<point x="680" y="676" type="line"/>
			<point x="661" y="572"/>
			<point x="643" y="468"/>
			<point x="624" y="364" type="curve" smooth="yes"/>
		</contour>
		<contour>
			<point x="564" y="648" type="line"/>
			<point x="684" y="648" type="line"/>
			<point x="700" y="648" type="line"/>
			<point x="814" y="648" type="line"/>
			<point x="820" y="676" type="line"/>
			<point x="570" y="676" type="line"/>
		</contour>
	</outline>
	<anchor name="aboveUC" x="476" y="682"/>
	<anchor name="belowLC" x="370" y="-22"/>
	<note>
		skew 10 scale 120
	</note>
</glyph>
<glyph name="I" format="2">
	<unicode hex="0049"/>
	<advance width="360"/>
	<outline>
		<contour>
			<point x="20" y="0" type="line"/>
			<point x="270" y="0" type="line"/>
			<point x="276" y="28" type="line"/>
			<point x="156" y="28" type="line"/>
			<point x="140" y="28" type="line"/>
			<point x="26" y="28" type="line"/>
		</contour>
		<contour>
			<point x="126" y="0" type="line"/>
			<point x="160" y="0" type="line"/>
			<point x="216" y="312" type="line"/>
			<point x="282" y="676" type="line"/>
			<point x="248" y="676" type="line"/>
			<point x="192" y="364" type="line"/>
		</contour>
		<contour>
			<point x="132" y="648" type="line"/>
			<point x="252" y="648" type="line"/>
			<point x="268" y="648" type="line"/>
			<point x="382" y="648" type="line"/>
			<point x="388" y="676" type="line"/>
			<point x="138" y="676" type="line"/>
		</contour>
	</outline>
	<anchor name="aboveUC" x="255" y="682"/>
	<anchor name="belowLC" x="127" y="-22"/>
	<anchor name="ogonek" x="183" y="0"/>
	<anchor name="aboveUC" x="267" y="682"/>
	<anchor name="belowLC" x="139" y="-22"/>
	<anchor name="ogonek" x="195" y="0"/>
</glyph>
<glyph name="J" format="2">
	<unicode hex="004A"/>
	<advance width="433"/>
	<outline>
		<contour>
			<point x="2" y="-7" type="curve"/>
			<point x="4" y="-23"/>
			<point x="24" y="-38"/>
			<point x="69" y="-38" type="curve" smooth="yes"/>
			<point x="161" y="-38"/>
			<point x="213" y="30"/>
			<point x="237" y="86" type="curve" smooth="yes"/>
			<point x="261" y="142"/>
			<point x="277" y="246"/>
			<point x="309" y="422" type="curve" smooth="yes"/>
			<point x="355" y="676" type="line"/>
			<point x="321" y="676" type="line"/>
			<point x="306" y="593"/>
			<point x="292" y="510"/>
			<point x="277" y="427" type="curve" smooth="yes"/>
			<point x="248" y="261"/>
			<point x="229" y="158"/>
			<point x="213" y="110" type="curve" smooth="yes"/>
			<point x="197" y="63"/>
			<point x="164" y="9"/>
			<point x="102" y="-17" type="curve"/>
			<point x="131" y="-14" type="line"/>
			<point x="98" y="-14" type="line"/>
			<point x="105" y="-17" type="line"/>
			<point x="77" y="5"/>
			<point x="66" y="12"/>
			<point x="38" y="12" type="curve" smooth="yes"/>
			<point x="21" y="12"/>
			<point x="7" y="4"/>
		</contour>
		<contour>
			<point x="197" y="648" type="line"/>
			<point x="325" y="648" type="line"/>
			<point x="341" y="648" type="line"/>
			<point x="455" y="648" type="line"/>
			<point x="461" y="676" type="line"/>
			<point x="203" y="676" type="line"/>
		</contour>
	</outline>
	<anchor name="aboveUC" x="338" y="696"/>
	<anchor name="belowLC" x="154" y="-58"/>
</glyph>
<glyph name="K" format="2">
	<unicode hex="004B"/>
	<advance width="708"/>
	<outline>
		<contour>
			<point x="20" y="0" type="line"/>
			<point x="270" y="0" type="line"/>
			<point x="276" y="28" type="line"/>
			<point x="156" y="28" type="line"/>
			<point x="140" y="28" type="line"/>
			<point x="26" y="28" type="line"/>
		</contour>
		<contour>
			<point x="126" y="0" type="line"/>
			<point x="160" y="0" type="line"/>
			<point x="216" y="312" type="line"/>
			<point x="282" y="676" type="line"/>
			<point x="248" y="676" type="line"/>
			<point x="192" y="364" type="line"/>
		</contour>
		<contour>
			<point x="132" y="648" type="line"/>
			<point x="252" y="648" type="line"/>
			<point x="268" y="648" type="line"/>
			<point x="382" y="648" type="line"/>
			<point x="388" y="676" type="line"/>
			<point x="138" y="676" type="line"/>
		</contour>
		<contour>
			<point x="192" y="244" type="line"/>
			<point x="660" y="676" type="line"/>
			<point x="620" y="676" type="line"/>
			<point x="192" y="276" type="line"/>
		</contour>
		<contour>
			<point x="530" y="0" type="line"/>
			<point x="568" y="0" type="line"/>
			<point x="344" y="392" type="line"/>
			<point x="316" y="376" type="line"/>
		</contour>
		<contour>
			<point x="406" y="0" type="line"/>
			<point x="642" y="0" type="line"/>
			<point x="648" y="28" type="line"/>
			<point x="544" y="28" type="line"/>
			<point x="524" y="28" type="line"/>
			<point x="412" y="28" type="line"/>
		</contour>
		<contour>
			<point x="488" y="648" type="line"/>
			<point x="600" y="648" type="line"/>
			<point x="620" y="648" type="line"/>
			<point x="718" y="648" type="line"/>
			<point x="724" y="676" type="line"/>
			<point x="494" y="676" type="line"/>
		</contour>
	</outline>
	<anchor name="aboveUC" x="416" y="682"/>
	<anchor name="belowLC" x="333" y="-22"/>
	<anchor name="aboveUC" x="428" y="682"/>
	<anchor name="belowLC" x="345" y="-22"/>
</glyph>
<glyph name="L" format="2">
	<unicode hex="004C"/>
	<advance width="584"/>
	<outline>
		<contour>
			<point x="20" y="0" type="line"/>
			<point x="148" y="0" type="line"/>
			<point x="148" y="28" type="line"/>
			<point x="140" y="28" type="line"/>
			<point x="26" y="28" type="line"/>
		</contour>
		<contour>
			<point x="126" y="0" type="line"/>
			<point x="160" y="0" type="line"/>
			<point x="179" y="104"/>
			<point x="197" y="208"/>
			<point x="216" y="312" type="curve" smooth="yes"/>
			<point x="282" y="676" type="line"/>
			<point x="248" y="676" type="line"/>
			<point x="229" y="572"/>
			<point x="211" y="468"/>
			<point x="192" y="364" type="curve" smooth="yes"/>
		</contour>
		<contour>
			<point x="132" y="648" type="line"/>
			<point x="256" y="648" type="line"/>
			<point x="264" y="648" type="line"/>
			<point x="386" y="648" type="line"/>
			<point x="392" y="676" type="line"/>
			<point x="138" y="676" type="line"/>
		</contour>
		<contour>
			<point x="156" y="0" type="line"/>
			<point x="480" y="0" type="line"/>
			<point x="524" y="176" type="line"/>
			<point x="496" y="176" type="line"/>
			<point x="446" y="12" type="line"/>
			<point x="460" y="28" type="line"/>
			<point x="156" y="28" type="line"/>
		</contour>
	</outline>
	<anchor name="aboveUC" x="267" y="696"/>
	<anchor name="belowLC" x="298" y="-20"/>
</glyph>
<glyph name="M" format="2">
	<unicode hex="004D"/>
	<advance width="952"/>
	<outline>
		<contour>
			<point x="12" y="0" type="line"/>
			<point x="262" y="0" type="line"/>
			<point x="268" y="28" type="line"/>
			<point x="144" y="28" type="line"/>
			<point x="132" y="28" type="line"/>
			<point x="18" y="28" type="line"/>
		</contour>
		<contour>
			<point x="118" y="0" type="line"/>
			<point x="150" y="0" type="line"/>
			<point x="302" y="660" type="line"/>
			<point x="272" y="660" type="line"/>
		</contour>
		<contour>
			<point x="406" y="0" type="line"/>
			<point x="444" y="0" type="line"/>
			<point x="828" y="676" type="line"/>
			<point x="793" y="676" type="line"/>
			<point x="422" y="16" type="line"/>
			<point x="434" y="16" type="line"/>
			<point x="329" y="676" type="line"/>
			<point x="166" y="676" type="line"/>
			<point x="160" y="648" type="line"/>
			<point x="320" y="648" type="line"/>
			<point x="298" y="668" type="line"/>
		</contour>
		<contour>
			<point x="612" y="0" type="line"/>
			<point x="862" y="0" type="line"/>
			<point x="868" y="28" type="line"/>
			<point x="748" y="28" type="line"/>
			<point x="732" y="28" type="line"/>
			<point x="618" y="28" type="line"/>
		</contour>
		<contour>
			<point x="718" y="0" type="line"/>
			<point x="752" y="0" type="line"/>
			<point x="796" y="304" type="line"/>
			<point x="850" y="676" type="line"/>
			<point x="824" y="676" type="line"/>
			<point x="816" y="664" type="line"/>
		</contour>
		<contour>
			<point x="824" y="648" type="line"/>
			<point x="950" y="648" type="line"/>
			<point x="956" y="676" type="line"/>
			<point x="824" y="676" type="line"/>
		</contour>
	</outline>
	<anchor name="aboveUC" x="531" y="652"/>
	<anchor name="belowLC" x="415" y="-22"/>
	<anchor name="aboveUC" x="547" y="652"/>
	<anchor name="belowLC" x="431" y="-22"/>
</glyph>
<glyph name="N" format="2">
	<unicode hex="004E"/>
	<advance width="792"/>
	<outline>
		<contour>
			<point x="20" y="0" type="line"/>
			<point x="278" y="0" type="line"/>
			<point x="284" y="28" type="line"/>
			<point x="152" y="28" type="line"/>
			<point x="140" y="28" type="line"/>
			<point x="26" y="28" type="line"/>
		</contour>
		<contour>
			<point x="126" y="0" type="line"/>
			<point x="158" y="0" type="line"/>
			<point x="231" y="401" type="line"/>
			<point x="269" y="664" type="line"/>
			<point x="250" y="664" type="line"/>
		</contour>
		<contour>
			<point x="568" y="648" type="line"/>
			<point x="700" y="648" type="line"/>
			<point x="712" y="648" type="line"/>
			<point x="826" y="648" type="line"/>
			<point x="832" y="676" type="line"/>
			<point x="574" y="676" type="line"/>
		</contour>
		<contour>
			<point x="600" y="44" type="line"/>
			<point x="578" y="44" type="line"/>
			<point x="287" y="676" type="line"/>
			<point x="142" y="676" type="line"/>
			<point x="136" y="648" type="line"/>
			<point x="258" y="648" type="line"/>
			<point x="258" y="628" type="line"/>
			<point x="276" y="628" type="line"/>
			<point x="562" y="0" type="line"/>
			<point x="598" y="0" type="line"/>
			<point x="726" y="676" type="line"/>
			<point x="694" y="676" type="line"/>
			<point x="622" y="288" type="line"/>
			<point x="584" y="26" type="line"/>
		</contour>
	</outline>
	<anchor name="aboveUC" x="472" y="696"/>
	<anchor name="belowLC" x="399" y="-20"/>
	<guideline name="634.0" x="634" y="351" angle="78" identifier="kBh6sflUkC"/>
	<guideline name="351.0" x="0" y="351" angle="0" identifier="iQ4IUvO4tS"/>
</glyph>
<glyph name="O" format="2">
	<unicode hex="004F"/>
	<advance width="680"/>
	<outline>
		<contour>
			<point x="322" y="-16" type="curve" smooth="yes"/>
			<point x="514" y="-16"/>
			<point x="662" y="176"/>
			<point x="662" y="412" type="curve" smooth="yes"/>
			<point x="662" y="580"/>
			<point x="578" y="692"/>
			<point x="422" y="692" type="curve" smooth="yes"/>
			<point x="230" y="692"/>
			<point x="82" y="500"/>
			<point x="82" y="264" type="curve" smooth="yes"/>
			<point x="82" y="96"/>
			<point x="166" y="-16"/>
		</contour>
		<contour>
			<point x="326" y="12" type="curve" smooth="yes"/>
			<point x="186" y="12"/>
			<point x="115" y="116"/>
			<point x="115" y="268" type="curve" smooth="yes"/>
			<point x="115" y="480"/>
			<point x="250" y="664"/>
			<point x="418" y="664" type="curve" smooth="yes"/>
			<point x="558" y="664"/>
			<point x="629" y="560"/>
			<point x="629" y="408" type="curve" smooth="yes"/>
			<point x="629" y="196"/>
			<point x="494" y="12"/>
		</contour>
	</outline>
	<anchor name="aboveUC" x="424" y="696"/>
	<anchor name="belowLC" x="327" y="-20"/>
	<anchor name="ogonek" x="414" y="0"/>
	<anchor name="hornLC" x="579" y="607"/>
</glyph>
<glyph name="P" format="2">
	<unicode hex="0050"/>
	<advance width="600"/>
	<outline>
		<contour>
			<point x="20" y="0" type="line"/>
			<point x="282" y="0" type="line"/>
			<point x="288" y="28" type="line"/>
			<point x="148" y="28" type="line"/>
			<point x="140" y="28" type="line"/>
			<point x="26" y="28" type="line"/>
		</contour>
		<contour>
			<point x="126" y="0" type="line"/>
			<point x="160" y="0" type="line"/>
			<point x="216" y="312" type="line"/>
			<point x="282" y="676" type="line"/>
			<point x="248" y="676" type="line"/>
			<point x="192" y="364" type="line"/>
		</contour>
		<contour>
			<point x="132" y="648" type="line"/>
			<point x="252" y="648" type="line"/>
			<point x="260" y="648" type="line"/>
			<point x="260" y="676" type="line"/>
			<point x="138" y="676" type="line"/>
		</contour>
		<contour>
			<point x="200" y="281" type="line"/>
			<point x="308" y="281" type="line" smooth="yes"/>
			<point x="480" y="281"/>
			<point x="576" y="372"/>
			<point x="576" y="498" type="curve" smooth="yes"/>
			<point x="576" y="608"/>
			<point x="504" y="676"/>
			<point x="364" y="676" type="curve" smooth="yes"/>
			<point x="268" y="676" type="line"/>
			<point x="268" y="648" type="line"/>
			<point x="360" y="648" type="line" smooth="yes"/>
			<point x="488" y="648"/>
			<point x="542" y="592"/>
			<point x="542" y="496" type="curve" smooth="yes"/>
			<point x="542" y="388"/>
			<point x="464" y="308"/>
			<point x="304" y="308" type="curve" smooth="yes"/>
			<point x="200" y="308" type="line"/>
		</contour>
	</outline>
	<anchor name="aboveUC" x="340" y="682"/>
	<anchor name="belowLC" x="140" y="-22"/>
	<anchor name="aboveUC" x="352" y="682"/>
	<anchor name="belowLC" x="152" y="-22"/>
</glyph>
<glyph name="Q" format="2">
	<unicode hex="0051"/>
	<advance width="708"/>
	<outline>
		<contour>
			<point x="516" y="-252" type="curve" smooth="yes"/>
			<point x="592" y="-252"/>
			<point x="648" y="-220"/>
			<point x="684" y="-188" type="curve"/>
			<point x="668" y="-168" type="line"/>
			<point x="624" y="-204"/>
			<point x="584" y="-224"/>
			<point x="524" y="-224" type="curve" smooth="yes"/>
			<point x="408" y="-224"/>
			<point x="332" y="-148"/>
			<point x="332" y="0" type="curve"/>
			<point x="300" y="0" type="line"/>
			<point x="300" y="-168"/>
			<point x="388" y="-252"/>
		</contour>
		<contour>
			<point x="316" y="-16" type="curve" smooth="yes"/>
			<point x="508" y="-16"/>
			<point x="656" y="176"/>
			<point x="656" y="412" type="curve" smooth="yes"/>
			<point x="656" y="580"/>
			<point x="572" y="692"/>
			<point x="416" y="692" type="curve" smooth="yes"/>
			<point x="224" y="692"/>
			<point x="76" y="500"/>
			<point x="76" y="264" type="curve" smooth="yes"/>
			<point x="76" y="96"/>
			<point x="160" y="-16"/>
		</contour>
		<contour>
			<point x="320" y="12" type="curve" smooth="yes"/>
			<point x="180" y="12"/>
			<point x="109" y="116"/>
			<point x="109" y="268" type="curve" smooth="yes"/>
			<point x="109" y="480"/>
			<point x="244" y="664"/>
			<point x="412" y="664" type="curve" smooth="yes"/>
			<point x="552" y="664"/>
			<point x="623" y="560"/>
			<point x="623" y="408" type="curve" smooth="yes"/>
			<point x="623" y="196"/>
			<point x="488" y="12"/>
		</contour>
		<component base="O"/>
	</outline>
	<anchor name="aboveUC" x="404" y="682"/>
</glyph>
<glyph name="R" format="2">
	<unicode hex="0052"/>
	<advance width="688"/>
	<outline>
		<contour>
			<point x="20" y="0" type="line"/>
			<point x="270" y="0" type="line"/>
			<point x="276" y="28" type="line"/>
			<point x="156" y="28" type="line"/>
			<point x="140" y="28" type="line"/>
			<point x="26" y="28" type="line"/>
		</contour>
		<contour>
			<point x="126" y="0" type="line"/>
			<point x="160" y="0" type="line"/>
			<point x="179" y="104"/>
			<point x="197" y="208"/>
			<point x="216" y="312" type="curve" smooth="yes"/>
			<point x="282" y="676" type="line"/>
			<point x="248" y="676" type="line"/>
			<point x="229" y="572"/>
			<point x="211" y="468"/>
			<point x="192" y="364" type="curve" smooth="yes"/>
		</contour>
		<contour>
			<point x="132" y="648" type="line"/>
			<point x="252" y="648" type="line"/>
			<point x="260" y="648" type="line"/>
			<point x="260" y="676" type="line"/>
			<point x="138" y="676" type="line"/>
		</contour>
		<contour>
			<point x="582" y="-4" type="curve" smooth="yes"/>
			<point x="604" y="-4"/>
			<point x="616" y="-2"/>
			<point x="630" y="0" type="curve"/>
			<point x="636" y="26" type="line"/>
			<point x="524" y="30" type="line"/>
			<point x="540" y="16" type="line"/>
			<point x="448" y="224" type="line" smooth="yes"/>
			<point x="420" y="288"/>
			<point x="400" y="312"/>
			<point x="360" y="319" type="curve"/>
			<point x="360" y="327" type="line"/>
			<point x="468" y="332"/>
			<point x="564" y="400"/>
			<point x="564" y="516" type="curve" smooth="yes"/>
			<point x="564" y="608"/>
			<point x="492" y="676"/>
			<point x="356" y="676" type="curve" smooth="yes"/>
			<point x="268" y="676" type="line"/>
			<point x="268" y="648" type="line"/>
			<point x="352" y="648" type="line" smooth="yes"/>
			<point x="476" y="648"/>
			<point x="530" y="592"/>
			<point x="530" y="512" type="curve" smooth="yes"/>
			<point x="530" y="416"/>
			<point x="452" y="336"/>
			<point x="304" y="336" type="curve" smooth="yes"/>
			<point x="205" y="336" type="line"/>
			<point x="202" y="316" type="line"/>
			<point x="304" y="316" type="line" smooth="yes"/>
			<point x="368" y="316"/>
			<point x="388" y="280"/>
			<point x="416" y="216" type="curve" smooth="yes"/>
			<point x="490" y="46" type="line" smooth="yes"/>
			<point x="504" y="14"/>
			<point x="528" y="-4"/>
		</contour>
	</outline>
	<anchor name="aboveUC" x="356" y="682"/>
	<anchor name="belowLC" x="365" y="-22"/>
</glyph>
<glyph name="S" format="2">
	<unicode hex="0053"/>
	<advance width="532"/>
	<outline>
		<contour>
			<point x="36" y="32" type="line"/>
			<point x="64" y="12"/>
			<point x="128" y="-16"/>
			<point x="220" y="-16" type="curve" smooth="yes"/>
			<point x="356" y="-16"/>
			<point x="436" y="60"/>
			<point x="436" y="160" type="curve" smooth="yes"/>
			<point x="436" y="240"/>
			<point x="388" y="284"/>
			<point x="296" y="352" type="curve" smooth="yes"/>
			<point x="220" y="408"/>
			<point x="174" y="452"/>
			<point x="174" y="524" type="curve" smooth="yes"/>
			<point x="174" y="604"/>
			<point x="236" y="665"/>
			<point x="340" y="665" type="curve" smooth="yes"/>
			<point x="388" y="665"/>
			<point x="436" y="656"/>
			<point x="484" y="632" type="curve"/>
			<point x="466" y="648" type="line"/>
			<point x="454" y="520" type="line"/>
			<point x="482" y="520" type="line"/>
			<point x="504" y="656" type="line"/>
			<point x="460" y="676"/>
			<point x="420" y="692"/>
			<point x="340" y="692" type="curve" smooth="yes"/>
			<point x="220" y="692"/>
			<point x="140" y="620"/>
			<point x="140" y="520" type="curve" smooth="yes"/>
			<point x="140" y="440"/>
			<point x="188" y="392"/>
			<point x="280" y="324" type="curve" smooth="yes"/>
			<point x="356" y="268"/>
			<point x="402" y="228"/>
			<point x="402" y="156" type="curve" smooth="yes"/>
			<point x="402" y="76"/>
			<point x="340" y="11"/>
			<point x="220" y="11" type="curve" smooth="yes"/>
			<point x="152" y="11"/>
			<point x="104" y="28"/>
			<point x="56" y="56" type="curve"/>
			<point x="74" y="40" type="line"/>
			<point x="80" y="168" type="line"/>
			<point x="52" y="168" type="line"/>
		</contour>
	</outline>
	<anchor name="aboveUC" x="360" y="682"/>
	<anchor name="belowLC" x="227" y="-22"/>
	<anchor name="baseLC" x="218" y="0"/>
	<anchor name="aboveUC" x="364" y="682"/>
	<anchor name="belowLC" x="231" y="-22"/>
	<anchor name="baseLC" x="222" y="0"/>
</glyph>
<glyph name="T" format="2">
	<unicode hex="0054"/>
	<advance width="688"/>
	<outline>
		<contour>
			<point x="100" y="512" type="line"/>
			<point x="128" y="512" type="line"/>
			<point x="174" y="664" type="line"/>
			<point x="160" y="648" type="line"/>
			<point x="658" y="648" type="line"/>
			<point x="638" y="664" type="line"/>
			<point x="630" y="512" type="line"/>
			<point x="658" y="512" type="line"/>
			<point x="676" y="676" type="line"/>
			<point x="140" y="676" type="line"/>
		</contour>
		<contour>
			<point x="140" y="0" type="line"/>
			<point x="422" y="0" type="line"/>
			<point x="428" y="28" type="line"/>
			<point x="292" y="28" type="line"/>
			<point x="276" y="28" type="line"/>
			<point x="146" y="28" type="line"/>
		</contour>
		<contour>
			<point x="262" y="0" type="line"/>
			<point x="296" y="0" type="line"/>
			<point x="352" y="312" type="line"/>
			<point x="418" y="676" type="line"/>
			<point x="384" y="676" type="line"/>
			<point x="328" y="364" type="line"/>
		</contour>
	</outline>
	<anchor name="aboveUC" x="408" y="682"/>
	<anchor name="belowLC" x="284" y="-22"/>
	<anchor name="baseLC" x="286" y="0"/>
</glyph>
<glyph name="U" format="2">
	<unicode hex="0055"/>
	<advance width="748"/>
	<outline>
		<contour>
			<point x="238" y="648" type="line"/>
			<point x="254" y="648" type="line"/>
			<point x="372" y="648" type="line"/>
			<point x="378" y="676" type="line"/>
			<point x="124" y="676" type="line"/>
			<point x="118" y="648" type="line"/>
		</contour>
		<contour>
			<point x="346" y="-16" type="curve" smooth="yes"/>
			<point x="470" y="-16"/>
			<point x="578" y="44"/>
			<point x="620" y="276" type="curve" smooth="yes"/>
			<point x="692" y="676" type="line"/>
			<point x="660" y="676" type="line"/>
			<point x="588" y="276" type="line" smooth="yes"/>
			<point x="550" y="64"/>
			<point x="450" y="12"/>
			<point x="350" y="12" type="curve" smooth="yes"/>
			<point x="250" y="12"/>
			<point x="182" y="64"/>
			<point x="182" y="160" type="curve" smooth="yes"/>
			<point x="182" y="192"/>
			<point x="188" y="232"/>
			<point x="196" y="276" type="curve" smooth="yes"/>
			<point x="268" y="676" type="line"/>
			<point x="234" y="676" type="line"/>
			<point x="215" y="572"/>
			<point x="197" y="468"/>
			<point x="178" y="364" type="curve" smooth="yes"/>
			<point x="162" y="276" type="line" smooth="yes"/>
			<point x="154" y="232"/>
			<point x="148" y="192"/>
			<point x="148" y="160" type="curve" smooth="yes"/>
			<point x="148" y="44"/>
			<point x="230" y="-16"/>
		</contour>
		<contour>
			<point x="666" y="648" type="line"/>
			<point x="678" y="648" type="line"/>
			<point x="792" y="648" type="line"/>
			<point x="798" y="676" type="line"/>
			<point x="548" y="676" type="line"/>
			<point x="542" y="648" type="line"/>
		</contour>
	</outline>
	<anchor name="aboveUC" x="466" y="696"/>
	<anchor name="belowLC" x="345" y="-20"/>
	<anchor name="hornLC" x="672" y="607"/>
	<anchor name="ogonek" x="438" y="0"/>
</glyph>
<glyph name="V" format="2">
	<unicode hex="0056"/>
	<advance width="664"/>
	<outline>
		<contour>
			<point x="102" y="648" type="line"/>
			<point x="202" y="648" type="line"/>
			<point x="218" y="648" type="line"/>
			<point x="328" y="648" type="line"/>
			<point x="334" y="676" type="line"/>
			<point x="108" y="676" type="line"/>
		</contour>
		<contour>
			<point x="288" y="0" type="line"/>
			<point x="320" y="0" type="line"/>
			<point x="658" y="676" type="line"/>
			<point x="624" y="676" type="line"/>
			<point x="434" y="293" type="line"/>
			<point x="321" y="33" type="line"/>
			<point x="310" y="33" type="line"/>
			<point x="224" y="676" type="line"/>
			<point x="190" y="676" type="line"/>
		</contour>
		<contour>
			<point x="512" y="648" type="line"/>
			<point x="622" y="648" type="line"/>
			<point x="634" y="648" type="line"/>
			<point x="732" y="648" type="line"/>
			<point x="738" y="676" type="line"/>
			<point x="518" y="676" type="line"/>
		</contour>
	</outline>
	<anchor name="aboveUC" x="426" y="696"/>
	<anchor name="belowLC" x="311" y="-20"/>
</glyph>
<glyph name="W" format="2">
	<unicode hex="0057"/>
	<advance width="996"/>
	<outline>
		<contour>
			<point x="112" y="648" type="line"/>
			<point x="212" y="648" type="line"/>
			<point x="228" y="648" type="line"/>
			<point x="342" y="648" type="line"/>
			<point x="348" y="676" type="line"/>
			<point x="118" y="676" type="line"/>
		</contour>
		<contour>
			<point x="256" y="0" type="line"/>
			<point x="310" y="0" type="line"/>
			<point x="568" y="618" type="line"/>
			<point x="576" y="618" type="line"/>
			<point x="610" y="0" type="line"/>
			<point x="664" y="0" type="line"/>
			<point x="960" y="676" type="line"/>
			<point x="926" y="676" type="line"/>
			<point x="646" y="30" type="line"/>
			<point x="638" y="30" type="line"/>
			<point x="602" y="676" type="line"/>
			<point x="561" y="676" type="line"/>
			<point x="290" y="30" type="line"/>
			<point x="282" y="30" type="line"/>
			<point x="234" y="676" type="line"/>
			<point x="200" y="676" type="line"/>
		</contour>
		<contour>
			<point x="458" y="648" type="line"/>
			<point x="564" y="648" type="line"/>
			<point x="580" y="648" type="line"/>
			<point x="682" y="648" type="line"/>
			<point x="688" y="676" type="line"/>
			<point x="464" y="676" type="line"/>
		</contour>
		<contour>
			<point x="818" y="648" type="line"/>
			<point x="924" y="648" type="line"/>
			<point x="936" y="648" type="line"/>
			<point x="1034" y="648" type="line"/>
			<point x="1040" y="676" type="line"/>
			<point x="824" y="676" type="line"/>
		</contour>
	</outline>
	<anchor name="aboveUC" x="574" y="696"/>
	<anchor name="belowLC" x="469" y="-20"/>
</glyph>
<glyph name="Y" format="2">
	<unicode hex="0059"/>
	<advance width="680"/>
	<outline>
		<contour>
			<point x="112" y="648" type="line"/>
			<point x="212" y="648" type="line"/>
			<point x="224" y="648" type="line"/>
			<point x="340" y="648" type="line"/>
			<point x="346" y="676" type="line"/>
			<point x="118" y="676" type="line"/>
		</contour>
		<contour>
			<point x="172" y="0" type="line"/>
			<point x="438" y="0" type="line"/>
			<point x="444" y="28" type="line"/>
			<point x="316" y="28" type="line"/>
			<point x="300" y="28" type="line"/>
			<point x="178" y="28" type="line"/>
		</contour>
		<contour>
			<point x="334" y="252" type="line"/>
			<point x="364" y="252" type="line"/>
			<point x="648" y="676" type="line"/>
			<point x="612" y="676" type="line"/>
			<point x="348" y="276" type="line"/>
			<point x="358" y="276" type="line"/>
			<point x="228" y="676" type="line"/>
			<point x="192" y="676" type="line"/>
		</contour>
		<contour>
			<point x="286" y="0" type="line"/>
			<point x="320" y="0" type="line"/>
			<point x="338" y="99"/>
			<point x="356" y="197"/>
			<point x="374" y="296" type="curve"/>
			<point x="340" y="296" type="line"/>
		</contour>
		<contour>
			<point x="492" y="648" type="line"/>
			<point x="604" y="648" type="line"/>
			<point x="620" y="648" type="line"/>
			<point x="718" y="648" type="line"/>
			<point x="724" y="676" type="line"/>
			<point x="498" y="676" type="line"/>
		</contour>
	</outline>
	<anchor name="aboveUC" x="408" y="682"/>
	<anchor name="belowLC" x="299" y="-22"/>
</glyph>
<glyph name="Z" format="2">
	<unicode hex="005A"/>
	<advance width="600"/>
	<outline>
		<contour>
			<point x="16" y="0" type="line"/>
			<point x="42" y="0" type="line"/>
			<point x="592" y="654" type="line"/>
			<point x="596" y="676" type="line"/>
			<point x="570" y="676" type="line"/>
			<point x="20" y="22" type="line"/>
		</contour>
		<contour>
			<point x="104" y="508" type="line"/>
			<point x="132" y="508" type="line"/>
			<point x="178" y="664" type="line"/>
			<point x="164" y="648" type="line"/>
			<point x="580" y="650" type="line"/>
			<point x="580" y="676" type="line"/>
			<point x="144" y="676" type="line"/>
		</contour>
		<contour>
			<point x="32" y="0" type="line"/>
			<point x="500" y="0" type="line"/>
			<point x="540" y="168" type="line"/>
			<point x="512" y="168" type="line"/>
			<point x="466" y="12" type="line"/>
			<point x="480" y="28" type="line"/>
			<point x="32" y="26" type="line"/>
		</contour>
	</outline>
	<anchor name="aboveUC" x="352" y="682"/>
	<anchor name="belowLC" x="254" y="-22"/>
</glyph>
<glyph name="bracketleft" format="2">
	<unicode hex="005B"/>
	<advance width="291"/>
	<outline>
		<contour>
			<point x="55" y="-160" type="line"/>
			<point x="182" y="-160" type="line"/>
			<point x="187" y="-132" type="line"/>
			<point x="68" y="-132" type="line"/>
			<point x="60" y="-132" type="line"/>
		</contour>
		<contour>
			<point x="209" y="688" type="line"/>
			<point x="216" y="688" type="line"/>
			<point x="335" y="688" type="line"/>
			<point x="340" y="716" type="line"/>
			<point x="214" y="716" type="line"/>
		</contour>
		<contour>
			<point x="94" y="158" type="line"/>
			<point x="36" y="-160" type="line"/>
			<point x="67" y="-160" type="line"/>
			<point x="125" y="158" type="line"/>
			<point x="168" y="398" type="line"/>
			<point x="225" y="716" type="line"/>
			<point x="195" y="716" type="line"/>
			<point x="137" y="398" type="line"/>
		</contour>
	</outline>
</glyph>
<glyph name="backslash" format="2">
	<unicode hex="005C"/>
	<advance width="332"/>
	<outline>
		<contour>
			<point x="224" y="-160" type="line"/>
			<point x="134" y="710" type="line"/>
			<point x="108" y="710" type="line"/>
			<point x="198" y="-160" type="line"/>
		</contour>
	</outline>
</glyph>
<glyph name="asciicircum" format="2">
	<unicode hex="005E"/>
	<advance width="530"/>
	<outline>
		<contour>
			<point x="76" y="216" type="line"/>
			<point x="104" y="200" type="line"/>
			<point x="279" y="492" type="line"/>
			<point x="252" y="492" type="line"/>
			<point x="426" y="200" type="line"/>
			<point x="454" y="216" type="line"/>
			<point x="281" y="500" type="line"/>
			<point x="249" y="500" type="line"/>
		</contour>
	</outline>
</glyph>
<glyph name="underscore" format="2">
	<unicode hex="005F"/>
	<advance width="508"/>
	<outline>
		<contour>
			<point x="-59" y="-11" type="line"/>
			<point x="473" y="-11" type="line"/>
			<point x="473" y="19" type="line"/>
			<point x="-59" y="19" type="line"/>
		</contour>
	</outline>
</glyph>
<glyph name="a" format="2">
	<unicode hex="0061"/>
	<advance width="560"/>
	<outline>
		<contour>
			<point x="168" y="-12" type="curve" smooth="yes"/>
			<point x="236" y="-12"/>
			<point x="294" y="44"/>
			<point x="368" y="148" type="curve"/>
			<point x="396" y="148" type="line"/>
			<point x="396" y="212" type="line"/>
			<point x="300" y="84"/>
			<point x="244" y="14"/>
			<point x="176" y="14" type="curve" smooth="yes"/>
			<point x="120" y="14"/>
			<point x="90" y="52"/>
			<point x="90" y="140" type="curve" smooth="yes"/>
			<point x="90" y="240"/>
			<point x="136" y="332"/>
			<point x="176" y="380" type="curve" smooth="yes"/>
			<point x="216" y="428"/>
			<point x="276" y="483"/>
			<point x="360" y="483" type="curve" smooth="yes"/>
			<point x="404" y="483"/>
			<point x="432" y="473"/>
			<point x="460" y="453" type="curve"/>
			<point x="460" y="484" type="line"/>
			<point x="444" y="496"/>
			<point x="412" y="508"/>
			<point x="364" y="508" type="curve" smooth="yes"/>
			<point x="200" y="508"/>
			<point x="60" y="316"/>
			<point x="60" y="136" type="curve" smooth="yes"/>
			<point x="60" y="36"/>
			<point x="104" y="-12"/>
		</contour>
		<contour>
			<point x="418" y="-10" type="curve" smooth="yes"/>
			<point x="464" y="-10"/>
			<point x="500" y="32"/>
			<point x="548" y="92" type="curve"/>
			<point x="530" y="108" type="line"/>
			<point x="476" y="40"/>
			<point x="456" y="16"/>
			<point x="420" y="16" type="curve" smooth="yes"/>
			<point x="396" y="16"/>
			<point x="384" y="28"/>
			<point x="384" y="54" type="curve" smooth="yes"/>
			<point x="384" y="76"/>
			<point x="390" y="102"/>
			<point x="396" y="128" type="curve" smooth="yes"/>
			<point x="484" y="536" type="line"/>
			<point x="464" y="536" type="line"/>
			<point x="446" y="484" type="line"/>
			<point x="444" y="484" type="line"/>
			<point x="372" y="150" type="line"/>
			<point x="380" y="150" type="line"/>
			<point x="364" y="102"/>
			<point x="358" y="76"/>
			<point x="358" y="50" type="curve" smooth="yes"/>
			<point x="358" y="12"/>
			<point x="382" y="-10"/>
		</contour>
	</outline>
	<anchor name="aboveLC" x="363" y="520"/>
	<anchor name="belowLC" x="350" y="-20"/>
	<anchor name="ogonek" x="519" y="0"/>
</glyph>
<glyph name="b" format="2">
	<unicode hex="0062"/>
	<advance width="528"/>
	<outline>
		<contour>
			<point x="92" y="182" type="line" smooth="yes"/>
			<point x="84" y="146"/>
			<point x="80" y="122"/>
			<point x="80" y="94" type="curve" smooth="yes"/>
			<point x="80" y="28"/>
			<point x="124" y="-12"/>
			<point x="192" y="-12" type="curve" smooth="yes"/>
			<point x="336" y="-12"/>
			<point x="472" y="180"/>
			<point x="472" y="364" type="curve" smooth="yes"/>
			<point x="472" y="464"/>
			<point x="428" y="512"/>
			<point x="364" y="512" type="curve" smooth="yes"/>
			<point x="296" y="512"/>
			<point x="240" y="456"/>
			<point x="164" y="348" type="curve"/>
			<point x="136" y="348" type="line"/>
			<point x="136" y="288" type="line"/>
			<point x="232" y="416"/>
			<point x="288" y="486"/>
			<point x="356" y="486" type="curve" smooth="yes"/>
			<point x="412" y="486"/>
			<point x="442" y="448"/>
			<point x="442" y="360" type="curve" smooth="yes"/>
			<point x="442" y="268"/>
			<point x="404" y="180"/>
			<point x="364" y="124" type="curve" smooth="yes"/>
			<point x="324" y="68"/>
			<point x="264" y="14"/>
			<point x="196" y="14" type="curve" smooth="yes"/>
			<point x="140" y="14"/>
			<point x="109" y="44"/>
			<point x="109" y="96" type="curve" smooth="yes"/>
			<point x="109" y="126"/>
			<point x="112" y="145"/>
			<point x="120" y="180" type="curve" smooth="yes"/>
			<point x="156" y="344" type="line"/>
			<point x="150" y="344" type="line"/>
			<point x="244" y="748" type="line"/>
			<point x="228" y="748" type="line"/>
			<point x="96" y="742" type="line"/>
			<point x="96" y="720" type="line"/>
			<point x="220" y="716" type="line"/>
			<point x="212" y="732" type="line"/>
		</contour>
	</outline>
	<anchor name="aboveLC" x="219" y="730"/>
	<anchor name="belowLC" x="187" y="-22"/>
	<anchor name="aboveLC" x="227" y="730"/>
	<anchor name="belowLC" x="195" y="-22"/>
</glyph>
<glyph name="c" format="2">
	<unicode hex="0063"/>
	<advance width="460"/>
	<outline>
		<contour>
			<point x="226" y="-12" type="curve" smooth="yes"/>
			<point x="304" y="-12"/>
			<point x="360" y="40"/>
			<point x="396" y="96" type="curve"/>
			<point x="378" y="110" type="line"/>
			<point x="336" y="56"/>
			<point x="296" y="14"/>
			<point x="232" y="14" type="curve" smooth="yes"/>
			<point x="152" y="14"/>
			<point x="94" y="68"/>
			<point x="94" y="180" type="curve" smooth="yes"/>
			<point x="94" y="336"/>
			<point x="192" y="474"/>
			<point x="320" y="490" type="curve"/>
			<point x="352" y="490" type="line"/>
			<point x="336" y="496" type="line"/>
			<point x="352" y="478" type="line" smooth="yes"/>
			<point x="368" y="460"/>
			<point x="382" y="448"/>
			<point x="402" y="448" type="curve" smooth="yes"/>
			<point x="424" y="448"/>
			<point x="434" y="462"/>
			<point x="436" y="476" type="curve"/>
			<point x="428" y="490"/>
			<point x="396" y="512"/>
			<point x="332" y="512" type="curve" smooth="yes"/>
			<point x="184" y="512"/>
			<point x="64" y="352"/>
			<point x="64" y="176" type="curve" smooth="yes"/>
			<point x="64" y="52"/>
			<point x="134" y="-12"/>
		</contour>
	</outline>
	<anchor name="aboveLC" x="330" y="500"/>
	<anchor name="belowLC" x="196" y="-22"/>
	<anchor name="baseLC" x="197" y="0"/>
	<anchor name="aboveLC" x="342" y="500"/>
	<anchor name="belowLC" x="208" y="-22"/>
	<anchor name="baseLC" x="209" y="0"/>
</glyph>
<glyph name="d" format="2">
	<unicode hex="0064"/>
	<advance width="568"/>
	<outline>
		<contour>
			<point x="173" y="-12" type="curve" smooth="yes"/>
			<point x="241" y="-12"/>
			<point x="298" y="44"/>
			<point x="374" y="152" type="curve"/>
			<point x="400" y="152" type="line"/>
			<point x="400" y="212" type="line"/>
			<point x="304" y="84"/>
			<point x="248" y="14"/>
			<point x="180" y="14" type="curve" smooth="yes"/>
			<point x="124" y="14"/>
			<point x="94" y="52"/>
			<point x="94" y="140" type="curve" smooth="yes"/>
			<point x="94" y="244"/>
			<point x="144" y="336"/>
			<point x="184" y="384" type="curve" smooth="yes"/>
			<point x="224" y="432"/>
			<point x="284" y="487"/>
			<point x="368" y="487" type="curve" smooth="yes"/>
			<point x="408" y="487"/>
			<point x="436" y="477"/>
			<point x="464" y="457" type="curve"/>
			<point x="464" y="496" type="line"/>
			<point x="448" y="504"/>
			<point x="416" y="512"/>
			<point x="372" y="512" type="curve" smooth="yes"/>
			<point x="204" y="512"/>
			<point x="64" y="316"/>
			<point x="64" y="136" type="curve" smooth="yes"/>
			<point x="64" y="36"/>
			<point x="109" y="-12"/>
		</contour>
		<contour>
			<point x="426" y="-10" type="curve" smooth="yes"/>
			<point x="470" y="-10"/>
			<point x="508" y="32"/>
			<point x="556" y="92" type="curve"/>
			<point x="538" y="108" type="line"/>
			<point x="484" y="40"/>
			<point x="460" y="16"/>
			<point x="430" y="16" type="curve" smooth="yes"/>
			<point x="406" y="16"/>
			<point x="394" y="28"/>
			<point x="394" y="54" type="curve" smooth="yes"/>
			<point x="394" y="74"/>
			<point x="400" y="108"/>
			<point x="406" y="136" type="curve" smooth="yes"/>
			<point x="532" y="748" type="line"/>
			<point x="516" y="748" type="line"/>
			<point x="384" y="742" type="line"/>
			<point x="384" y="720" type="line"/>
			<point x="508" y="716" type="line"/>
			<point x="500" y="732" type="line"/>
			<point x="450" y="472" type="line"/>
			<point x="446" y="472" type="line"/>
			<point x="382" y="160" type="line"/>
			<point x="388" y="160" type="line"/>
			<point x="373" y="108"/>
			<point x="368" y="70"/>
			<point x="368" y="50" type="curve" smooth="yes"/>
			<point x="368" y="12"/>
			<point x="390" y="-10"/>
		</contour>
	</outline>
	<anchor name="aboveLC" x="480" y="730"/>
	<anchor name="belowLC" x="294" y="-22"/>
</glyph>
<glyph name="e" format="2">
	<unicode hex="0065"/>
	<advance width="452"/>
	<outline>
		<contour>
			<point x="220" y="-12" type="curve" smooth="yes"/>
			<point x="300" y="-12"/>
			<point x="356" y="40"/>
			<point x="392" y="96" type="curve"/>
			<point x="374" y="110" type="line"/>
			<point x="332" y="56"/>
			<point x="292" y="15"/>
			<point x="226" y="15" type="curve" smooth="yes"/>
			<point x="144" y="15"/>
			<point x="90" y="68"/>
			<point x="90" y="180" type="curve" smooth="yes"/>
			<point x="90" y="328"/>
			<point x="204" y="486"/>
			<point x="326" y="486" type="curve" smooth="yes"/>
			<point x="372" y="486"/>
			<point x="398" y="466"/>
			<point x="398" y="426" type="curve" smooth="yes"/>
			<point x="398" y="332"/>
			<point x="288" y="256"/>
			<point x="76" y="210" type="curve"/>
			<point x="76" y="188" type="line"/>
			<point x="304" y="232"/>
			<point x="428" y="316"/>
			<point x="428" y="428" type="curve" smooth="yes"/>
			<point x="428" y="482"/>
			<point x="388" y="512"/>
			<point x="330" y="512" type="curve" smooth="yes"/>
			<point x="188" y="512"/>
			<point x="60" y="344"/>
			<point x="60" y="176" type="curve" smooth="yes"/>
			<point x="60" y="50"/>
			<point x="126" y="-12"/>
		</contour>
	</outline>
	<anchor name="aboveLC" x="337" y="532"/>
	<anchor name="belowLC" x="221" y="-22"/>
	<anchor name="ogonek" x="272" y="0"/>
</glyph>
<glyph name="f" format="2">
	<unicode hex="0066"/>
	<advance width="310"/>
	<outline>
		<contour>
			<point x="-59" y="-252" type="curve" smooth="yes"/>
			<point x="12" y="-252"/>
			<point x="52" y="-204"/>
			<point x="74" y="-170" type="curve" smooth="yes"/>
			<point x="96" y="-136"/>
			<point x="122" y="-72"/>
			<point x="138" y="32" type="curve" smooth="yes"/>
			<point x="161" y="181"/>
			<point x="183" y="331"/>
			<point x="206" y="480" type="curve" smooth="yes"/>
			<point x="232" y="652"/>
			<point x="280" y="717"/>
			<point x="382" y="735" type="curve"/>
			<point x="334" y="730" type="line"/>
			<point x="398" y="730" type="line"/>
			<point x="384" y="735" type="line"/>
			<point x="398" y="718" type="line" smooth="yes"/>
			<point x="422" y="689"/>
			<point x="438" y="676"/>
			<point x="456" y="676" type="curve" smooth="yes"/>
			<point x="467" y="676"/>
			<point x="476" y="682"/>
			<point x="478" y="692" type="curve"/>
			<point x="475" y="713"/>
			<point x="436" y="750"/>
			<point x="386" y="750" type="curve" smooth="yes"/>
			<point x="274" y="750"/>
			<point x="204" y="668"/>
			<point x="176" y="484" type="curve" smooth="yes"/>
			<point x="153" y="335"/>
			<point x="131" y="185"/>
			<point x="108" y="36" type="curve" smooth="yes"/>
			<point x="94" y="-56"/>
			<point x="76" y="-112"/>
			<point x="52" y="-156" type="curve" smooth="yes"/>
			<point x="28" y="-200"/>
			<point x="6" y="-218"/>
			<point x="-37" y="-236" type="curve"/>
			<point x="-18" y="-232" type="line"/>
			<point x="-64" y="-232" type="line"/>
			<point x="-47" y="-236" type="line"/>
			<point x="-56" y="-226" type="line" smooth="yes"/>
			<point x="-77" y="-203"/>
			<point x="-97" y="-183"/>
			<point x="-117" y="-183" type="curve" smooth="yes"/>
			<point x="-131" y="-183"/>
			<point x="-139" y="-190"/>
			<point x="-141" y="-205" type="curve"/>
			<point x="-137" y="-227"/>
			<point x="-106" y="-252"/>
		</contour>
		<contour>
			<point x="56" y="472" type="line"/>
			<point x="188" y="476" type="line"/>
			<point x="343" y="472" type="line"/>
			<point x="349" y="500" type="line"/>
			<point x="201" y="500" type="line"/>
			<point x="188" y="500" type="line"/>
			<point x="60" y="494" type="line"/>
		</contour>
	</outline>
	<anchor name="aboveLC" x="375" y="748"/>
	<anchor name="belowLC" x="-31" y="-260"/>
</glyph>
<glyph name="g" format="2">
	<unicode hex="0067"/>
	<advance width="536"/>
	<outline>
		<contour>
			<point x="96" y="94" type="curve" smooth="yes"/>
			<point x="96" y="60"/>
			<point x="122" y="36"/>
			<point x="164" y="30" type="curve"/>
			<point x="164" y="18" type="line"/>
			<point x="292" y="2" type="line" smooth="yes"/>
			<point x="370" y="-8"/>
			<point x="402" y="-34"/>
			<point x="402" y="-82" type="curve" smooth="yes"/>
			<point x="402" y="-164"/>
			<point x="320" y="-227"/>
			<point x="214" y="-227" type="curve" smooth="yes"/>
			<point x="108" y="-227"/>
			<point x="43" y="-178"/>
			<point x="43" y="-116" type="curve" smooth="yes"/>
			<point x="43" y="-56"/>
			<point x="84" y="-20"/>
			<point x="198" y="16" type="curve"/>
			<point x="166" y="20" type="line"/>
			<point x="72" y="-4"/>
			<point x="12" y="-44"/>
			<point x="12" y="-118" type="curve" smooth="yes"/>
			<point x="12" y="-194"/>
			<point x="92" y="-252"/>
			<point x="208" y="-252" type="curve" smooth="yes"/>
			<point x="336" y="-252"/>
			<point x="432" y="-172"/>
			<point x="432" y="-78" type="curve" smooth="yes"/>
			<point x="432" y="-18"/>
			<point x="386" y="18"/>
			<point x="300" y="29" type="curve" smooth="yes"/>
			<point x="212" y="40" type="line" smooth="yes"/>
			<point x="148" y="48"/>
			<point x="125" y="64"/>
			<point x="125" y="96" type="curve" smooth="yes"/>
			<point x="125" y="130"/>
			<point x="148" y="152"/>
			<point x="228" y="176" type="curve"/>
			<point x="164" y="176" type="line"/>
			<point x="164" y="163" type="line"/>
			<point x="128" y="154"/>
			<point x="96" y="134"/>
		</contour>
		<contour>
			<point x="232" y="184" type="curve" smooth="yes"/>
			<point x="164" y="184"/>
			<point x="126" y="228"/>
			<point x="126" y="300" type="curve" smooth="yes"/>
			<point x="126" y="396"/>
			<point x="192" y="488"/>
			<point x="284" y="488" type="curve" smooth="yes"/>
			<point x="352" y="488"/>
			<point x="390" y="444"/>
			<point x="390" y="372" type="curve" smooth="yes"/>
			<point x="390" y="276"/>
			<point x="324" y="184"/>
		</contour>
		<contour>
			<point x="96" y="298" type="curve" smooth="yes"/>
			<point x="96" y="212"/>
			<point x="148" y="161"/>
			<point x="228" y="161" type="curve" smooth="yes"/>
			<point x="340" y="161"/>
			<point x="408" y="252"/>
			<point x="424" y="368" type="curve" smooth="yes"/>
			<point x="432" y="424"/>
			<point x="444" y="448"/>
			<point x="456" y="468" type="curve"/>
			<point x="444" y="462" type="line"/>
			<point x="512" y="462"/>
			<point x="528" y="486"/>
			<point x="528" y="510" type="curve" smooth="yes"/>
			<point x="528" y="516"/>
			<point x="527" y="520"/>
			<point x="526" y="522" type="curve"/>
			<point x="522" y="523"/>
			<point x="514" y="524"/>
			<point x="506" y="524" type="curve" smooth="yes"/>
			<point x="448" y="524"/>
			<point x="424" y="476"/>
			<point x="414" y="400" type="curve"/>
			<point x="402" y="400" type="line"/>
			<point x="400" y="460"/>
			<point x="368" y="512"/>
			<point x="288" y="512" type="curve" smooth="yes"/>
			<point x="176" y="512"/>
			<point x="96" y="412"/>
		</contour>
	</outline>
	<anchor name="aboveLC" x="285" y="500"/>
	<anchor name="belowLC" x="172" y="-240"/>
</glyph>
<glyph name="h" format="2">
	<unicode hex="0068"/>
	<advance width="560"/>
	<outline>
		<contour>
			<point x="72" y="-4" type="line"/>
			<point x="93" y="0" type="line"/>
			<point x="164" y="344" type="line"/>
			<point x="160" y="344" type="line"/>
			<point x="248" y="748" type="line"/>
			<point x="232" y="748" type="line"/>
			<point x="100" y="742" type="line"/>
			<point x="100" y="720" type="line"/>
			<point x="224" y="716" type="line"/>
			<point x="216" y="732" type="line"/>
			<point x="172" y="520" type="line"/>
			<point x="64" y="0" type="line"/>
		</contour>
		<contour>
			<point x="356" y="46" type="curve" smooth="yes"/>
			<point x="356" y="12"/>
			<point x="380" y="-10"/>
			<point x="414" y="-10" type="curve" smooth="yes"/>
			<point x="460" y="-10"/>
			<point x="500" y="32"/>
			<point x="548" y="92" type="curve"/>
			<point x="530" y="108" type="line"/>
			<point x="476" y="40"/>
			<point x="452" y="16"/>
			<point x="420" y="16" type="curve" smooth="yes"/>
			<point x="398" y="16"/>
			<point x="386" y="28"/>
			<point x="386" y="50" type="curve" smooth="yes"/>
			<point x="386" y="70"/>
			<point x="392" y="92"/>
			<point x="398" y="116" type="curve" smooth="yes"/>
			<point x="450" y="332" type="line" smooth="yes"/>
			<point x="462" y="384"/>
			<point x="468" y="416"/>
			<point x="468" y="440" type="curve" smooth="yes"/>
			<point x="468" y="484"/>
			<point x="436" y="512"/>
			<point x="384" y="512" type="curve" smooth="yes"/>
			<point x="324" y="512"/>
			<point x="264" y="480"/>
			<point x="176" y="360" type="curve"/>
			<point x="152" y="360" type="line"/>
			<point x="152" y="312" type="line"/>
			<point x="256" y="432"/>
			<point x="308" y="486"/>
			<point x="376" y="486" type="curve" smooth="yes"/>
			<point x="420" y="486"/>
			<point x="438" y="468"/>
			<point x="438" y="436" type="curve" smooth="yes"/>
			<point x="438" y="416"/>
			<point x="432" y="384"/>
			<point x="420" y="332" type="curve" smooth="yes"/>
			<point x="368" y="116" type="line" smooth="yes"/>
			<point x="362" y="92"/>
			<point x="356" y="68"/>
		</contour>
	</outline>
	<anchor name="aboveLC" x="228" y="730"/>
	<anchor name="belowLC" x="239" y="-22"/>
</glyph>
<glyph name="i" format="2">
	<unicode hex="0069"/>
	<advance width="292"/>
	<outline>
		<contour>
			<point x="80" y="50" type="curve" smooth="yes"/>
			<point x="80" y="12"/>
			<point x="104" y="-10"/>
			<point x="140" y="-10" type="curve" smooth="yes"/>
			<point x="184" y="-10"/>
			<point x="224" y="32"/>
			<point x="272" y="92" type="curve"/>
			<point x="254" y="108" type="line"/>
			<point x="200" y="40"/>
			<point x="176" y="16"/>
			<point x="146" y="16" type="curve" smooth="yes"/>
			<point x="122" y="16"/>
			<point x="110" y="28"/>
			<point x="110" y="54" type="curve" smooth="yes"/>
			<point x="110" y="74"/>
			<point x="116" y="108"/>
			<point x="122" y="136" type="curve" smooth="yes"/>
			<point x="200" y="500" type="line"/>
			<point x="184" y="500" type="line"/>
			<point x="52" y="490" type="line"/>
			<point x="52" y="468" type="line"/>
			<point x="176" y="468" type="line"/>
			<point x="168" y="488" type="line"/>
			<point x="92" y="132" type="line" smooth="yes"/>
			<point x="86" y="104"/>
			<point x="80" y="70"/>
		</contour>
		<contour>
			<point x="219" y="672" type="curve" smooth="yes"/>
			<point x="240" y="672"/>
			<point x="256" y="688"/>
			<point x="256" y="710" type="curve" smooth="yes"/>
			<point x="256" y="727"/>
			<point x="244" y="740"/>
			<point x="225" y="740" type="curve" smooth="yes"/>
			<point x="204" y="740"/>
			<point x="188" y="724"/>
			<point x="188" y="702" type="curve" smooth="yes"/>
			<point x="188" y="685"/>
			<point x="200" y="672"/>
		</contour>
	</outline>
	<anchor name="aboveLC" x="244" y="704"/>
	<anchor name="belowLC" x="157" y="-22"/>
	<anchor name="ogonek" x="189" y="0"/>
</glyph>
<glyph name="j" format="2">
	<unicode hex="006A"/>
	<advance width="272"/>
	<outline>
		<contour>
			<point x="-90" y="-252" type="line"/>
			<point x="-8" y="-224"/>
			<point x="20" y="-194"/>
			<point x="40" y="-168" type="curve" smooth="yes"/>
			<point x="60" y="-142"/>
			<point x="88" y="-92"/>
			<point x="112" y="34" type="curve" smooth="yes"/>
			<point x="200" y="500" type="line"/>
			<point x="184" y="500" type="line"/>
			<point x="44" y="490" type="line"/>
			<point x="44" y="468" type="line"/>
			<point x="176" y="468" type="line"/>
			<point x="170" y="492" type="line"/>
			<point x="84" y="36" type="line" smooth="yes"/>
			<point x="64" y="-72"/>
			<point x="40" y="-120"/>
			<point x="20" y="-148" type="curve" smooth="yes"/>
			<point x="0" y="-176"/>
			<point x="-24" y="-208"/>
			<point x="-100" y="-232" type="curve"/>
		</contour>
		<contour>
			<point x="215" y="672" type="curve" smooth="yes"/>
			<point x="236" y="672"/>
			<point x="252" y="688"/>
			<point x="252" y="710" type="curve" smooth="yes"/>
			<point x="252" y="727"/>
			<point x="240" y="740"/>
			<point x="221" y="740" type="curve" smooth="yes"/>
			<point x="200" y="740"/>
			<point x="184" y="724"/>
			<point x="184" y="702" type="curve" smooth="yes"/>
			<point x="184" y="685"/>
			<point x="196" y="672"/>
		</contour>
	</outline>
	<anchor name="aboveLC" x="248" y="704"/>
	<anchor name="belowLC" x="-11" y="-248"/>
</glyph>
<glyph name="k" format="2">
	<unicode hex="006B"/>
	<advance width="496"/>
	<outline>
		<contour>
			<point x="64" y="0" type="line"/>
			<point x="72" y="-4" type="line"/>
			<point x="93" y="0" type="line"/>
			<point x="136" y="208" type="line"/>
			<point x="248" y="748" type="line"/>
			<point x="232" y="748" type="line"/>
			<point x="100" y="742" type="line"/>
			<point x="100" y="720" type="line"/>
			<point x="224" y="716" type="line"/>
			<point x="216" y="732" type="line"/>
			<point x="172" y="520" type="line"/>
		</contour>
		<contour>
			<point x="456" y="0" type="curve"/>
			<point x="460" y="18" type="line"/>
			<point x="428" y="20" type="line" smooth="yes"/>
			<point x="388" y="22"/>
			<point x="362" y="36"/>
			<point x="340" y="80" type="curve" smooth="yes"/>
			<point x="288" y="184" type="line" smooth="yes"/>
			<point x="256" y="248"/>
			<point x="216" y="268"/>
			<point x="168" y="280" type="curve" smooth="yes"/>
			<point x="152" y="284" type="line"/>
			<point x="152" y="272" type="line"/>
			<point x="426" y="444" type="line" smooth="yes"/>
			<point x="464" y="468"/>
			<point x="472" y="474"/>
			<point x="472" y="488" type="curve" smooth="yes"/>
			<point x="472" y="498"/>
			<point x="464" y="502"/>
			<point x="458" y="504" type="curve"/>
			<point x="136" y="282" type="line"/>
			<point x="136" y="268" type="line"/>
			<point x="160" y="260" type="line" smooth="yes"/>
			<point x="208" y="244"/>
			<point x="240" y="224"/>
			<point x="268" y="164" type="curve" smooth="yes"/>
			<point x="310" y="74" type="line" smooth="yes"/>
			<point x="336" y="18"/>
			<point x="372" y="-4"/>
			<point x="420" y="-4" type="curve" smooth="yes"/>
			<point x="436" y="-4"/>
			<point x="446" y="-2"/>
		</contour>
	</outline>
	<anchor name="aboveLC" x="230" y="730"/>
	<anchor name="belowLC" x="231" y="-22"/>
</glyph>
<glyph name="l" format="2">
	<unicode hex="006C"/>
	<advance width="288"/>
	<outline>
		<contour>
			<point x="136" y="-10" type="curve" smooth="yes"/>
			<point x="180" y="-10"/>
			<point x="220" y="32"/>
			<point x="268" y="92" type="curve"/>
			<point x="250" y="108" type="line"/>
			<point x="196" y="40"/>
			<point x="172" y="16"/>
			<point x="142" y="16" type="curve" smooth="yes"/>
			<point x="118" y="16"/>
			<point x="106" y="28"/>
			<point x="106" y="54" type="curve" smooth="yes"/>
			<point x="106" y="74"/>
			<point x="112" y="108"/>
			<point x="118" y="136" type="curve" smooth="yes"/>
			<point x="244" y="748" type="line"/>
			<point x="228" y="748" type="line"/>
			<point x="96" y="742" type="line"/>
			<point x="96" y="720" type="line"/>
			<point x="220" y="716" type="line"/>
			<point x="212" y="732" type="line"/>
			<point x="168" y="520" type="line"/>
			<point x="88" y="132" type="line" smooth="yes"/>
			<point x="82" y="104"/>
			<point x="76" y="70"/>
			<point x="76" y="50" type="curve" smooth="yes"/>
			<point x="76" y="12"/>
			<point x="100" y="-10"/>
		</contour>
	</outline>
	<anchor name="aboveLC" x="213" y="730"/>
	<anchor name="belowLC" x="112" y="-22"/>
	<anchor name="aboveLC" x="225" y="730"/>
	<anchor name="belowLC" x="124" y="-22"/>
</glyph>
<glyph name="m" format="2">
	<unicode hex="006D"/>
	<advance width="852"/>
	<outline>
		<contour>
			<point x="110" y="0" type="line"/>
			<point x="158" y="224" type="line"/>
			<point x="186" y="356" type="line"/>
			<point x="182" y="356" type="line"/>
			<point x="212" y="500" type="line"/>
			<point x="196" y="500" type="line"/>
			<point x="68" y="490" type="line"/>
			<point x="68" y="468" type="line"/>
			<point x="192" y="468" type="line"/>
			<point x="186" y="488" type="line"/>
			<point x="80" y="0" type="line"/>
			<point x="88" y="-4" type="line"/>
		</contour>
		<contour>
			<point x="390" y="0" type="line"/>
			<point x="440" y="230" type="line"/>
			<point x="462" y="332" type="line"/>
			<point x="456" y="332" type="line"/>
			<point x="472" y="388"/>
			<point x="478" y="416"/>
			<point x="478" y="440" type="curve" smooth="yes"/>
			<point x="478" y="484"/>
			<point x="448" y="512"/>
			<point x="400" y="512" type="curve" smooth="yes"/>
			<point x="344" y="512"/>
			<point x="284" y="480"/>
			<point x="196" y="360" type="curve"/>
			<point x="172" y="360" type="line"/>
			<point x="172" y="312" type="line"/>
			<point x="276" y="432"/>
			<point x="328" y="486"/>
			<point x="392" y="486" type="curve" smooth="yes"/>
			<point x="432" y="486"/>
			<point x="450" y="468"/>
			<point x="450" y="436" type="curve" smooth="yes"/>
			<point x="450" y="416"/>
			<point x="444" y="388"/>
			<point x="432" y="332" type="curve" smooth="yes"/>
			<point x="360" y="0" type="line"/>
			<point x="368" y="-4" type="line"/>
		</contour>
		<contour>
			<point x="706" y="-10" type="curve" smooth="yes"/>
			<point x="752" y="-10"/>
			<point x="792" y="32"/>
			<point x="840" y="92" type="curve"/>
			<point x="822" y="108" type="line"/>
			<point x="768" y="40"/>
			<point x="744" y="16"/>
			<point x="712" y="16" type="curve" smooth="yes"/>
			<point x="690" y="16"/>
			<point x="678" y="28"/>
			<point x="678" y="50" type="curve" smooth="yes"/>
			<point x="678" y="70"/>
			<point x="684" y="92"/>
			<point x="690" y="116" type="curve" smooth="yes"/>
			<point x="742" y="332" type="line" smooth="yes"/>
			<point x="754" y="384"/>
			<point x="760" y="416"/>
			<point x="760" y="440" type="curve" smooth="yes"/>
			<point x="760" y="484"/>
			<point x="728" y="512"/>
			<point x="680" y="512" type="curve" smooth="yes"/>
			<point x="624" y="512"/>
			<point x="564" y="480"/>
			<point x="476" y="356" type="curve"/>
			<point x="452" y="356" type="line"/>
			<point x="452" y="308" type="line"/>
			<point x="556" y="432"/>
			<point x="608" y="486"/>
			<point x="672" y="486" type="curve" smooth="yes"/>
			<point x="712" y="486"/>
			<point x="730" y="468"/>
			<point x="730" y="436" type="curve" smooth="yes"/>
			<point x="730" y="416"/>
			<point x="724" y="384"/>
			<point x="712" y="332" type="curve" smooth="yes"/>
			<point x="660" y="116" type="line" smooth="yes"/>
			<point x="654" y="92"/>
			<point x="648" y="68"/>
			<point x="648" y="46" type="curve" smooth="yes"/>
			<point x="648" y="12"/>
			<point x="672" y="-10"/>
		</contour>
	</outline>
	<anchor name="aboveLC" x="458" y="500"/>
	<anchor name="belowLC" x="367" y="-22"/>
	<anchor name="aboveLC" x="470" y="500"/>
	<anchor name="belowLC" x="379" y="-22"/>
</glyph>
<glyph name="n" format="2">
	<unicode hex="006E"/>
	<advance width="580"/>
	<outline>
		<contour>
			<point x="110" y="0" type="line"/>
			<point x="158" y="224" type="line"/>
			<point x="186" y="356" type="line"/>
			<point x="182" y="356" type="line"/>
			<point x="212" y="500" type="line"/>
			<point x="196" y="500" type="line"/>
			<point x="68" y="490" type="line"/>
			<point x="68" y="468" type="line"/>
			<point x="192" y="468" type="line"/>
			<point x="186" y="488" type="line"/>
			<point x="80" y="0" type="line"/>
			<point x="88" y="-4" type="line"/>
		</contour>
		<contour>
			<point x="376" y="46" type="curve" smooth="yes"/>
			<point x="376" y="12"/>
			<point x="400" y="-10"/>
			<point x="434" y="-10" type="curve" smooth="yes"/>
			<point x="480" y="-10"/>
			<point x="520" y="32"/>
			<point x="568" y="92" type="curve"/>
			<point x="550" y="108" type="line"/>
			<point x="496" y="40"/>
			<point x="472" y="16"/>
			<point x="440" y="16" type="curve" smooth="yes"/>
			<point x="418" y="16"/>
			<point x="406" y="28"/>
			<point x="406" y="50" type="curve" smooth="yes"/>
			<point x="406" y="70"/>
			<point x="412" y="92"/>
			<point x="418" y="116" type="curve" smooth="yes"/>
			<point x="470" y="332" type="line" smooth="yes"/>
			<point x="482" y="384"/>
			<point x="488" y="416"/>
			<point x="488" y="440" type="curve" smooth="yes"/>
			<point x="488" y="484"/>
			<point x="456" y="512"/>
			<point x="404" y="512" type="curve" smooth="yes"/>
			<point x="344" y="512"/>
			<point x="284" y="480"/>
			<point x="196" y="360" type="curve"/>
			<point x="172" y="360" type="line"/>
			<point x="172" y="312" type="line"/>
			<point x="276" y="432"/>
			<point x="328" y="486"/>
			<point x="396" y="486" type="curve" smooth="yes"/>
			<point x="440" y="486"/>
			<point x="458" y="468"/>
			<point x="458" y="436" type="curve" smooth="yes"/>
			<point x="458" y="416"/>
			<point x="452" y="384"/>
			<point x="440" y="332" type="curve" smooth="yes"/>
			<point x="388" y="116" type="line" smooth="yes"/>
			<point x="382" y="92"/>
			<point x="376" y="68"/>
		</contour>
	</outline>
	<anchor name="aboveLC" x="333" y="500"/>
	<anchor name="belowLC" x="252" y="-22"/>
	<anchor name="aboveLC" x="321" y="500"/>
	<anchor name="belowLC" x="240" y="-22"/>
</glyph>
<glyph name="o" format="2">
	<unicode hex="006F"/>
	<advance width="536"/>
	<outline>
		<contour>
			<point x="217" y="-12" type="curve" smooth="yes"/>
			<point x="367" y="-12"/>
			<point x="473" y="160"/>
			<point x="473" y="320" type="curve" smooth="yes"/>
			<point x="473" y="448"/>
			<point x="409" y="512"/>
			<point x="319" y="512" type="curve" smooth="yes"/>
			<point x="169" y="512"/>
			<point x="63" y="340"/>
			<point x="63" y="180" type="curve" smooth="yes"/>
			<point x="63" y="52"/>
			<point x="127" y="-12"/>
		</contour>
		<contour>
			<point x="222" y="14" type="curve" smooth="yes"/>
			<point x="144" y="14"/>
			<point x="93" y="68"/>
			<point x="93" y="184" type="curve" smooth="yes"/>
			<point x="93" y="324"/>
			<point x="184" y="486"/>
			<point x="314" y="486" type="curve" smooth="yes"/>
			<point x="392" y="486"/>
			<point x="443" y="432"/>
			<point x="443" y="316" type="curve" smooth="yes"/>
			<point x="443" y="176"/>
			<point x="352" y="14"/>
		</contour>
	</outline>
	<anchor name="aboveLC" x="317" y="520"/>
	<anchor name="belowLC" x="219" y="-20"/>
	<anchor name="hornLC" x="443" y="411"/>
	<anchor name="ogonek" x="270" y="0"/>
</glyph>
<glyph name="p" format="2">
	<unicode hex="0070"/>
	<advance width="556"/>
	<outline>
		<contour>
			<point x="-60" y="-240" type="line"/>
			<point x="162" y="-240" type="line"/>
			<point x="168" y="-216" type="line"/>
			<point x="56" y="-216" type="line"/>
			<point x="40" y="-216" type="line"/>
			<point x="-54" y="-216" type="line"/>
		</contour>
		<contour>
			<point x="392" y="512" type="curve" smooth="yes"/>
			<point x="324" y="512"/>
			<point x="268" y="456"/>
			<point x="194" y="352" type="curve"/>
			<point x="164" y="352" type="line"/>
			<point x="164" y="288" type="line"/>
			<point x="260" y="416"/>
			<point x="316" y="486"/>
			<point x="384" y="486" type="curve" smooth="yes"/>
			<point x="440" y="486"/>
			<point x="470" y="448"/>
			<point x="470" y="360" type="curve" smooth="yes"/>
			<point x="470" y="256"/>
			<point x="420" y="164"/>
			<point x="380" y="116" type="curve" smooth="yes"/>
			<point x="340" y="68"/>
			<point x="280" y="13"/>
			<point x="196" y="13" type="curve" smooth="yes"/>
			<point x="156" y="13"/>
			<point x="128" y="23"/>
			<point x="100" y="43" type="curve"/>
			<point x="100" y="4" type="line"/>
			<point x="116" y="-4"/>
			<point x="148" y="-12"/>
			<point x="192" y="-12" type="curve" smooth="yes"/>
			<point x="360" y="-12"/>
			<point x="500" y="184"/>
			<point x="500" y="364" type="curve" smooth="yes"/>
			<point x="500" y="464"/>
			<point x="456" y="512"/>
		</contour>
		<contour>
			<point x="186" y="488" type="line"/>
			<point x="28" y="-240" type="line"/>
			<point x="58" y="-240" type="line"/>
			<point x="110" y="22" type="line"/>
			<point x="114" y="22" type="line"/>
			<point x="182" y="336" type="line"/>
			<point x="178" y="336" type="line"/>
			<point x="212" y="500" type="line"/>
			<point x="196" y="500" type="line"/>
			<point x="68" y="490" type="line"/>
			<point x="68" y="468" type="line"/>
			<point x="192" y="468" type="line"/>
		</contour>
	</outline>
	<anchor name="aboveLC" x="337" y="500"/>
	<anchor name="belowLC" x="60" y="-248"/>
</glyph>
<glyph name="q" format="2">
	<unicode hex="0071"/>
	<advance width="532"/>
	<outline>
		<contour>
			<point x="168" y="-12" type="curve" smooth="yes"/>
			<point x="236" y="-12"/>
			<point x="292" y="44"/>
			<point x="366" y="148" type="curve"/>
			<point x="396" y="148" type="line"/>
			<point x="396" y="212" type="line"/>
			<point x="300" y="84"/>
			<point x="244" y="14"/>
			<point x="176" y="14" type="curve" smooth="yes"/>
			<point x="120" y="14"/>
			<point x="90" y="52"/>
			<point x="90" y="140" type="curve" smooth="yes"/>
			<point x="90" y="240"/>
			<point x="136" y="332"/>
			<point x="176" y="380" type="curve" smooth="yes"/>
			<point x="216" y="428"/>
			<point x="276" y="483"/>
			<point x="360" y="483" type="curve" smooth="yes"/>
			<point x="404" y="483"/>
			<point x="432" y="473"/>
			<point x="460" y="453" type="curve"/>
			<point x="460" y="484" type="line"/>
			<point x="444" y="496"/>
			<point x="412" y="508"/>
			<point x="364" y="508" type="curve" smooth="yes"/>
			<point x="200" y="508"/>
			<point x="60" y="316"/>
			<point x="60" y="136" type="curve" smooth="yes"/>
			<point x="60" y="36"/>
			<point x="104" y="-12"/>
		</contour>
		<contour>
			<point x="188" y="-240" type="line"/>
			<point x="410" y="-240" type="line"/>
			<point x="416" y="-216" type="line"/>
			<point x="316" y="-216" type="line"/>
			<point x="300" y="-216" type="line"/>
			<point x="194" y="-216" type="line"/>
		</contour>
		<contour>
			<point x="287" y="-240" type="line"/>
			<point x="316" y="-240" type="line"/>
			<point x="330" y="-174"/>
			<point x="345" y="-107"/>
			<point x="359" y="-41" type="curve" smooth="yes"/>
			<point x="484" y="536" type="line"/>
			<point x="464" y="536" type="line"/>
			<point x="446" y="484" type="line"/>
			<point x="444" y="484" type="line"/>
			<point x="372" y="152" type="line"/>
			<point x="378" y="152" type="line"/>
		</contour>
	</outline>
	<anchor name="aboveLC" x="377" y="520"/>
	<anchor name="belowLC" x="300" y="-260"/>
</glyph>
<glyph name="r" format="2">
	<unicode hex="0072"/>
	<advance width="416"/>
	<outline>
		<contour>
			<point x="145" y="208" type="line"/>
			<point x="213" y="368"/>
			<point x="264" y="464"/>
			<point x="310" y="480" type="curve"/>
			<point x="344" y="480" type="line"/>
			<point x="312" y="488" type="line"/>
			<point x="324" y="476" type="line" smooth="yes"/>
			<point x="340" y="460"/>
			<point x="354" y="456"/>
			<point x="372" y="456" type="curve" smooth="yes"/>
			<point x="396" y="456"/>
			<point x="409" y="468"/>
			<point x="409" y="484" type="curve"/>
			<point x="402" y="496"/>
			<point x="388" y="508"/>
			<point x="348" y="508" type="curve" smooth="yes"/>
			<point x="264" y="508"/>
			<point x="224" y="424"/>
			<point x="170" y="296" type="curve"/>
			<point x="148" y="296" type="line"/>
		</contour>
		<contour>
			<point x="72" y="0" type="line"/>
			<point x="80" y="-4" type="line"/>
			<point x="102" y="0" type="line"/>
			<point x="118" y="75"/>
			<point x="134" y="149"/>
			<point x="150" y="224" type="curve" smooth="yes"/>
			<point x="164" y="294" type="line"/>
			<point x="156" y="294" type="line"/>
			<point x="204" y="500" type="line"/>
			<point x="188" y="504" type="line"/>
			<point x="62" y="490" type="line"/>
			<point x="58" y="468" type="line"/>
			<point x="184" y="468" type="line"/>
			<point x="178" y="488" type="line"/>
		</contour>
	</outline>
	<anchor name="aboveLC" x="263" y="520"/>
	<anchor name="belowLC" x="101" y="-20"/>
</glyph>
<glyph name="s" format="2">
	<unicode hex="0073"/>
	<advance width="420"/>
	<outline>
		<contour>
			<point x="180" y="-12" type="curve" smooth="yes"/>
			<point x="280" y="-12"/>
			<point x="336" y="50"/>
			<point x="336" y="122" type="curve" smooth="yes"/>
			<point x="336" y="184"/>
			<point x="290" y="222"/>
			<point x="232" y="268" type="curve" smooth="yes"/>
			<point x="184" y="306"/>
			<point x="148" y="334"/>
			<point x="148" y="388" type="curve" smooth="yes"/>
			<point x="148" y="446"/>
			<point x="188" y="490"/>
			<point x="272" y="490" type="curve"/>
			<point x="336" y="490" type="line"/>
			<point x="304" y="498" type="line"/>
			<point x="320" y="466" type="line" smooth="yes"/>
			<point x="332" y="442"/>
			<point x="344" y="426"/>
			<point x="364" y="426" type="curve" smooth="yes"/>
			<point x="382" y="426"/>
			<point x="390" y="440"/>
			<point x="392" y="454" type="curve"/>
			<point x="380" y="478"/>
			<point x="332" y="512"/>
			<point x="264" y="512" type="curve" smooth="yes"/>
			<point x="172" y="512"/>
			<point x="116" y="462"/>
			<point x="116" y="386" type="curve" smooth="yes"/>
			<point x="116" y="320"/>
			<point x="162" y="286"/>
			<point x="220" y="240" type="curve" smooth="yes"/>
			<point x="268" y="202"/>
			<point x="304" y="170"/>
			<point x="304" y="120" type="curve" smooth="yes"/>
			<point x="304" y="66"/>
			<point x="264" y="10"/>
			<point x="172" y="10" type="curve"/>
			<point x="96" y="10" type="line"/>
			<point x="120" y="6" type="line"/>
			<point x="112" y="30" type="line" smooth="yes"/>
			<point x="102" y="60"/>
			<point x="88" y="76"/>
			<point x="64" y="76" type="curve" smooth="yes"/>
			<point x="44" y="76"/>
			<point x="34" y="60"/>
			<point x="32" y="46" type="curve"/>
			<point x="52" y="12"/>
			<point x="112" y="-12"/>
		</contour>
	</outline>
	<anchor name="aboveLC" x="252" y="500"/>
	<anchor name="belowLC" x="165" y="-22"/>
	<anchor name="baseLC" x="149" y="0"/>
	<anchor name="aboveLC" x="248" y="500"/>
	<anchor name="belowLC" x="161" y="-22"/>
	<anchor name="baseLC" x="145" y="0"/>
</glyph>
<glyph name="t" format="2">
	<unicode hex="0074"/>
	<advance width="368"/>
	<outline>
		<contour>
			<point x="108" y="136" type="line" smooth="yes"/>
			<point x="102" y="108"/>
			<point x="96" y="76"/>
			<point x="96" y="56" type="curve" smooth="yes"/>
			<point x="96" y="16"/>
			<point x="124" y="-10"/>
			<point x="164" y="-10" type="curve" smooth="yes"/>
			<point x="220" y="-10"/>
			<point x="252" y="32"/>
			<point x="308" y="100" type="curve"/>
			<point x="290" y="116" type="line"/>
			<point x="228" y="40"/>
			<point x="204" y="16"/>
			<point x="170" y="16" type="curve" smooth="yes"/>
			<point x="142" y="16"/>
			<point x="126" y="32"/>
			<point x="126" y="60" type="curve" smooth="yes"/>
			<point x="126" y="80"/>
			<point x="132" y="112"/>
			<point x="138" y="140" type="curve" smooth="yes"/>
			<point x="245" y="636" type="line"/>
			<point x="222" y="636" type="line"/>
			<point x="180" y="468" type="line"/>
		</contour>
		<contour>
			<point x="64" y="472" type="line"/>
			<point x="196" y="476" type="line"/>
			<point x="352" y="472" type="line"/>
			<point x="356" y="500" type="line"/>
			<point x="196" y="496" type="line"/>
			<point x="196" y="500" type="line"/>
			<point x="68" y="494" type="line"/>
		</contour>
	</outline>
	<anchor name="aboveLC" x="244" y="630"/>
	<anchor name="belowLC" x="148" y="-22"/>
	<anchor name="baseLC" x="147" y="0"/>
</glyph>
<glyph name="u" format="2">
	<unicode hex="0075"/>
	<advance width="580"/>
	<outline>
		<contour>
			<point x="170" y="-10" type="curve" smooth="yes"/>
			<point x="228" y="-10"/>
			<point x="288" y="22"/>
			<point x="376" y="142" type="curve"/>
			<point x="400" y="142" type="line"/>
			<point x="400" y="190" type="line"/>
			<point x="296" y="70"/>
			<point x="244" y="16"/>
			<point x="176" y="16" type="curve" smooth="yes"/>
			<point x="136" y="16"/>
			<point x="114" y="36"/>
			<point x="114" y="72" type="curve" smooth="yes"/>
			<point x="114" y="94"/>
			<point x="120" y="122"/>
			<point x="132" y="170" type="curve" smooth="yes"/>
			<point x="212" y="500" type="line"/>
			<point x="196" y="504" type="line"/>
			<point x="66" y="494" type="line"/>
			<point x="62" y="472" type="line"/>
			<point x="192" y="466" type="line"/>
			<point x="180" y="492" type="line"/>
			<point x="102" y="170" type="line" smooth="yes"/>
			<point x="90" y="122"/>
			<point x="84" y="94"/>
			<point x="84" y="68" type="curve" smooth="yes"/>
			<point x="84" y="20"/>
			<point x="120" y="-10"/>
		</contour>
		<contour>
			<point x="430" y="-10" type="curve" smooth="yes"/>
			<point x="476" y="-10"/>
			<point x="516" y="32"/>
			<point x="560" y="92" type="curve"/>
			<point x="542" y="108" type="line"/>
			<point x="492" y="40"/>
			<point x="468" y="16"/>
			<point x="434" y="16" type="curve" smooth="yes"/>
			<point x="410" y="16"/>
			<point x="398" y="28"/>
			<point x="398" y="50" type="curve" smooth="yes"/>
			<point x="398" y="72"/>
			<point x="404" y="96"/>
			<point x="408" y="116" type="curve" smooth="yes"/>
			<point x="492" y="502" type="line"/>
			<point x="484" y="506" type="line"/>
			<point x="462" y="502" type="line"/>
			<point x="446" y="427"/>
			<point x="430" y="353"/>
			<point x="414" y="278" type="curve" smooth="yes"/>
			<point x="386" y="146" type="line"/>
			<point x="390" y="146" type="line"/>
			<point x="380" y="104"/>
			<point x="372" y="72"/>
			<point x="372" y="46" type="curve" smooth="yes"/>
			<point x="372" y="12"/>
			<point x="396" y="-10"/>
		</contour>
	</outline>
	<anchor name="aboveLC" x="334" y="520"/>
	<anchor name="belowLC" x="303" y="-20"/>
	<anchor name="hornLC" x="467" y="411"/>
	<anchor name="ogonek" x="453" y="0"/>
</glyph>
<glyph name="v" format="2">
	<unicode hex="0076"/>
	<advance width="504"/>
	<outline>
		<contour>
			<point x="190" y="0" type="curve"/>
			<point x="204" y="-8" type="line"/>
			<point x="236" y="-4" type="line"/>
			<point x="324" y="96"/>
			<point x="400" y="240"/>
			<point x="424" y="288" type="curve" smooth="yes"/>
			<point x="448" y="336"/>
			<point x="480" y="400"/>
			<point x="480" y="476" type="curve" smooth="yes"/>
			<point x="480" y="492"/>
			<point x="478" y="504"/>
			<point x="475" y="510" type="curve"/>
			<point x="472" y="511"/>
			<point x="468" y="512"/>
			<point x="461" y="512" type="curve" smooth="yes"/>
			<point x="438" y="512"/>
			<point x="424" y="492"/>
			<point x="424" y="466" type="curve" smooth="yes"/>
			<point x="424" y="440"/>
			<point x="432" y="424"/>
			<point x="442" y="400" type="curve" smooth="yes"/>
			<point x="452" y="376" type="line"/>
			<point x="454" y="424" type="line"/>
			<point x="440" y="384"/>
			<point x="424" y="344"/>
			<point x="410" y="312" type="curve" smooth="yes"/>
			<point x="396" y="280"/>
			<point x="316" y="128"/>
			<point x="226" y="16" type="curve"/>
			<point x="216" y="16" type="line"/>
			<point x="214" y="192"/>
			<point x="208" y="360"/>
			<point x="200" y="424" type="curve" smooth="yes"/>
			<point x="192" y="488"/>
			<point x="172" y="512"/>
			<point x="132" y="512" type="curve" smooth="yes"/>
			<point x="96" y="512"/>
			<point x="64" y="484"/>
			<point x="28" y="408" type="curve"/>
			<point x="48" y="396" type="line"/>
			<point x="80" y="460"/>
			<point x="104" y="484"/>
			<point x="128" y="484" type="curve" smooth="yes"/>
			<point x="152" y="484"/>
			<point x="164" y="468"/>
			<point x="172" y="416" type="curve" smooth="yes"/>
			<point x="184" y="336"/>
			<point x="188" y="160"/>
		</contour>
	</outline>
	<anchor name="aboveLC" x="298" y="490"/>
	<anchor name="belowLC" x="202" y="-22"/>
</glyph>
<glyph name="w" format="2">
	<unicode hex="0077"/>
	<advance width="760"/>
	<outline>
		<contour>
			<point x="174" y="0" type="curve"/>
			<point x="183" y="-8" type="line"/>
			<point x="214" y="-4" type="line"/>
			<point x="300" y="142"/>
			<point x="376" y="294"/>
			<point x="440" y="450" type="curve"/>
			<point x="448" y="450" type="line"/>
			<point x="454" y="289"/>
			<point x="461" y="141"/>
			<point x="463" y="0" type="curve"/>
			<point x="474" y="-8" type="line"/>
			<point x="502" y="-4" type="line"/>
			<point x="574" y="88"/>
			<point x="656" y="240"/>
			<point x="680" y="288" type="curve" smooth="yes"/>
			<point x="704" y="336"/>
			<point x="736" y="400"/>
			<point x="736" y="476" type="curve" smooth="yes"/>
			<point x="736" y="492"/>
			<point x="734" y="504"/>
			<point x="731" y="510" type="curve"/>
			<point x="728" y="511"/>
			<point x="724" y="512"/>
			<point x="717" y="512" type="curve" smooth="yes"/>
			<point x="694" y="512"/>
			<point x="680" y="492"/>
			<point x="680" y="466" type="curve" smooth="yes"/>
			<point x="680" y="440"/>
			<point x="688" y="424"/>
			<point x="698" y="400" type="curve" smooth="yes"/>
			<point x="708" y="376" type="line"/>
			<point x="710" y="424" type="line"/>
			<point x="696" y="384"/>
			<point x="680" y="344"/>
			<point x="666" y="312" type="curve" smooth="yes"/>
			<point x="652" y="281"/>
			<point x="566" y="122"/>
			<point x="493" y="18" type="curve"/>
			<point x="487" y="18" type="line"/>
			<point x="482" y="175"/>
			<point x="475" y="342"/>
			<point x="468" y="500" type="curve"/>
			<point x="440" y="500" type="line"/>
			<point x="370" y="331"/>
			<point x="291" y="171"/>
			<point x="203" y="18" type="curve"/>
			<point x="197" y="18" type="line"/>
			<point x="195" y="191"/>
			<point x="194" y="361"/>
			<point x="188" y="424" type="curve" smooth="yes"/>
			<point x="182" y="488"/>
			<point x="162" y="512"/>
			<point x="122" y="512" type="curve" smooth="yes"/>
			<point x="86" y="512"/>
			<point x="56" y="484"/>
			<point x="20" y="408" type="curve"/>
			<point x="40" y="396" type="line"/>
			<point x="72" y="460"/>
			<point x="94" y="484"/>
			<point x="118" y="484" type="curve" smooth="yes"/>
			<point x="142" y="484"/>
			<point x="154" y="468"/>
			<point x="160" y="416" type="curve" smooth="yes"/>
			<point x="168" y="344"/>
			<point x="172" y="160"/>
		</contour>
	</outline>
	<anchor name="aboveLC" x="437" y="520"/>
	<anchor name="belowLC" x="331" y="-20"/>
</glyph>
<glyph name="x" format="2">
	<unicode hex="0078"/>
	<advance width="557"/>
	<outline>
		<contour>
			<point x="406" y="-12" type="curve" smooth="yes"/>
			<point x="452" y="-12"/>
			<point x="492" y="32"/>
			<point x="542" y="98" type="curve"/>
			<point x="525" y="114" type="line"/>
			<point x="467" y="40"/>
			<point x="444" y="14"/>
			<point x="412" y="14" type="curve" smooth="yes"/>
			<point x="376" y="14"/>
			<point x="359" y="36"/>
			<point x="344" y="112" type="curve" smooth="yes"/>
			<point x="309" y="288" type="line"/>
			<point x="298" y="288" type="line"/>
			<point x="275" y="408" type="line" smooth="yes"/>
			<point x="259" y="488"/>
			<point x="236" y="512"/>
			<point x="198" y="512" type="curve" smooth="yes"/>
			<point x="160" y="512"/>
			<point x="128" y="484"/>
			<point x="90" y="400" type="curve"/>
			<point x="109" y="388" type="line"/>
			<point x="145" y="460"/>
			<point x="168" y="484"/>
			<point x="192" y="484" type="curve" smooth="yes"/>
			<point x="216" y="484"/>
			<point x="233" y="468"/>
			<point x="249" y="400" type="curve" smooth="yes"/>
			<point x="284" y="236" type="line"/>
			<point x="292" y="236" type="line"/>
			<point x="316" y="102" type="line" smooth="yes"/>
			<point x="331" y="23"/>
			<point x="352" y="-12"/>
		</contour>
		<contour>
			<point x="11" y="57" type="curve"/>
			<point x="18" y="20"/>
			<point x="48" y="-12"/>
			<point x="81" y="-12" type="curve" smooth="yes"/>
			<point x="116" y="-12"/>
			<point x="142" y="9"/>
			<point x="166" y="44" type="curve" smooth="yes"/>
			<point x="190" y="77"/>
			<point x="233" y="134"/>
			<point x="299" y="264" type="curve"/>
			<point x="284" y="272" type="line"/>
			<point x="231" y="178"/>
			<point x="180" y="99"/>
			<point x="144" y="51" type="curve" smooth="yes"/>
			<point x="128" y="31"/>
			<point x="117" y="19"/>
			<point x="102" y="8" type="curve"/>
			<point x="62" y="8" type="line"/>
			<point x="94" y="-3" type="line"/>
			<point x="70" y="42" type="line" smooth="yes"/>
			<point x="56" y="70"/>
			<point x="50" y="82"/>
			<point x="31" y="82" type="curve" smooth="yes"/>
			<point x="18" y="82"/>
			<point x="13" y="72"/>
		</contour>
		<contour>
			<point x="311" y="262" type="line"/>
			<point x="369" y="364"/>
			<point x="399" y="402"/>
			<point x="433" y="447" type="curve" smooth="yes"/>
			<point x="449" y="467"/>
			<point x="465" y="482"/>
			<point x="477" y="492" type="curve"/>
			<point x="517" y="492" type="line"/>
			<point x="489" y="507" type="line"/>
			<point x="506" y="467" type="line" smooth="yes"/>
			<point x="517" y="439"/>
			<point x="522" y="430"/>
			<point x="543" y="430" type="curve" smooth="yes"/>
			<point x="556" y="430"/>
			<point x="565" y="445"/>
			<point x="567" y="460" type="curve"/>
			<point x="561" y="478"/>
			<point x="537" y="512"/>
			<point x="503" y="512" type="curve" smooth="yes"/>
			<point x="461" y="512"/>
			<point x="438" y="489"/>
			<point x="413" y="456" type="curve" smooth="yes"/>
			<point x="388" y="425"/>
			<point x="350" y="375"/>
			<point x="296" y="269" type="curve"/>
		</contour>
	</outline>
	<anchor name="aboveLC" x="353" y="520"/>
	<anchor name="belowLC" x="260" y="-20"/>
</glyph>
<glyph name="y" format="2">
	<unicode hex="0079"/>
	<advance width="508"/>
	<outline>
		<contour>
			<point x="-100" y="-220" type="curve"/>
			<point x="-96" y="-232"/>
			<point x="-76" y="-252"/>
			<point x="-32" y="-252" type="curve" smooth="yes"/>
			<point x="36" y="-252"/>
			<point x="76" y="-210"/>
			<point x="128" y="-156" type="curve" smooth="yes"/>
			<point x="166" y="-116"/>
			<point x="202" y="-64"/>
			<point x="246" y="8" type="curve" smooth="yes"/>
			<point x="290" y="80"/>
			<point x="368" y="228"/>
			<point x="420" y="336" type="curve" smooth="yes"/>
			<point x="448" y="394"/>
			<point x="466" y="436"/>
			<point x="474" y="458" type="curve" smooth="yes"/>
			<point x="482" y="480"/>
			<point x="484" y="491"/>
			<point x="484" y="498" type="curve" smooth="yes"/>
			<point x="484" y="507"/>
			<point x="479" y="512"/>
			<point x="471" y="512" type="curve" smooth="yes"/>
			<point x="462" y="512"/>
			<point x="458" y="506"/>
			<point x="454" y="494" type="curve" smooth="yes"/>
			<point x="412" y="368"/>
			<point x="328" y="192"/>
			<point x="226" y="16" type="curve"/>
			<point x="192" y="-42"/>
			<point x="148" y="-100"/>
			<point x="112" y="-140" type="curve" smooth="yes"/>
			<point x="76" y="-180"/>
			<point x="52" y="-208"/>
			<point x="20" y="-228" type="curve"/>
			<point x="-20" y="-228" type="line"/>
			<point x="14" y="-236" type="line"/>
			<point x="2" y="-224" type="line" smooth="yes"/>
			<point x="-14" y="-208"/>
			<point x="-32" y="-196"/>
			<point x="-58" y="-196" type="curve" smooth="yes"/>
			<point x="-84" y="-196"/>
			<point x="-96" y="-208"/>
		</contour>
		<contour>
			<point x="246" y="20" type="line"/>
			<point x="220" y="20" type="line"/>
			<point x="220" y="208"/>
			<point x="208" y="360"/>
			<point x="200" y="424" type="curve" smooth="yes"/>
			<point x="192" y="488"/>
			<point x="172" y="512"/>
			<point x="132" y="512" type="curve" smooth="yes"/>
			<point x="96" y="512"/>
			<point x="64" y="484"/>
			<point x="28" y="408" type="curve"/>
			<point x="48" y="396" type="line"/>
			<point x="80" y="460"/>
			<point x="104" y="484"/>
			<point x="128" y="484" type="curve" smooth="yes"/>
			<point x="152" y="484"/>
			<point x="164" y="468"/>
			<point x="172" y="416" type="curve" smooth="yes"/>
			<point x="184" y="336"/>
			<point x="198" y="160"/>
			<point x="198" y="-32" type="curve"/>
		</contour>
	</outline>
	<anchor name="aboveLC" x="306" y="500"/>
	<anchor name="belowLC" x="-17" y="-252"/>
	<anchor name="aboveLC" x="322" y="500"/>
	<anchor name="belowLC" x="-1" y="-252"/>
</glyph>
<glyph name="z" format="2">
	<unicode hex="007A"/>
	<advance width="508"/>
	<outline>
		<contour>
			<point x="272" y="-24" type="curve" smooth="yes"/>
			<point x="352" y="-24"/>
			<point x="420" y="20"/>
			<point x="420" y="100" type="curve" smooth="yes"/>
			<point x="420" y="128"/>
			<point x="412" y="144"/>
			<point x="404" y="152" type="curve"/>
			<point x="384" y="150"/>
			<point x="364" y="132"/>
			<point x="364" y="98" type="curve" smooth="yes"/>
			<point x="364" y="74"/>
			<point x="376" y="58"/>
			<point x="386" y="46" type="curve"/>
			<point x="386" y="28" type="line"/>
			<point x="396" y="42" type="line"/>
			<point x="368" y="22"/>
			<point x="336" y="6"/>
			<point x="280" y="6" type="curve" smooth="yes"/>
			<point x="212" y="6"/>
			<point x="144" y="44"/>
			<point x="84" y="100" type="curve"/>
			<point x="76" y="84" type="line"/>
			<point x="136" y="20"/>
			<point x="188" y="-24"/>
		</contour>
		<contour>
			<point x="68" y="-4" type="line"/>
			<point x="92" y="76" type="line"/>
			<point x="196" y="196"/>
			<point x="332" y="288"/>
			<point x="420" y="388" type="curve" smooth="yes"/>
			<point x="448" y="420"/>
			<point x="468" y="460"/>
			<point x="478" y="500" type="curve"/>
			<point x="468" y="508" type="line"/>
			<point x="444" y="504" type="line"/>
			<point x="420" y="424" type="line"/>
			<point x="316" y="304"/>
			<point x="180" y="212"/>
			<point x="92" y="112" type="curve" smooth="yes"/>
			<point x="64" y="80"/>
			<point x="44" y="40"/>
			<point x="34" y="0" type="curve"/>
			<point x="44" y="-8" type="line"/>
		</contour>
		<contour>
			<point x="100" y="356" type="line"/>
			<point x="120" y="356" type="line"/>
			<point x="150" y="500" type="line"/>
			<point x="128" y="484" type="line"/>
			<point x="256" y="472"/>
			<point x="328" y="452"/>
			<point x="428" y="408" type="curve"/>
			<point x="436" y="424" type="line"/>
			<point x="344" y="476"/>
			<point x="272" y="496"/>
			<point x="152" y="512" type="curve"/>
			<point x="116" y="488" type="line"/>
		</contour>
	</outline>
	<anchor name="aboveLC" x="295" y="500"/>
	<anchor name="belowLC" x="186" y="-22"/>
	<anchor name="aboveLC" x="303" y="500"/>
	<anchor name="belowLC" x="194" y="-22"/>
</glyph>
<glyph name="braceleft" format="2">
	<unicode hex="007B"/>
	<advance width="348"/>
	<outline>
		<contour>
			<point x="40" y="264" type="line"/>
			<point x="116" y="256"/>
			<point x="144" y="228"/>
			<point x="144" y="180" type="curve" smooth="yes"/>
			<point x="144" y="116"/>
			<point x="80" y="36"/>
			<point x="80" y="-44" type="curve" smooth="yes"/>
			<point x="80" y="-120"/>
			<point x="132" y="-160"/>
			<point x="236" y="-160" type="curve" smooth="yes"/>
			<point x="248" y="-160" type="line"/>
			<point x="252" y="-132" type="line"/>
			<point x="228" y="-130" type="line" smooth="yes"/>
			<point x="152" y="-124"/>
			<point x="112" y="-100"/>
			<point x="112" y="-40" type="curve" smooth="yes"/>
			<point x="112" y="28"/>
			<point x="172" y="108"/>
			<point x="172" y="180" type="curve" smooth="yes"/>
			<point x="172" y="244"/>
			<point x="132" y="268"/>
			<point x="64" y="272" type="curve"/>
			<point x="64" y="284" type="line"/>
			<point x="176" y="288"/>
			<point x="224" y="332"/>
			<point x="224" y="412" type="curve" smooth="yes"/>
			<point x="224" y="484"/>
			<point x="220" y="516"/>
			<point x="220" y="564" type="curve" smooth="yes"/>
			<point x="220" y="640"/>
			<point x="260" y="674"/>
			<point x="384" y="686" type="curve" smooth="yes"/>
			<point x="404" y="688" type="line"/>
			<point x="408" y="716" type="line"/>
			<point x="392" y="716" type="line" smooth="yes"/>
			<point x="244" y="716"/>
			<point x="188" y="656"/>
			<point x="188" y="564" type="curve" smooth="yes"/>
			<point x="188" y="508"/>
			<point x="196" y="476"/>
			<point x="196" y="412" type="curve" smooth="yes"/>
			<point x="196" y="348"/>
			<point x="160" y="300"/>
			<point x="40" y="292" type="curve"/>
		</contour>
	</outline>
</glyph>
<glyph name="bar" format="2">
	<unicode hex="007C"/>
	<advance width="228"/>
	<outline>
		<contour>
			<point x="121" y="-240" type="line"/>
			<point x="149" y="-240" type="line"/>
			<point x="149" y="748" type="line"/>
			<point x="121" y="748" type="line"/>
		</contour>
	</outline>
</glyph>
<glyph name="asciitilde" format="2">
	<unicode hex="007E"/>
	<advance width="538"/>
	<outline>
		<contour>
			<point x="304" y="360" type="curve" smooth="yes"/>
			<point x="270" y="384"/>
			<point x="242" y="404"/>
			<point x="194" y="404" type="curve" smooth="yes"/>
			<point x="134" y="404"/>
			<point x="98" y="368"/>
			<point x="86" y="300" type="curve"/>
			<point x="114" y="292" type="line"/>
			<point x="126" y="352"/>
			<point x="154" y="372"/>
			<point x="190" y="372" type="curve" smooth="yes"/>
			<point x="226" y="372"/>
			<point x="250" y="352"/>
			<point x="284" y="328" type="curve" smooth="yes"/>
			<point x="318" y="304"/>
			<point x="346" y="284"/>
			<point x="394" y="284" type="curve" smooth="yes"/>
			<point x="454" y="284"/>
			<point x="490" y="320"/>
			<point x="502" y="388" type="curve"/>
			<point x="474" y="396" type="line"/>
			<point x="462" y="336"/>
			<point x="434" y="316"/>
			<point x="398" y="316" type="curve" smooth="yes"/>
			<point x="362" y="316"/>
			<point x="338" y="336"/>
		</contour>
	</outline>
</glyph>
<glyph name="cent" format="2">
	<unicode hex="00A2"/>
	<advance width="532"/>
	<outline>
		<contour>
			<point x="104" y="232" type="curve" smooth="yes"/>
			<point x="104" y="120"/>
			<point x="176" y="60"/>
			<point x="264" y="60" type="curve" smooth="yes"/>
			<point x="348" y="60"/>
			<point x="396" y="108"/>
			<point x="436" y="168" type="curve"/>
			<point x="418" y="182" type="line"/>
			<point x="376" y="128"/>
			<point x="340" y="86"/>
			<point x="268" y="86" type="curve" smooth="yes"/>
			<point x="192" y="86"/>
			<point x="134" y="136"/>
			<point x="134" y="236" type="curve" smooth="yes"/>
			<point x="134" y="380"/>
			<point x="236" y="544"/>
			<point x="364" y="544" type="curve" smooth="yes"/>
			<point x="400" y="544"/>
			<point x="432" y="536"/>
			<point x="456" y="520" type="curve"/>
			<point x="426" y="546" type="line"/>
			<point x="440" y="476" type="line" smooth="yes"/>
			<point x="444" y="456"/>
			<point x="452" y="444"/>
			<point x="468" y="444" type="curve" smooth="yes"/>
			<point x="484" y="444"/>
			<point x="490" y="454"/>
			<point x="492" y="468" type="curve"/>
			<point x="480" y="528"/>
			<point x="432" y="568"/>
			<point x="360" y="568" type="curve" smooth="yes"/>
			<point x="220" y="568"/>
			<point x="104" y="396"/>
		</contour>
		<contour>
			<point x="234" y="-48" type="line"/>
			<point x="378" y="668" type="line"/>
			<point x="352" y="668" type="line"/>
			<point x="208" y="-48" type="line"/>
		</contour>
	</outline>
</glyph>
<glyph name="sterling" format="2">
	<unicode hex="00A3"/>
	<advance width="532"/>
	<outline>
		<contour>
			<point x="26" y="0" type="line"/>
			<point x="424" y="0" type="line"/>
			<point x="430" y="28" type="line"/>
			<point x="64" y="26" type="line"/>
			<point x="64" y="20" type="line"/>
			<point x="168" y="100"/>
			<point x="224" y="188"/>
			<point x="224" y="294" type="curve" smooth="yes"/>
			<point x="224" y="364"/>
			<point x="188" y="420"/>
			<point x="188" y="492" type="curve" smooth="yes"/>
			<point x="188" y="572"/>
			<point x="244" y="638"/>
			<point x="338" y="638" type="curve" smooth="yes"/>
			<point x="400" y="638"/>
			<point x="440" y="620"/>
			<point x="472" y="596" type="curve"/>
			<point x="448" y="620" type="line"/>
			<point x="448" y="532" type="line" smooth="yes"/>
			<point x="448" y="510"/>
			<point x="462" y="500"/>
			<point x="478" y="500" type="curve" smooth="yes"/>
			<point x="494" y="500"/>
			<point x="502" y="512"/>
			<point x="504" y="524" type="curve"/>
			<point x="496" y="620"/>
			<point x="432" y="664"/>
			<point x="336" y="664" type="curve" smooth="yes"/>
			<point x="228" y="664"/>
			<point x="156" y="588"/>
			<point x="156" y="490" type="curve" smooth="yes"/>
			<point x="156" y="412"/>
			<point x="194" y="356"/>
			<point x="194" y="292" type="curve" smooth="yes"/>
			<point x="194" y="196"/>
			<point x="152" y="116"/>
			<point x="30" y="22" type="curve"/>
		</contour>
		<contour>
			<point x="76" y="302" type="line"/>
			<point x="395" y="302" type="line"/>
			<point x="400" y="328" type="line"/>
			<point x="80" y="328" type="line"/>
		</contour>
	</outline>
</glyph>
<glyph name="yen" format="2">
	<unicode hex="00A5"/>
	<advance width="532"/>
	<outline>
		<contour>
			<point x="266" y="256" type="line"/>
			<point x="296" y="256" type="line"/>
			<point x="542" y="652" type="line"/>
			<point x="506" y="652" type="line"/>
			<point x="280" y="276" type="line"/>
			<point x="290" y="276" type="line"/>
			<point x="186" y="652" type="line"/>
			<point x="150" y="652" type="line"/>
		</contour>
		<contour>
			<point x="120" y="0" type="line"/>
			<point x="354" y="0" type="line"/>
			<point x="360" y="28" type="line"/>
			<point x="248" y="28" type="line"/>
			<point x="232" y="28" type="line"/>
			<point x="126" y="28" type="line"/>
		</contour>
		<contour>
			<point x="86" y="624" type="line"/>
			<point x="170" y="624" type="line"/>
			<point x="182" y="624" type="line"/>
			<point x="282" y="624" type="line"/>
			<point x="288" y="652" type="line"/>
			<point x="92" y="652" type="line"/>
		</contour>
		<contour>
			<point x="402" y="624" type="line"/>
			<point x="498" y="624" type="line"/>
			<point x="514" y="624" type="line"/>
			<point x="596" y="624" type="line"/>
			<point x="602" y="652" type="line"/>
			<point x="408" y="652" type="line"/>
		</contour>
		<contour>
			<point x="88" y="142" type="line"/>
			<point x="434" y="142" type="line"/>
			<point x="439" y="168" type="line"/>
			<point x="93" y="168" type="line"/>
		</contour>
		<contour>
			<point x="108" y="254" type="line"/>
			<point x="454" y="254" type="line"/>
			<point x="459" y="280" type="line"/>
			<point x="113" y="280" type="line"/>
		</contour>
		<contour>
			<point x="218" y="0" type="line"/>
			<point x="252" y="0" type="line"/>
			<point x="306" y="296" type="line"/>
			<point x="272" y="296" type="line"/>
		</contour>
	</outline>
</glyph>
<glyph name="brokenbar" format="2">
	<unicode hex="00A6"/>
	<advance width="268"/>
	<outline>
		<contour>
			<point x="120" y="-240" type="line"/>
			<point x="148" y="-240" type="line"/>
			<point x="148" y="184" type="line"/>
			<point x="120" y="184" type="line"/>
		</contour>
		<contour>
			<point x="148" y="324" type="line"/>
			<point x="148" y="748" type="line"/>
			<point x="120" y="748" type="line"/>
			<point x="120" y="324" type="line"/>
		</contour>
	</outline>
</glyph>
<glyph name="copyright" format="2">
	<unicode hex="00A9"/>
	<advance width="838"/>
	<outline>
		<contour>
			<point x="411" y="-16" type="curve" smooth="yes"/>
			<point x="613" y="-16"/>
			<point x="793" y="132"/>
			<point x="793" y="378" type="curve" smooth="yes"/>
			<point x="793" y="572"/>
			<point x="661" y="692"/>
			<point x="471" y="692" type="curve" smooth="yes"/>
			<point x="273" y="692"/>
			<point x="93" y="544"/>
			<point x="93" y="298" type="curve" smooth="yes"/>
			<point x="93" y="104"/>
			<point x="225" y="-16"/>
		</contour>
		<contour>
			<point x="413" y="6" type="curve" smooth="yes"/>
			<point x="241" y="6"/>
			<point x="119" y="120"/>
			<point x="119" y="300" type="curve" smooth="yes"/>
			<point x="119" y="528"/>
			<point x="289" y="670"/>
			<point x="469" y="670" type="curve" smooth="yes"/>
			<point x="645" y="670"/>
			<point x="767" y="556"/>
			<point x="767" y="376" type="curve" smooth="yes"/>
			<point x="767" y="148"/>
			<point x="597" y="6"/>
		</contour>
		<contour>
			<point x="433" y="128" type="curve" smooth="yes"/>
			<point x="477" y="128"/>
			<point x="517" y="140"/>
			<point x="543" y="155" type="curve"/>
			<point x="561" y="252" type="line"/>
			<point x="537" y="252" type="line"/>
			<point x="508" y="155" type="line"/>
			<point x="529" y="172" type="line"/>
			<point x="505" y="160"/>
			<point x="477" y="152"/>
			<point x="435" y="152" type="curve" smooth="yes"/>
			<point x="345" y="152"/>
			<point x="283" y="216"/>
			<point x="283" y="320" type="curve" smooth="yes"/>
			<point x="283" y="440"/>
			<point x="361" y="528"/>
			<point x="473" y="528" type="curve" smooth="yes"/>
			<point x="521" y="528"/>
			<point x="557" y="516"/>
			<point x="581" y="504" type="curve"/>
			<point x="559" y="524" type="line"/>
			<point x="555" y="428" type="line"/>
			<point x="579" y="428" type="line"/>
			<point x="593" y="524" type="line"/>
			<point x="565" y="540"/>
			<point x="529" y="552"/>
			<point x="473" y="552" type="curve" smooth="yes"/>
			<point x="345" y="552"/>
			<point x="249" y="456"/>
			<point x="249" y="319" type="curve" smooth="yes"/>
			<point x="249" y="200"/>
			<point x="329" y="128"/>
		</contour>
	</outline>
</glyph>
<glyph name="logicalnot" format="2">
	<unicode hex="00AC"/>
	<advance width="538"/>
	<outline>
		<contour>
			<point x="54" y="356" type="line"/>
			<point x="481" y="356" type="line"/>
			<point x="470" y="363" type="line"/>
			<point x="470" y="160" type="line"/>
			<point x="504" y="160" type="line"/>
			<point x="504" y="388" type="line"/>
			<point x="54" y="388" type="line"/>
		</contour>
	</outline>
</glyph>
<glyph name="registered" format="2">
	<unicode hex="00AE"/>
	<advance width="492"/>
	<outline>
		<contour>
			<point x="222" y="420" type="line"/>
			<point x="302" y="420" type="line"/>
			<point x="305" y="438" type="line"/>
			<point x="268" y="438" type="line"/>
			<point x="260" y="438" type="line"/>
			<point x="225" y="438" type="line"/>
		</contour>
		<contour>
			<point x="248" y="420" type="line"/>
			<point x="274" y="420" type="line"/>
			<point x="312" y="624" type="line"/>
			<point x="286" y="624" type="line"/>
		</contour>
		<contour>
			<point x="288" y="606" type="line"/>
			<point x="292" y="606" type="line"/>
			<point x="292" y="624" type="line"/>
			<point x="259" y="624" type="line"/>
			<point x="256" y="606" type="line"/>
		</contour>
		<contour>
			<point x="304" y="340" type="curve" smooth="yes"/>
			<point x="212" y="340"/>
			<point x="152" y="400"/>
			<point x="152" y="492" type="curve" smooth="yes"/>
			<point x="152" y="612"/>
			<point x="236" y="688"/>
			<point x="336" y="688" type="curve" smooth="yes"/>
			<point x="428" y="688"/>
			<point x="488" y="628"/>
			<point x="488" y="536" type="curve" smooth="yes"/>
			<point x="488" y="416"/>
			<point x="404" y="340"/>
		</contour>
		<contour>
			<point x="302" y="316" type="curve" smooth="yes"/>
			<point x="420" y="316"/>
			<point x="516" y="400"/>
			<point x="516" y="538" type="curve" smooth="yes"/>
			<point x="516" y="644"/>
			<point x="444" y="712"/>
			<point x="338" y="712" type="curve" smooth="yes"/>
			<point x="220" y="712"/>
			<point x="124" y="628"/>
			<point x="124" y="490" type="curve" smooth="yes"/>
			<point x="124" y="384"/>
			<point x="196" y="316"/>
		</contour>
		<contour>
			<point x="386" y="418" type="curve" smooth="yes"/>
			<point x="396" y="418"/>
			<point x="404" y="419"/>
			<point x="408" y="420" type="curve"/>
			<point x="411" y="440" type="line"/>
			<point x="366" y="440" type="line"/>
			<point x="386" y="424" type="line"/>
			<point x="364" y="488" type="line" smooth="yes"/>
			<point x="358" y="506"/>
			<point x="348" y="512"/>
			<point x="328" y="514" type="curve"/>
			<point x="328" y="521" type="line"/>
			<point x="368" y="522"/>
			<point x="400" y="538"/>
			<point x="400" y="575" type="curve" smooth="yes"/>
			<point x="400" y="608"/>
			<point x="374" y="624"/>
			<point x="336" y="624" type="curve" smooth="yes"/>
			<point x="300" y="624" type="line"/>
			<point x="300" y="607" type="line"/>
			<point x="332" y="607" type="line" smooth="yes"/>
			<point x="360" y="607"/>
			<point x="373" y="596"/>
			<point x="373" y="573" type="curve" smooth="yes"/>
			<point x="373" y="546"/>
			<point x="352" y="528"/>
			<point x="312" y="527" type="curve" smooth="yes"/>
			<point x="280" y="526" type="line"/>
			<point x="280" y="510" type="line"/>
			<point x="308" y="509" type="line" smooth="yes"/>
			<point x="324" y="508"/>
			<point x="332" y="502"/>
			<point x="338" y="484" type="curve" smooth="yes"/>
			<point x="352" y="440" type="line" smooth="yes"/>
			<point x="357" y="426"/>
			<point x="366" y="418"/>
		</contour>
	</outline>
</glyph>
<glyph name="two.sups" format="2">
	<unicode hex="00B2"/>
	<advance width="368"/>
	<outline>
		<contour>
			<point x="110" y="412" type="line"/>
			<point x="390" y="412" type="line"/>
			<point x="396" y="442" type="line"/>
			<point x="155" y="442" type="line"/>
			<point x="155" y="447" type="line"/>
			<point x="270" y="535" type="line" smooth="yes"/>
			<point x="380" y="620"/>
			<point x="432" y="664"/>
			<point x="431" y="740" type="curve" smooth="yes"/>
			<point x="431" y="807"/>
			<point x="380" y="845"/>
			<point x="313" y="845" type="curve" smooth="yes"/>
			<point x="240" y="845"/>
			<point x="185" y="806"/>
			<point x="170" y="733" type="curve"/>
			<point x="172" y="722"/>
			<point x="179" y="715"/>
			<point x="190" y="715" type="curve" smooth="yes"/>
			<point x="203" y="715"/>
			<point x="212" y="722"/>
			<point x="213" y="738" type="curve" smooth="yes"/>
			<point x="219" y="803" type="line"/>
			<point x="205" y="771" type="line"/>
			<point x="219" y="802"/>
			<point x="257" y="822"/>
			<point x="308" y="822" type="curve" smooth="yes"/>
			<point x="365" y="822"/>
			<point x="400" y="792"/>
			<point x="400" y="737" type="curve" smooth="yes"/>
			<point x="400" y="682"/>
			<point x="365" y="640"/>
			<point x="242" y="540" type="curve" smooth="yes"/>
			<point x="116" y="438" type="line"/>
		</contour>
	</outline>
</glyph>
<glyph name="three.sups" format="2">
	<unicode hex="00B3"/>
	<advance width="377"/>
	<outline>
		<contour>
			<point x="262" y="405" type="curve" smooth="yes"/>
			<point x="342" y="405"/>
			<point x="408" y="452"/>
			<point x="407" y="529" type="curve" smooth="yes"/>
			<point x="407" y="601"/>
			<point x="356" y="628"/>
			<point x="297" y="631" type="curve"/>
			<point x="297" y="636" type="line"/>
			<point x="384" y="642"/>
			<point x="435" y="684"/>
			<point x="435" y="748" type="curve" smooth="yes"/>
			<point x="435" y="810"/>
			<point x="384" y="846"/>
			<point x="316" y="846" type="curve" smooth="yes"/>
			<point x="246" y="846"/>
			<point x="199" y="811"/>
			<point x="184" y="753" type="curve"/>
			<point x="186" y="740"/>
			<point x="191" y="733"/>
			<point x="203" y="733" type="curve" smooth="yes"/>
			<point x="215" y="733"/>
			<point x="222" y="741"/>
			<point x="225" y="759" type="curve" smooth="yes"/>
			<point x="232" y="815" type="line"/>
			<point x="220" y="794" type="line"/>
			<point x="241" y="812"/>
			<point x="265" y="822"/>
			<point x="311" y="822" type="curve" smooth="yes"/>
			<point x="369" y="822"/>
			<point x="407" y="795"/>
			<point x="407" y="746" type="curve" smooth="yes"/>
			<point x="407" y="693"/>
			<point x="363" y="648"/>
			<point x="248" y="648" type="curve"/>
			<point x="242" y="620" type="line"/>
			<point x="335" y="620"/>
			<point x="379" y="591"/>
			<point x="380" y="531" type="curve" smooth="yes"/>
			<point x="380" y="470"/>
			<point x="329" y="429"/>
			<point x="262" y="429" type="curve" smooth="yes"/>
			<point x="211" y="429"/>
			<point x="178" y="442"/>
			<point x="157" y="465" type="curve"/>
			<point x="172" y="437" type="line"/>
			<point x="172" y="496" type="line" smooth="yes"/>
			<point x="173" y="514"/>
			<point x="167" y="524"/>
			<point x="155" y="524" type="curve" smooth="yes"/>
			<point x="144" y="524"/>
			<point x="139" y="517"/>
			<point x="135" y="507" type="curve"/>
			<point x="137" y="441"/>
			<point x="180" y="405"/>
		</contour>
	</outline>
</glyph>
<glyph name="paragraph" format="2">
	<unicode hex="00B6"/>
	<advance width="602"/>
	<outline>
		<contour>
			<point x="510" y="676" type="line"/>
			<point x="505" y="646" type="line"/>
			<point x="512" y="646" type="line"/>
			<point x="619" y="646" type="line"/>
			<point x="624" y="676" type="line"/>
		</contour>
		<contour>
			<point x="403" y="180" type="line"/>
			<point x="347" y="-132" type="line"/>
			<point x="380" y="-132" type="line"/>
			<point x="435" y="180" type="line"/>
			<point x="469" y="367" type="line"/>
			<point x="524" y="676" type="line"/>
			<point x="491" y="676" type="line"/>
		</contour>
		<contour>
			<point x="416" y="646" type="line"/>
			<point x="490" y="646" type="line"/>
			<point x="495" y="676" type="line"/>
			<point x="436" y="676" type="line" smooth="yes"/>
			<point x="208" y="676"/>
			<point x="96" y="568"/>
			<point x="96" y="408" type="curve" smooth="yes"/>
			<point x="96" y="252"/>
			<point x="212" y="184"/>
			<point x="332" y="176" type="curve"/>
		</contour>
	</outline>
</glyph>
<glyph name="one.sups" format="2">
	<unicode hex="00B9"/>
	<advance width="266"/>
	<outline>
		<contour>
			<point x="319" y="405" type="line"/>
			<point x="324" y="430" type="line"/>
			<point x="227" y="430" type="line"/>
			<point x="213" y="430" type="line"/>
			<point x="114" y="430" type="line"/>
			<point x="110" y="405" type="line"/>
		</contour>
		<contour>
			<point x="232" y="405" type="line"/>
			<point x="299" y="748" type="line"/>
			<point x="320" y="849" type="line"/>
			<point x="306" y="849" type="line"/>
			<point x="182" y="812" type="line"/>
			<point x="179" y="788" type="line"/>
			<point x="300" y="818" type="line"/>
			<point x="286" y="831" type="line"/>
			<point x="201" y="405" type="line"/>
		</contour>
	</outline>
</glyph>
<glyph name="AE" format="2">
	<unicode hex="00C6"/>
	<advance width="914"/>
	<outline>
		<contour>
			<point x="474" y="0" type="line"/>
			<point x="810" y="0" type="line"/>
			<point x="850" y="168" type="line"/>
			<point x="822" y="168" type="line"/>
			<point x="776" y="12" type="line"/>
			<point x="790" y="28" type="line"/>
			<point x="474" y="28" type="line"/>
		</contour>
		<contour>
			<point x="856" y="516" type="line"/>
			<point x="884" y="516" type="line"/>
			<point x="902" y="676" type="line"/>
			<point x="586" y="676" type="line"/>
			<point x="586" y="648" type="line"/>
			<point x="884" y="648" type="line"/>
			<point x="864" y="664" type="line"/>
		</contour>
		<contour>
			<point x="-10" y="0" type="line"/>
			<point x="198" y="0" type="line"/>
			<point x="204" y="28" type="line"/>
			<point x="102" y="28" type="line"/>
			<point x="86" y="28" type="line"/>
			<point x="-4" y="28" type="line"/>
		</contour>
		<contour>
			<point x="445" y="0" type="line"/>
			<point x="479" y="0" type="line"/>
			<point x="498" y="104"/>
			<point x="516" y="208"/>
			<point x="535" y="312" type="curve" smooth="yes"/>
			<point x="601" y="676" type="line"/>
			<point x="567" y="676" type="line"/>
			<point x="548" y="572"/>
			<point x="530" y="468"/>
			<point x="511" y="364" type="curve" smooth="yes"/>
		</contour>
		<contour>
			<point x="704" y="232" type="line"/>
			<point x="730" y="232" type="line"/>
			<point x="770" y="456" type="line"/>
			<point x="744" y="456" type="line"/>
			<point x="716" y="352" type="line"/>
			<point x="712" y="332" type="line"/>
		</contour>
		<contour>
			<point x="342" y="0" type="line"/>
			<point x="458" y="0" type="line"/>
			<point x="458" y="28" type="line"/>
			<point x="454" y="28" type="line"/>
			<point x="348" y="28" type="line"/>
		</contour>
		<contour>
			<point x="428" y="648" type="line"/>
			<point x="565" y="648" type="line"/>
			<point x="568" y="648" type="line"/>
			<point x="574" y="676" type="line"/>
			<point x="434" y="676" type="line"/>
		</contour>
		<contour>
			<point x="54" y="0" type="line"/>
			<point x="90" y="0" type="line"/>
			<point x="278" y="255" type="line"/>
			<point x="577" y="676" type="line"/>
			<point x="554" y="676" type="line"/>
		</contour>
		<contour>
			<point x="259" y="240" type="line"/>
			<point x="506" y="240" type="line"/>
			<point x="506" y="268" type="line"/>
			<point x="259" y="268" type="line"/>
		</contour>
		<contour>
			<point x="522" y="328" type="line"/>
			<point x="730" y="328" type="line"/>
			<point x="730" y="356" type="line"/>
			<point x="522" y="356" type="line"/>
		</contour>
	</outline>
	<anchor name="aboveUC" x="682" y="696"/>
</glyph>
<glyph name="Idieresis" format="2">
	<unicode hex="00CF"/>
	<advance width="360"/>
	<outline>
		<contour>
			<point x="193" y="756" type="curve" smooth="yes"/>
			<point x="209" y="756"/>
			<point x="227" y="769"/>
			<point x="227" y="792" type="curve" smooth="yes"/>
			<point x="227" y="809"/>
			<point x="215" y="819"/>
			<point x="199" y="819" type="curve" smooth="yes"/>
			<point x="183" y="819"/>
			<point x="165" y="806"/>
			<point x="165" y="784" type="curve" smooth="yes"/>
			<point x="165" y="764"/>
			<point x="178" y="756"/>
		</contour>
		<contour>
			<point x="358" y="756" type="curve" smooth="yes"/>
			<point x="374" y="756"/>
			<point x="392" y="769"/>
			<point x="392" y="792" type="curve" smooth="yes"/>
			<point x="392" y="809"/>
			<point x="380" y="819"/>
			<point x="364" y="819" type="curve" smooth="yes"/>
			<point x="348" y="819"/>
			<point x="330" y="806"/>
			<point x="330" y="784" type="curve" smooth="yes"/>
			<point x="330" y="764"/>
			<point x="343" y="756"/>
		</contour>
		<component base="I"/>
	</outline>
</glyph>
<glyph name="Oslash" format="2">
	<unicode hex="00D8"/>
	<advance width="708"/>
	<outline>
		<contour>
			<point x="712" y="672" type="line"/>
			<point x="694" y="692" type="line"/>
			<point x="20" y="4" type="line"/>
			<point x="38" y="-16" type="line"/>
		</contour>
		<component base="O"/>
	</outline>
	<anchor name="aboveUC" x="398" y="682"/>
</glyph>
<glyph name="Thorn" format="2">
	<unicode hex="00DE"/>
	<advance width="600"/>
	<outline>
		<contour>
			<point x="180" y="165" type="line"/>
			<point x="288" y="165" type="line" smooth="yes"/>
			<point x="460" y="165"/>
			<point x="556" y="248"/>
			<point x="556" y="366" type="curve" smooth="yes"/>
			<point x="556" y="467"/>
			<point x="484" y="528"/>
			<point x="344" y="528" type="curve" smooth="yes"/>
			<point x="248" y="528" type="line"/>
			<point x="248" y="500" type="line"/>
			<point x="340" y="500" type="line" smooth="yes"/>
			<point x="468" y="500"/>
			<point x="522" y="449"/>
			<point x="522" y="364" type="curve" smooth="yes"/>
			<point x="522" y="264"/>
			<point x="444" y="192"/>
			<point x="284" y="192" type="curve" smooth="yes"/>
			<point x="180" y="192" type="line"/>
		</contour>
		<contour>
			<point x="20" y="0" type="line"/>
			<point x="270" y="0" type="line"/>
			<point x="276" y="28" type="line"/>
			<point x="156" y="28" type="line"/>
			<point x="140" y="28" type="line"/>
			<point x="26" y="28" type="line"/>
		</contour>
		<contour>
			<point x="126" y="0" type="line"/>
			<point x="160" y="0" type="line"/>
			<point x="179" y="104"/>
			<point x="197" y="208"/>
			<point x="216" y="312" type="curve" smooth="yes"/>
			<point x="282" y="676" type="line"/>
			<point x="248" y="676" type="line"/>
			<point x="229" y="572"/>
			<point x="211" y="468"/>
			<point x="192" y="364" type="curve" smooth="yes"/>
		</contour>
		<contour>
			<point x="132" y="648" type="line"/>
			<point x="252" y="648" type="line"/>
			<point x="268" y="648" type="line"/>
			<point x="382" y="648" type="line"/>
			<point x="388" y="676" type="line"/>
			<point x="138" y="676" type="line"/>
		</contour>
	</outline>
</glyph>
<glyph name="germandbls" format="2">
	<unicode hex="00DF"/>
	<advance width="548"/>
	<outline>
		<contour>
			<point x="104" y="36" type="line" smooth="yes"/>
			<point x="90" y="-56"/>
			<point x="72" y="-112"/>
			<point x="48" y="-156" type="curve" smooth="yes"/>
			<point x="24" y="-200"/>
			<point x="0" y="-224"/>
			<point x="-32" y="-232" type="curve"/>
			<point x="-68" y="-232" type="line"/>
			<point x="-40" y="-244" type="line"/>
			<point x="-48" y="-228" type="line" smooth="yes"/>
			<point x="-56" y="-212"/>
			<point x="-74" y="-192"/>
			<point x="-106" y="-192" type="curve" smooth="yes"/>
			<point x="-130" y="-192"/>
			<point x="-142" y="-206"/>
			<point x="-144" y="-216" type="curve"/>
			<point x="-140" y="-228"/>
			<point x="-120" y="-252"/>
			<point x="-66" y="-252" type="curve" smooth="yes"/>
			<point x="8" y="-252"/>
			<point x="48" y="-204"/>
			<point x="70" y="-170" type="curve" smooth="yes"/>
			<point x="92" y="-136"/>
			<point x="118" y="-72"/>
			<point x="134" y="32" type="curve" smooth="yes"/>
			<point x="204" y="494" type="line" smooth="yes"/>
			<point x="220" y="596"/>
			<point x="272" y="736"/>
			<point x="400" y="736" type="curve" smooth="yes"/>
			<point x="472" y="736"/>
			<point x="512" y="700"/>
			<point x="512" y="650" type="curve" smooth="yes"/>
			<point x="512" y="600"/>
			<point x="484" y="560"/>
			<point x="420" y="508" type="curve" smooth="yes"/>
			<point x="356" y="456"/>
			<point x="316" y="408"/>
			<point x="316" y="348" type="curve" smooth="yes"/>
			<point x="316" y="296"/>
			<point x="344" y="268"/>
			<point x="396" y="228" type="curve" smooth="yes"/>
			<point x="448" y="188"/>
			<point x="472" y="160"/>
			<point x="472" y="112" type="curve" smooth="yes"/>
			<point x="472" y="56"/>
			<point x="432" y="12"/>
			<point x="356" y="12" type="curve" smooth="yes"/>
			<point x="316" y="12"/>
			<point x="292" y="18"/>
			<point x="272" y="28" type="curve"/>
			<point x="296" y="8" type="line"/>
			<point x="280" y="68" type="line" smooth="yes"/>
			<point x="276" y="84"/>
			<point x="266" y="96"/>
			<point x="250" y="96" type="curve" smooth="yes"/>
			<point x="234" y="96"/>
			<point x="226" y="84"/>
			<point x="224" y="72" type="curve"/>
			<point x="240" y="24"/>
			<point x="284" y="-12"/>
			<point x="356" y="-12" type="curve" smooth="yes"/>
			<point x="448" y="-12"/>
			<point x="500" y="40"/>
			<point x="500" y="116" type="curve" smooth="yes"/>
			<point x="500" y="168"/>
			<point x="472" y="204"/>
			<point x="420" y="244" type="curve" smooth="yes"/>
			<point x="368" y="284"/>
			<point x="344" y="304"/>
			<point x="344" y="352" type="curve" smooth="yes"/>
			<point x="344" y="400"/>
			<point x="372" y="440"/>
			<point x="436" y="492" type="curve" smooth="yes"/>
			<point x="500" y="544"/>
			<point x="540" y="592"/>
			<point x="540" y="652" type="curve" smooth="yes"/>
			<point x="540" y="716"/>
			<point x="488" y="760"/>
			<point x="404" y="760" type="curve" smooth="yes"/>
			<point x="252" y="760"/>
			<point x="192" y="616"/>
			<point x="174" y="496" type="curve" smooth="yes"/>
		</contour>
	</outline>
</glyph>
<glyph name="ae" format="2">
	<unicode hex="00E6"/>
	<advance width="752"/>
	<outline>
		<contour>
			<point x="168" y="-12" type="curve" smooth="yes"/>
			<point x="240" y="-12"/>
			<point x="298" y="44"/>
			<point x="354" y="116" type="curve"/>
			<point x="380" y="116" type="line"/>
			<point x="380" y="172" type="line"/>
			<point x="296" y="76"/>
			<point x="248" y="14"/>
			<point x="176" y="14" type="curve" smooth="yes"/>
			<point x="120" y="14"/>
			<point x="90" y="52"/>
			<point x="90" y="140" type="curve" smooth="yes"/>
			<point x="90" y="240"/>
			<point x="136" y="332"/>
			<point x="176" y="380" type="curve" smooth="yes"/>
			<point x="216" y="428"/>
			<point x="276" y="484"/>
			<point x="360" y="484" type="curve" smooth="yes"/>
			<point x="420" y="484"/>
			<point x="460" y="460"/>
			<point x="492" y="432" type="curve"/>
			<point x="508" y="456" type="line"/>
			<point x="484" y="476"/>
			<point x="436" y="508"/>
			<point x="364" y="508" type="curve" smooth="yes"/>
			<point x="200" y="508"/>
			<point x="60" y="316"/>
			<point x="60" y="136" type="curve" smooth="yes"/>
			<point x="60" y="36"/>
			<point x="104" y="-12"/>
		</contour>
		<contour>
			<point x="520" y="-12" type="curve" smooth="yes"/>
			<point x="600" y="-12"/>
			<point x="656" y="40"/>
			<point x="692" y="96" type="curve"/>
			<point x="674" y="110" type="line"/>
			<point x="632" y="56"/>
			<point x="592" y="15"/>
			<point x="526" y="15" type="curve" smooth="yes"/>
			<point x="444" y="15"/>
			<point x="390" y="68"/>
			<point x="390" y="180" type="curve" smooth="yes"/>
			<point x="390" y="328"/>
			<point x="504" y="486"/>
			<point x="626" y="486" type="curve" smooth="yes"/>
			<point x="672" y="486"/>
			<point x="698" y="466"/>
			<point x="698" y="426" type="curve" smooth="yes"/>
			<point x="698" y="332"/>
			<point x="588" y="256"/>
			<point x="376" y="210" type="curve"/>
			<point x="376" y="188" type="line"/>
			<point x="604" y="232"/>
			<point x="728" y="316"/>
			<point x="728" y="428" type="curve" smooth="yes"/>
			<point x="728" y="482"/>
			<point x="688" y="512"/>
			<point x="630" y="512" type="curve" smooth="yes"/>
			<point x="488" y="512"/>
			<point x="362" y="344"/>
			<point x="362" y="176" type="curve" smooth="yes"/>
			<point x="362" y="50"/>
			<point x="426" y="-12"/>
		</contour>
		<component base="e" xOffset="302"/>
	</outline>
	<anchor name="aboveLC" x="485" y="500"/>
	<anchor name="belowLC" x="352" y="-22"/>
</glyph>
<glyph name="idieresis" format="2">
	<unicode hex="00EF"/>
	<advance width="292"/>
	<outline>
		<contour>
			<point x="117" y="664" type="curve" smooth="yes"/>
			<point x="132" y="664"/>
			<point x="149" y="677"/>
			<point x="149" y="698" type="curve" smooth="yes"/>
			<point x="149" y="714"/>
			<point x="137" y="723"/>
			<point x="123" y="723" type="curve" smooth="yes"/>
			<point x="108" y="723"/>
			<point x="91" y="710"/>
			<point x="91" y="690" type="curve" smooth="yes"/>
			<point x="91" y="673"/>
			<point x="103" y="664"/>
		</contour>
		<contour>
			<point x="274" y="664" type="curve" smooth="yes"/>
			<point x="289" y="664"/>
			<point x="306" y="677"/>
			<point x="306" y="698" type="curve" smooth="yes"/>
			<point x="306" y="714"/>
			<point x="294" y="723"/>
			<point x="280" y="723" type="curve" smooth="yes"/>
			<point x="265" y="723"/>
			<point x="248" y="710"/>
			<point x="248" y="690" type="curve" smooth="yes"/>
			<point x="248" y="673"/>
			<point x="260" y="664"/>
		</contour>
		<component base="dotlessi"/>
	</outline>
</glyph>
<glyph name="eth" format="2">
	<unicode hex="00F0"/>
	<advance width="516"/>
	<outline>
		<contour>
			<point x="204" y="-12" type="curve" smooth="yes"/>
			<point x="344" y="-12"/>
			<point x="456" y="144"/>
			<point x="456" y="328" type="curve" smooth="yes"/>
			<point x="456" y="532"/>
			<point x="380" y="672"/>
			<point x="228" y="760" type="curve"/>
			<point x="216" y="740" type="line"/>
			<point x="356" y="664"/>
			<point x="428" y="516"/>
			<point x="438" y="352" type="curve"/>
			<point x="436" y="352" type="line"/>
			<point x="428" y="444"/>
			<point x="376" y="484"/>
			<point x="304" y="484" type="curve" smooth="yes"/>
			<point x="168" y="484"/>
			<point x="56" y="328"/>
			<point x="56" y="158" type="curve" smooth="yes"/>
			<point x="56" y="48"/>
			<point x="120" y="-12"/>
		</contour>
		<contour>
			<point x="208" y="14" type="curve" smooth="yes"/>
			<point x="136" y="14"/>
			<point x="86" y="64"/>
			<point x="86" y="160" type="curve" smooth="yes"/>
			<point x="86" y="312"/>
			<point x="184" y="458"/>
			<point x="304" y="458" type="curve" smooth="yes"/>
			<point x="376" y="458"/>
			<point x="426" y="408"/>
			<point x="426" y="312" type="curve" smooth="yes"/>
			<point x="426" y="160"/>
			<point x="328" y="14"/>
		</contour>
		<contour>
			<point x="212" y="552" type="line"/>
			<point x="502" y="722" type="line"/>
			<point x="492" y="740" type="line"/>
			<point x="202" y="570" type="line"/>
		</contour>
	</outline>
</glyph>
<glyph name="divide" format="2">
	<unicode hex="00F7"/>
	<advance width="530"/>
	<outline>
		<contour>
			<point x="265" y="108" type="curve" smooth="yes"/>
			<point x="283" y="108"/>
			<point x="297" y="122"/>
			<point x="297" y="140" type="curve" smooth="yes"/>
			<point x="297" y="158"/>
			<point x="283" y="172"/>
			<point x="265" y="172" type="curve" smooth="yes"/>
			<point x="247" y="172"/>
			<point x="233" y="158"/>
			<point x="233" y="140" type="curve" smooth="yes"/>
			<point x="233" y="122"/>
			<point x="247" y="108"/>
		</contour>
		<contour>
			<point x="265" y="484" type="curve" smooth="yes"/>
			<point x="283" y="484"/>
			<point x="297" y="498"/>
			<point x="297" y="516" type="curve" smooth="yes"/>
			<point x="297" y="534"/>
			<point x="283" y="548"/>
			<point x="265" y="548" type="curve" smooth="yes"/>
			<point x="247" y="548"/>
			<point x="233" y="534"/>
			<point x="233" y="516" type="curve" smooth="yes"/>
			<point x="233" y="498"/>
			<point x="247" y="484"/>
		</contour>
		<component base="minus"/>
	</outline>
</glyph>
<glyph name="oslash" format="2">
	<unicode hex="00F8"/>
	<advance width="536"/>
	<outline>
		<contour>
			<point x="524" y="494" type="line"/>
			<point x="506" y="512" type="line"/>
			<point x="12" y="10" type="line"/>
			<point x="30" y="-8" type="line"/>
		</contour>
		<component base="o"/>
	</outline>
	<anchor name="aboveLC" x="302" y="500"/>
</glyph>
<glyph name="thorn" format="2">
	<unicode hex="00FE"/>
	<advance width="552"/>
	<outline>
		<contour>
			<point x="-68" y="-240" type="line"/>
			<point x="154" y="-240" type="line"/>
			<point x="160" y="-216" type="line"/>
			<point x="48" y="-216" type="line"/>
			<point x="32" y="-216" type="line"/>
			<point x="-62" y="-216" type="line"/>
		</contour>
		<contour>
			<point x="20" y="-240" type="line"/>
			<point x="50" y="-240" type="line"/>
			<point x="67" y="-153"/>
			<point x="85" y="-65"/>
			<point x="102" y="22" type="curve"/>
			<point x="106" y="22" type="line"/>
			<point x="174" y="336" type="line"/>
			<point x="170" y="336" type="line"/>
			<point x="260" y="748" type="line"/>
			<point x="244" y="748" type="line"/>
			<point x="112" y="742" type="line"/>
			<point x="112" y="720" type="line"/>
			<point x="236" y="716" type="line"/>
			<point x="228" y="732" type="line"/>
			<point x="208" y="639"/>
			<point x="188" y="547"/>
			<point x="168" y="454" type="curve" smooth="yes"/>
		</contour>
		<contour>
			<point x="184" y="-12" type="curve" smooth="yes"/>
			<point x="352" y="-12"/>
			<point x="492" y="184"/>
			<point x="492" y="364" type="curve" smooth="yes"/>
			<point x="492" y="464"/>
			<point x="448" y="512"/>
			<point x="384" y="512" type="curve" smooth="yes"/>
			<point x="316" y="512"/>
			<point x="260" y="456"/>
			<point x="186" y="352" type="curve"/>
			<point x="156" y="352" type="line"/>
			<point x="156" y="288" type="line"/>
			<point x="252" y="416"/>
			<point x="308" y="486"/>
			<point x="376" y="486" type="curve" smooth="yes"/>
			<point x="432" y="486"/>
			<point x="462" y="448"/>
			<point x="462" y="360" type="curve" smooth="yes"/>
			<point x="462" y="256"/>
			<point x="412" y="164"/>
			<point x="372" y="116" type="curve" smooth="yes"/>
			<point x="332" y="68"/>
			<point x="272" y="13"/>
			<point x="188" y="13" type="curve" smooth="yes"/>
			<point x="148" y="13"/>
			<point x="120" y="23"/>
			<point x="92" y="43" type="curve"/>
			<point x="92" y="4" type="line"/>
			<point x="108" y="-4"/>
			<point x="140" y="-12"/>
		</contour>
	</outline>
	<anchor name="aboveLC" x="238" y="748"/>
	<anchor name="belowLC" x="316" y="-22"/>
</glyph>
<glyph name="aogonek" format="2">
	<unicode hex="0105"/>
	<advance width="560"/>
	<outline>
		<contour>
			<point x="168" y="-12" type="curve" smooth="yes"/>
			<point x="236" y="-12"/>
			<point x="294" y="44"/>
			<point x="368" y="148" type="curve"/>
			<point x="396" y="148" type="line"/>
			<point x="396" y="212" type="line"/>
			<point x="300" y="84"/>
			<point x="244" y="14"/>
			<point x="176" y="14" type="curve" smooth="yes"/>
			<point x="120" y="14"/>
			<point x="90" y="52"/>
			<point x="90" y="140" type="curve" smooth="yes"/>
			<point x="90" y="240"/>
			<point x="136" y="332"/>
			<point x="176" y="380" type="curve" smooth="yes"/>
			<point x="216" y="428"/>
			<point x="276" y="483"/>
			<point x="360" y="483" type="curve" smooth="yes"/>
			<point x="404" y="483"/>
			<point x="432" y="473"/>
			<point x="460" y="453" type="curve"/>
			<point x="460" y="484" type="line"/>
			<point x="444" y="496"/>
			<point x="412" y="508"/>
			<point x="364" y="508" type="curve" smooth="yes"/>
			<point x="200" y="508"/>
			<point x="60" y="316"/>
			<point x="60" y="136" type="curve" smooth="yes"/>
			<point x="60" y="36"/>
			<point x="104" y="-12"/>
		</contour>
		<contour>
			<point x="332" y="-162" type="curve" smooth="yes"/>
			<point x="332" y="-214"/>
			<point x="364" y="-246"/>
			<point x="416" y="-246" type="curve" smooth="yes"/>
			<point x="460" y="-246"/>
			<point x="490" y="-222"/>
			<point x="512" y="-200" type="curve"/>
			<point x="500" y="-184" type="line"/>
			<point x="474" y="-206"/>
			<point x="456" y="-220"/>
			<point x="420" y="-220" type="curve" smooth="yes"/>
			<point x="384" y="-220"/>
			<point x="360" y="-198"/>
			<point x="360" y="-160" type="curve" smooth="yes"/>
			<point x="360" y="-104"/>
			<point x="404" y="-52"/>
			<point x="464" y="0" type="curve" smooth="yes"/>
			<point x="492" y="24"/>
			<point x="516" y="52"/>
			<point x="548" y="92" type="curve"/>
			<point x="530" y="108" type="line"/>
			<point x="476" y="40"/>
			<point x="456" y="16"/>
			<point x="420" y="16" type="curve" smooth="yes"/>
			<point x="396" y="16"/>
			<point x="384" y="28"/>
			<point x="384" y="54" type="curve" smooth="yes"/>
			<point x="384" y="76"/>
			<point x="390" y="102"/>
			<point x="396" y="128" type="curve" smooth="yes"/>
			<point x="484" y="536" type="line"/>
			<point x="464" y="536" type="line"/>
			<point x="446" y="484" type="line"/>
			<point x="444" y="484" type="line"/>
			<point x="372" y="150" type="line"/>
			<point x="380" y="150" type="line"/>
			<point x="364" y="102"/>
			<point x="358" y="76"/>
			<point x="358" y="50" type="curve" smooth="yes"/>
			<point x="358" y="12"/>
			<point x="382" y="-8"/>
			<point x="418" y="-8" type="curve" smooth="yes"/>
			<point x="425" y="-8"/>
			<point x="433" y="-8"/>
			<point x="441" y="-8" type="curve"/>
			<point x="428" y="5" type="line"/>
			<point x="428" y="-16" type="line"/>
			<point x="376" y="-52"/>
			<point x="332" y="-104"/>
		</contour>
	</outline>
	<anchor name="aboveLC" x="350" y="532"/>
	<anchor name="belowLC" x="242" y="-22"/>
</glyph>
<glyph name="dcroat" format="2">
	<unicode hex="0111"/>
	<advance width="560"/>
	<outline>
		<contour>
			<point x="422" y="-10" type="curve" smooth="yes"/>
			<point x="466" y="-10"/>
			<point x="504" y="32"/>
			<point x="552" y="92" type="curve"/>
			<point x="534" y="108" type="line"/>
			<point x="480" y="40"/>
			<point x="456" y="16"/>
			<point x="426" y="16" type="curve" smooth="yes"/>
			<point x="402" y="16"/>
			<point x="390" y="28"/>
			<point x="390" y="54" type="curve" smooth="yes"/>
			<point x="390" y="74"/>
			<point x="396" y="108"/>
			<point x="402" y="136" type="curve" smooth="yes"/>
			<point x="528" y="748" type="line"/>
			<point x="512" y="748" type="line"/>
			<point x="380" y="742" type="line"/>
			<point x="380" y="720" type="line"/>
			<point x="504" y="716" type="line"/>
			<point x="496" y="732" type="line"/>
			<point x="442" y="456" type="line"/>
			<point x="438" y="456" type="line"/>
			<point x="378" y="160" type="line"/>
			<point x="384" y="160" type="line"/>
			<point x="369" y="108"/>
			<point x="364" y="70"/>
			<point x="364" y="50" type="curve" smooth="yes"/>
			<point x="364" y="12"/>
			<point x="386" y="-10"/>
		</contour>
		<contour>
			<point x="169" y="-12" type="curve" smooth="yes"/>
			<point x="237" y="-12"/>
			<point x="294" y="44"/>
			<point x="370" y="152" type="curve"/>
			<point x="396" y="152" type="line"/>
			<point x="396" y="212" type="line"/>
			<point x="300" y="84"/>
			<point x="244" y="14"/>
			<point x="176" y="14" type="curve" smooth="yes"/>
			<point x="120" y="14"/>
			<point x="90" y="52"/>
			<point x="90" y="140" type="curve" smooth="yes"/>
			<point x="90" y="244"/>
			<point x="140" y="336"/>
			<point x="180" y="384" type="curve" smooth="yes"/>
			<point x="220" y="432"/>
			<point x="276" y="471"/>
			<point x="360" y="471" type="curve" smooth="yes"/>
			<point x="400" y="471"/>
			<point x="428" y="461"/>
			<point x="456" y="441" type="curve"/>
			<point x="456" y="480" type="line"/>
			<point x="440" y="488"/>
			<point x="408" y="496"/>
			<point x="364" y="496" type="curve" smooth="yes"/>
			<point x="196" y="496"/>
			<point x="60" y="316"/>
			<point x="60" y="136" type="curve" smooth="yes"/>
			<point x="60" y="36"/>
			<point x="105" y="-12"/>
		</contour>
		<contour>
			<point x="284" y="584" type="line"/>
			<point x="608" y="584" type="line"/>
			<point x="612" y="608" type="line"/>
			<point x="288" y="608" type="line"/>
		</contour>
	</outline>
</glyph>
<glyph name="hbar" format="2">
	<unicode hex="0127"/>
	<advance width="564"/>
	<outline>
		<contour>
			<point x="413" y="-10" type="curve" smooth="yes"/>
			<point x="459" y="-10"/>
			<point x="499" y="32"/>
			<point x="547" y="92" type="curve"/>
			<point x="529" y="108" type="line"/>
			<point x="475" y="40"/>
			<point x="451" y="16"/>
			<point x="419" y="16" type="curve" smooth="yes"/>
			<point x="397" y="16"/>
			<point x="385" y="28"/>
			<point x="385" y="50" type="curve" smooth="yes"/>
			<point x="385" y="70"/>
			<point x="391" y="92"/>
			<point x="397" y="116" type="curve" smooth="yes"/>
			<point x="445" y="316" type="line" smooth="yes"/>
			<point x="457" y="368"/>
			<point x="463" y="400"/>
			<point x="463" y="424" type="curve" smooth="yes"/>
			<point x="463" y="468"/>
			<point x="431" y="496"/>
			<point x="379" y="496" type="curve" smooth="yes"/>
			<point x="319" y="496"/>
			<point x="259" y="464"/>
			<point x="171" y="344" type="curve"/>
			<point x="147" y="344" type="line"/>
			<point x="147" y="296" type="line"/>
			<point x="251" y="416"/>
			<point x="303" y="470"/>
			<point x="371" y="470" type="curve" smooth="yes"/>
			<point x="415" y="470"/>
			<point x="433" y="452"/>
			<point x="433" y="420" type="curve" smooth="yes"/>
			<point x="433" y="400"/>
			<point x="427" y="368"/>
			<point x="415" y="316" type="curve" smooth="yes"/>
			<point x="367" y="116" type="line" smooth="yes"/>
			<point x="361" y="92"/>
			<point x="355" y="68"/>
			<point x="355" y="46" type="curve" smooth="yes"/>
			<point x="355" y="12"/>
			<point x="379" y="-10"/>
		</contour>
		<contour>
			<point x="71" y="-4" type="line"/>
			<point x="92" y="0" type="line"/>
			<point x="106" y="67"/>
			<point x="119" y="134"/>
			<point x="133" y="201" type="curve" smooth="yes"/>
			<point x="159" y="328" type="line"/>
			<point x="155" y="328" type="line"/>
			<point x="245" y="738" type="line"/>
			<point x="229" y="742" type="line"/>
			<point x="99" y="732" type="line"/>
			<point x="95" y="710" type="line"/>
			<point x="221" y="706" type="line"/>
			<point x="213" y="722" type="line"/>
			<point x="198" y="651"/>
			<point x="186" y="591"/>
			<point x="171" y="520" type="curve" smooth="yes"/>
			<point x="63" y="0" type="line"/>
		</contour>
		<contour>
			<point x="60" y="574" type="line"/>
			<point x="384" y="574" type="line"/>
			<point x="390" y="598" type="line"/>
			<point x="66" y="598" type="line"/>
		</contour>
	</outline>
</glyph>
<glyph name="iogonek" format="2">
	<unicode hex="012F"/>
	<advance width="292"/>
	<outline>
		<contour>
			<point x="128" y="-246" type="curve" smooth="yes"/>
			<point x="172" y="-246"/>
			<point x="202" y="-222"/>
			<point x="224" y="-200" type="curve"/>
			<point x="212" y="-184" type="line"/>
			<point x="186" y="-206"/>
			<point x="168" y="-220"/>
			<point x="132" y="-220" type="curve" smooth="yes"/>
			<point x="96" y="-220"/>
			<point x="72" y="-198"/>
			<point x="72" y="-156" type="curve" smooth="yes"/>
			<point x="72" y="-100"/>
			<point x="118" y="-52"/>
			<point x="184" y="4" type="curve" smooth="yes"/>
			<point x="212" y="28"/>
			<point x="232" y="52"/>
			<point x="264" y="92" type="curve"/>
			<point x="246" y="108" type="line"/>
			<point x="192" y="40"/>
			<point x="168" y="16"/>
			<point x="138" y="16" type="curve" smooth="yes"/>
			<point x="114" y="16"/>
			<point x="102" y="28"/>
			<point x="102" y="54" type="curve" smooth="yes"/>
			<point x="102" y="74"/>
			<point x="108" y="108"/>
			<point x="114" y="136" type="curve" smooth="yes"/>
			<point x="192" y="500" type="line"/>
			<point x="176" y="504" type="line"/>
			<point x="46" y="490" type="line"/>
			<point x="42" y="468" type="line"/>
			<point x="168" y="468" type="line"/>
			<point x="160" y="488" type="line"/>
			<point x="84" y="132" type="line" smooth="yes"/>
			<point x="78" y="104"/>
			<point x="72" y="70"/>
			<point x="72" y="50" type="curve" smooth="yes"/>
			<point x="72" y="12"/>
			<point x="96" y="-8"/>
			<point x="128" y="-8" type="curve" smooth="yes"/>
			<point x="140" y="-8"/>
			<point x="146" y="-6"/>
			<point x="148" y="-5" type="curve"/>
			<point x="148" y="-10" type="line"/>
			<point x="96" y="-52"/>
			<point x="44" y="-100"/>
			<point x="44" y="-160" type="curve" smooth="yes"/>
			<point x="44" y="-214"/>
			<point x="76" y="-246"/>
		</contour>
		<contour>
			<point x="208" y="660" type="curve" smooth="yes"/>
			<point x="229" y="660"/>
			<point x="245" y="676"/>
			<point x="245" y="698" type="curve" smooth="yes"/>
			<point x="245" y="715"/>
			<point x="233" y="728"/>
			<point x="214" y="728" type="curve" smooth="yes"/>
			<point x="193" y="728"/>
			<point x="177" y="712"/>
			<point x="177" y="690" type="curve" smooth="yes"/>
			<point x="177" y="673"/>
			<point x="189" y="660"/>
		</contour>
	</outline>
</glyph>
<glyph name="dotlessi" format="2">
	<unicode hex="0131"/>
	<advance width="292"/>
	<outline>
		<contour>
			<point x="72" y="50" type="curve" smooth="yes"/>
			<point x="72" y="12"/>
			<point x="96" y="-10"/>
			<point x="132" y="-10" type="curve" smooth="yes"/>
			<point x="176" y="-10"/>
			<point x="216" y="32"/>
			<point x="264" y="92" type="curve"/>
			<point x="246" y="108" type="line"/>
			<point x="192" y="40"/>
			<point x="168" y="16"/>
			<point x="138" y="16" type="curve" smooth="yes"/>
			<point x="114" y="16"/>
			<point x="102" y="28"/>
			<point x="102" y="54" type="curve" smooth="yes"/>
			<point x="102" y="74"/>
			<point x="108" y="108"/>
			<point x="114" y="136" type="curve" smooth="yes"/>
			<point x="192" y="500" type="line"/>
			<point x="176" y="500" type="line"/>
			<point x="44" y="490" type="line"/>
			<point x="44" y="468" type="line"/>
			<point x="168" y="468" type="line"/>
			<point x="160" y="488" type="line"/>
			<point x="84" y="132" type="line" smooth="yes"/>
			<point x="78" y="104"/>
			<point x="72" y="70"/>
		</contour>
	</outline>
	<anchor name="aboveLC" x="183" y="500"/>
	<anchor name="belowLC" x="149" y="-22"/>
	<anchor name="ogonek" x="181" y="0"/>
</glyph>
<glyph name="kgreenlandic" format="2">
	<unicode hex="0138"/>
	<advance width="488"/>
	<outline>
		<contour>
			<point x="68" y="-4" type="line"/>
			<point x="89" y="0" type="line"/>
			<point x="103" y="69"/>
			<point x="118" y="139"/>
			<point x="132" y="208" type="curve" smooth="yes"/>
			<point x="166" y="372" type="line"/>
			<point x="192" y="500" type="line"/>
			<point x="176" y="500" type="line"/>
			<point x="48" y="490" type="line"/>
			<point x="48" y="468" type="line"/>
			<point x="172" y="468" type="line"/>
			<point x="160" y="482" type="line"/>
			<point x="60" y="0" type="line"/>
		</contour>
		<contour>
			<point x="416" y="-4" type="curve" smooth="yes"/>
			<point x="432" y="-4"/>
			<point x="442" y="-2"/>
			<point x="452" y="0" type="curve"/>
			<point x="456" y="18" type="line"/>
			<point x="424" y="20" type="line" smooth="yes"/>
			<point x="384" y="22"/>
			<point x="357" y="39"/>
			<point x="336" y="80" type="curve" smooth="yes"/>
			<point x="296" y="160" type="line" smooth="yes"/>
			<point x="262" y="228"/>
			<point x="216" y="250"/>
			<point x="168" y="260" type="curve" smooth="yes"/>
			<point x="148" y="264" type="line"/>
			<point x="148" y="272" type="line"/>
			<point x="422" y="444" type="line" smooth="yes"/>
			<point x="459" y="467"/>
			<point x="468" y="474"/>
			<point x="468" y="488" type="curve" smooth="yes"/>
			<point x="468" y="498"/>
			<point x="460" y="502"/>
			<point x="454" y="504" type="curve"/>
			<point x="132" y="282" type="line"/>
			<point x="132" y="248" type="line"/>
			<point x="158" y="242" type="line" smooth="yes"/>
			<point x="207" y="231"/>
			<point x="245" y="208"/>
			<point x="276" y="140" type="curve" smooth="yes"/>
			<point x="306" y="74" type="line" smooth="yes"/>
			<point x="332" y="18"/>
			<point x="368" y="-4"/>
		</contour>
	</outline>
</glyph>
<glyph name="Lslash" format="2">
	<unicode hex="0141"/>
	<advance width="584"/>
	<outline>
		<contour>
			<point x="445" y="458" type="line"/>
			<point x="204" y="326" type="line"/>
			<point x="204" y="300" type="line"/>
			<point x="437" y="424" type="line"/>
		</contour>
		<contour>
			<point x="200" y="332" type="line"/>
			<point x="66" y="264" type="line"/>
			<point x="60" y="230" type="line"/>
			<point x="200" y="304" type="line"/>
		</contour>
		<component base="L"/>
	</outline>
</glyph>
<glyph name="lslash" format="2">
	<unicode hex="0142"/>
	<advance width="280"/>
	<outline>
		<contour>
			<point x="142" y="398" type="line"/>
			<point x="12" y="330" type="line"/>
			<point x="8" y="307" type="line"/>
			<point x="137" y="373" type="line"/>
		</contour>
		<contour>
			<point x="287" y="469" type="line"/>
			<point x="162" y="403" type="line"/>
			<point x="157" y="380" type="line"/>
			<point x="282" y="444" type="line"/>
		</contour>
		<component base="l"/>
	</outline>
</glyph>
<glyph name="OE" format="2">
	<unicode hex="0152"/>
	<advance width="916"/>
	<outline>
		<contour>
			<point x="444" y="38" type="line"/>
			<point x="408" y="22"/>
			<point x="368" y="12"/>
			<point x="324" y="12" type="curve" smooth="yes"/>
			<point x="180" y="12"/>
			<point x="109" y="116"/>
			<point x="109" y="268" type="curve" smooth="yes"/>
			<point x="109" y="480"/>
			<point x="244" y="664"/>
			<point x="420" y="664" type="curve" smooth="yes"/>
			<point x="480" y="664"/>
			<point x="524" y="656"/>
			<point x="560" y="640" type="curve"/>
			<point x="560" y="672" type="line"/>
			<point x="524" y="684"/>
			<point x="480" y="692"/>
			<point x="424" y="692" type="curve" smooth="yes"/>
			<point x="224" y="692"/>
			<point x="76" y="500"/>
			<point x="76" y="264" type="curve" smooth="yes"/>
			<point x="76" y="96"/>
			<point x="160" y="-16"/>
			<point x="320" y="-16" type="curve" smooth="yes"/>
			<point x="368" y="-16"/>
			<point x="408" y="-8"/>
			<point x="444" y="8" type="curve"/>
		</contour>
		<contour>
			<point x="422" y="0" type="line"/>
			<point x="456" y="0" type="line"/>
			<point x="512" y="312" type="line"/>
			<point x="578" y="676" type="line"/>
			<point x="544" y="676" type="line"/>
			<point x="488" y="364" type="line"/>
		</contour>
		<contour>
			<point x="452" y="0" type="line"/>
			<point x="792" y="0" type="line"/>
			<point x="832" y="168" type="line"/>
			<point x="804" y="168" type="line"/>
			<point x="758" y="12" type="line"/>
			<point x="772" y="28" type="line"/>
			<point x="452" y="28" type="line"/>
		</contour>
		<contour>
			<point x="500" y="328" type="line"/>
			<point x="720" y="328" type="line"/>
			<point x="720" y="356" type="line"/>
			<point x="500" y="356" type="line"/>
		</contour>
		<contour>
			<point x="564" y="648" type="line"/>
			<point x="866" y="648" type="line"/>
			<point x="846" y="664" type="line"/>
			<point x="838" y="516" type="line"/>
			<point x="866" y="516" type="line"/>
			<point x="884" y="676" type="line"/>
			<point x="564" y="676" type="line"/>
		</contour>
		<contour>
			<point x="694" y="232" type="line"/>
			<point x="720" y="232" type="line"/>
			<point x="760" y="456" type="line"/>
			<point x="734" y="456" type="line"/>
			<point x="706" y="352" type="line"/>
			<point x="702" y="332" type="line"/>
		</contour>
	</outline>
	<anchor name="aboveUC" x="558" y="682"/>
</glyph>
<glyph name="oe" format="2">
	<unicode hex="0153"/>
	<advance width="793"/>
	<outline>
		<contour>
			<point x="210" y="-13" type="curve" smooth="yes"/>
			<point x="300" y="-13"/>
			<point x="378" y="60"/>
			<point x="421" y="160" type="curve"/>
			<point x="450" y="300" type="line"/>
			<point x="450" y="431"/>
			<point x="384" y="483"/>
			<point x="306" y="483" type="curve" smooth="yes"/>
			<point x="168" y="483"/>
			<point x="64" y="311"/>
			<point x="64" y="157" type="curve" smooth="yes"/>
			<point x="64" y="31"/>
			<point x="142" y="-13"/>
		</contour>
		<contour>
			<point x="213" y="7" type="curve" smooth="yes"/>
			<point x="145" y="7"/>
			<point x="91" y="55"/>
			<point x="91" y="162" type="curve" smooth="yes"/>
			<point x="91" y="296"/>
			<point x="180" y="463"/>
			<point x="305" y="463" type="curve" smooth="yes"/>
			<point x="377" y="463"/>
			<point x="426" y="414"/>
			<point x="426" y="302" type="curve" smooth="yes"/>
			<point x="426" y="167"/>
			<point x="331" y="7"/>
		</contour>
		<component base="e" xOffset="341"/>
	</outline>
	<anchor name="aboveLC" x="473" y="500"/>
</glyph>
<glyph name="Uogonek" format="2">
	<unicode hex="0172"/>
	<advance width="772"/>
	<outline>
		<contour>
			<point x="158" y="160" type="curve" smooth="yes"/>
			<point x="158" y="44"/>
			<point x="240" y="-12"/>
			<point x="356" y="-12" type="curve" smooth="yes"/>
			<point x="390" y="-12"/>
			<point x="418" y="-6"/>
			<point x="436" y="0" type="curve"/>
			<point x="436" y="-12" type="line"/>
			<point x="384" y="-44"/>
			<point x="332" y="-100"/>
			<point x="332" y="-162" type="curve" smooth="yes"/>
			<point x="332" y="-214"/>
			<point x="364" y="-246"/>
			<point x="416" y="-246" type="curve" smooth="yes"/>
			<point x="460" y="-246"/>
			<point x="490" y="-222"/>
			<point x="512" y="-200" type="curve"/>
			<point x="500" y="-184" type="line"/>
			<point x="474" y="-206"/>
			<point x="456" y="-220"/>
			<point x="420" y="-220" type="curve" smooth="yes"/>
			<point x="384" y="-220"/>
			<point x="360" y="-198"/>
			<point x="360" y="-160" type="curve" smooth="yes"/>
			<point x="360" y="-100"/>
			<point x="408" y="-44"/>
			<point x="476" y="4" type="curve" smooth="yes"/>
			<point x="544" y="52"/>
			<point x="600" y="108"/>
			<point x="630" y="276" type="curve" smooth="yes"/>
			<point x="702" y="676" type="line"/>
			<point x="670" y="676" type="line"/>
			<point x="598" y="276" type="line" smooth="yes"/>
			<point x="560" y="64"/>
			<point x="460" y="14"/>
			<point x="360" y="14" type="curve" smooth="yes"/>
			<point x="260" y="14"/>
			<point x="192" y="64"/>
			<point x="192" y="160" type="curve" smooth="yes"/>
			<point x="192" y="192"/>
			<point x="198" y="232"/>
			<point x="206" y="276" type="curve" smooth="yes"/>
			<point x="278" y="676" type="line"/>
			<point x="244" y="676" type="line"/>
			<point x="188" y="364" type="line"/>
			<point x="172" y="276" type="line" smooth="yes"/>
			<point x="164" y="232"/>
			<point x="158" y="192"/>
		</contour>
		<contour>
			<point x="128" y="648" type="line"/>
			<point x="248" y="648" type="line"/>
			<point x="264" y="648" type="line"/>
			<point x="382" y="648" type="line"/>
			<point x="388" y="676" type="line"/>
			<point x="134" y="676" type="line"/>
		</contour>
		<contour>
			<point x="552" y="648" type="line"/>
			<point x="676" y="648" type="line"/>
			<point x="688" y="648" type="line"/>
			<point x="802" y="648" type="line"/>
			<point x="808" y="676" type="line"/>
			<point x="558" y="676" type="line"/>
		</contour>
	</outline>
	<anchor name="aboveUC" x="453" y="682"/>
	<anchor name="belowLC" x="327" y="-22"/>
	<anchor name="hornLC" x="689" y="720"/>
</glyph>
<glyph name="uogonek" format="2">
	<unicode hex="0173"/>
	<advance width="580"/>
	<outline>
		<contour>
			<point x="170" y="-10" type="curve" smooth="yes"/>
			<point x="228" y="-10"/>
			<point x="288" y="22"/>
			<point x="376" y="142" type="curve"/>
			<point x="400" y="142" type="line"/>
			<point x="400" y="190" type="line"/>
			<point x="296" y="70"/>
			<point x="244" y="16"/>
			<point x="176" y="16" type="curve" smooth="yes"/>
			<point x="136" y="16"/>
			<point x="114" y="36"/>
			<point x="114" y="72" type="curve" smooth="yes"/>
			<point x="114" y="94"/>
			<point x="120" y="122"/>
			<point x="132" y="170" type="curve" smooth="yes"/>
			<point x="212" y="500" type="line"/>
			<point x="196" y="504" type="line"/>
			<point x="66" y="494" type="line"/>
			<point x="62" y="472" type="line"/>
			<point x="192" y="466" type="line"/>
			<point x="180" y="492" type="line"/>
			<point x="102" y="170" type="line" smooth="yes"/>
			<point x="90" y="122"/>
			<point x="84" y="94"/>
			<point x="84" y="68" type="curve" smooth="yes"/>
			<point x="84" y="20"/>
			<point x="120" y="-10"/>
		</contour>
		<contour>
			<point x="346" y="-162" type="curve" smooth="yes"/>
			<point x="346" y="-214"/>
			<point x="378" y="-246"/>
			<point x="430" y="-246" type="curve" smooth="yes"/>
			<point x="474" y="-246"/>
			<point x="504" y="-222"/>
			<point x="526" y="-200" type="curve"/>
			<point x="514" y="-184" type="line"/>
			<point x="488" y="-206"/>
			<point x="470" y="-220"/>
			<point x="434" y="-220" type="curve" smooth="yes"/>
			<point x="398" y="-220"/>
			<point x="374" y="-198"/>
			<point x="374" y="-160" type="curve" smooth="yes"/>
			<point x="374" y="-104"/>
			<point x="418" y="-52"/>
			<point x="478" y="0" type="curve" smooth="yes"/>
			<point x="506" y="24"/>
			<point x="530" y="52"/>
			<point x="562" y="92" type="curve"/>
			<point x="544" y="108" type="line"/>
			<point x="490" y="40"/>
			<point x="470" y="16"/>
			<point x="434" y="16" type="curve" smooth="yes"/>
			<point x="410" y="16"/>
			<point x="398" y="28"/>
			<point x="398" y="52" type="curve" smooth="yes"/>
			<point x="398" y="74"/>
			<point x="404" y="96"/>
			<point x="408" y="116" type="curve" smooth="yes"/>
			<point x="492" y="502" type="line"/>
			<point x="484" y="506" type="line"/>
			<point x="462" y="502" type="line"/>
			<point x="446" y="427"/>
			<point x="430" y="353"/>
			<point x="414" y="278" type="curve" smooth="yes"/>
			<point x="386" y="146" type="line"/>
			<point x="390" y="146" type="line"/>
			<point x="380" y="104"/>
			<point x="372" y="74"/>
			<point x="372" y="48" type="curve" smooth="yes"/>
			<point x="372" y="12"/>
			<point x="396" y="-8"/>
			<point x="432" y="-8" type="curve" smooth="yes"/>
			<point x="440" y="-8"/>
			<point x="447" y="-8"/>
			<point x="455" y="-8" type="curve"/>
			<point x="434" y="0" type="line"/>
			<point x="442" y="-16" type="line"/>
			<point x="390" y="-52"/>
			<point x="346" y="-104"/>
		</contour>
	</outline>
	<anchor name="aboveLC" x="334" y="520"/>
	<anchor name="belowLC" x="303" y="-20"/>
</glyph>
<glyph name="longs" format="2">
	<unicode hex="017F"/>
	<advance width="336"/>
	<outline>
		<contour>
			<point x="-75" y="-252" type="curve" smooth="yes"/>
			<point x="-4" y="-252"/>
			<point x="36" y="-204"/>
			<point x="58" y="-170" type="curve" smooth="yes"/>
			<point x="80" y="-136"/>
			<point x="106" y="-72"/>
			<point x="122" y="32" type="curve" smooth="yes"/>
			<point x="145" y="181"/>
			<point x="167" y="331"/>
			<point x="190" y="480" type="curve" smooth="yes"/>
			<point x="216" y="652"/>
			<point x="264" y="717"/>
			<point x="366" y="735" type="curve"/>
			<point x="318" y="730" type="line"/>
			<point x="382" y="730" type="line"/>
			<point x="368" y="735" type="line"/>
			<point x="382" y="718" type="line" smooth="yes"/>
			<point x="406" y="689"/>
			<point x="422" y="676"/>
			<point x="440" y="676" type="curve" smooth="yes"/>
			<point x="451" y="676"/>
			<point x="460" y="682"/>
			<point x="462" y="692" type="curve"/>
			<point x="459" y="713"/>
			<point x="420" y="750"/>
			<point x="370" y="750" type="curve" smooth="yes"/>
			<point x="258" y="750"/>
			<point x="188" y="668"/>
			<point x="160" y="484" type="curve" smooth="yes"/>
			<point x="137" y="335"/>
			<point x="115" y="185"/>
			<point x="92" y="36" type="curve" smooth="yes"/>
			<point x="78" y="-56"/>
			<point x="60" y="-112"/>
			<point x="36" y="-156" type="curve" smooth="yes"/>
			<point x="12" y="-200"/>
			<point x="-10" y="-218"/>
			<point x="-53" y="-236" type="curve"/>
			<point x="-34" y="-232" type="line"/>
			<point x="-80" y="-232" type="line"/>
			<point x="-63" y="-236" type="line"/>
			<point x="-72" y="-226" type="line" smooth="yes"/>
			<point x="-93" y="-203"/>
			<point x="-113" y="-183"/>
			<point x="-133" y="-183" type="curve" smooth="yes"/>
			<point x="-147" y="-183"/>
			<point x="-155" y="-190"/>
			<point x="-157" y="-205" type="curve"/>
			<point x="-153" y="-227"/>
			<point x="-122" y="-252"/>
		</contour>
	</outline>
</glyph>
<glyph name="Schwa" format="2">
	<unicode hex="018F"/>
	<advance width="664"/>
	<outline>
		<contour>
			<point x="284" y="-16" type="curve" smooth="yes"/>
			<point x="448.521875" y="-16"/>
			<point x="611" y="159"/>
			<point x="611" y="419" type="curve" smooth="yes"/>
			<point x="611" y="602"/>
			<point x="525" y="692"/>
			<point x="370" y="692" type="curve" smooth="yes"/>
			<point x="285" y="692"/>
			<point x="214" y="649"/>
			<point x="154" y="589" type="curve"/>
			<point x="170" y="569" type="line"/>
			<point x="230" y="625"/>
			<point x="293" y="664"/>
			<point x="366" y="664" type="curve" smooth="yes"/>
			<point x="503" y="664"/>
			<point x="579" y="580"/>
			<point x="579" y="415" type="curve" smooth="yes"/>
			<point x="579" y="179"/>
			<point x="432.4753521127" y="12"/>
			<point x="288" y="12" type="curve" smooth="yes"/>
			<point x="154.8542713568" y="12"/>
			<point x="96" y="104"/>
			<point x="96" y="220" type="curve" smooth="yes"/>
			<point x="96" y="268"/>
			<point x="104" y="308"/>
			<point x="114" y="334" type="curve"/>
			<point x="588" y="334" type="line"/>
			<point x="588" y="360" type="line"/>
			<point x="88" y="360" type="line"/>
			<point x="72" y="316"/>
			<point x="64" y="268"/>
			<point x="64" y="220" type="curve" smooth="yes"/>
			<point x="64" y="84"/>
			<point x="134.7488986784" y="-16"/>
		</contour>
	</outline>
	<anchor name="aboveUC" x="362" y="696"/>
	<anchor name="belowLC" x="274" y="-20"/>
</glyph>
<glyph name="florin" format="2">
	<unicode hex="0192"/>
	<advance width="532"/>
	<outline>
		<contour>
			<point x="160" y="362" type="line"/>
			<point x="448" y="362" type="line"/>
			<point x="452" y="388" type="line"/>
			<point x="164" y="388" type="line"/>
		</contour>
		<contour>
			<point x="248" y="204" type="line" smooth="yes"/>
			<point x="220" y="64"/>
			<point x="200" y="12"/>
			<point x="176" y="-20" type="curve" smooth="yes"/>
			<point x="152" y="-52"/>
			<point x="128" y="-68"/>
			<point x="96" y="-80" type="curve"/>
			<point x="56" y="-80" type="line"/>
			<point x="94" y="-88" type="line"/>
			<point x="68" y="-64" type="line" smooth="yes"/>
			<point x="52" y="-50"/>
			<point x="38" y="-40"/>
			<point x="20" y="-40" type="curve" smooth="yes"/>
			<point x="-2" y="-40"/>
			<point x="-12" y="-52"/>
			<point x="-16" y="-68" type="curve"/>
			<point x="-8" y="-82"/>
			<point x="16" y="-96"/>
			<point x="64" y="-96" type="curve" smooth="yes"/>
			<point x="136" y="-96"/>
			<point x="178" y="-62"/>
			<point x="202" y="-30" type="curve" smooth="yes"/>
			<point x="226" y="2"/>
			<point x="250" y="56"/>
			<point x="280" y="204" type="curve" smooth="yes"/>
			<point x="312" y="364" type="line" smooth="yes"/>
			<point x="340" y="504"/>
			<point x="360" y="556"/>
			<point x="384" y="588" type="curve" smooth="yes"/>
			<point x="408" y="620"/>
			<point x="432" y="636"/>
			<point x="464" y="648" type="curve"/>
			<point x="504" y="648" type="line"/>
			<point x="466" y="656" type="line"/>
			<point x="492" y="632" type="line" smooth="yes"/>
			<point x="508" y="618"/>
			<point x="522" y="608"/>
			<point x="540" y="608" type="curve" smooth="yes"/>
			<point x="562" y="608"/>
			<point x="572" y="620"/>
			<point x="576" y="636" type="curve"/>
			<point x="568" y="650"/>
			<point x="544" y="664"/>
			<point x="496" y="664" type="curve" smooth="yes"/>
			<point x="424" y="664"/>
			<point x="382" y="630"/>
			<point x="358" y="598" type="curve" smooth="yes"/>
			<point x="334" y="566"/>
			<point x="310" y="512"/>
			<point x="280" y="364" type="curve" smooth="yes"/>
		</contour>
	</outline>
</glyph>
<glyph name="Uhorn" format="2">
	<unicode hex="01AF"/>
	<advance width="748"/>
	<outline>
		<contour>
			<point x="148" y="160" type="curve" smooth="yes"/>
			<point x="148" y="44"/>
			<point x="230" y="-16"/>
			<point x="346" y="-16" type="curve" smooth="yes"/>
			<point x="470" y="-16"/>
			<point x="578" y="44"/>
			<point x="620" y="276" type="curve" smooth="yes"/>
			<point x="692" y="676" type="line"/>
			<point x="660" y="676" type="line"/>
			<point x="588" y="276" type="line" smooth="yes"/>
			<point x="550" y="64"/>
			<point x="450" y="12"/>
			<point x="350" y="12" type="curve" smooth="yes"/>
			<point x="250" y="12"/>
			<point x="182" y="64"/>
			<point x="182" y="160" type="curve" smooth="yes"/>
			<point x="182" y="192"/>
			<point x="188" y="232"/>
			<point x="196" y="276" type="curve" smooth="yes"/>
			<point x="268" y="676" type="line"/>
			<point x="234" y="676" type="line"/>
			<point x="215" y="572"/>
			<point x="197" y="468"/>
			<point x="178" y="364" type="curve" smooth="yes"/>
			<point x="162" y="276" type="line" smooth="yes"/>
			<point x="154" y="232"/>
			<point x="148" y="192"/>
		</contour>
		<contour>
			<point x="682" y="648" type="line"/>
			<point x="774" y="652"/>
			<point x="806" y="676"/>
			<point x="806" y="747" type="curve"/>
			<point x="806" y="769"/>
			<point x="803" y="792"/>
			<point x="798" y="804" type="curve"/>
			<point x="795" y="806"/>
			<point x="790" y="808"/>
			<point x="782" y="808" type="curve"/>
			<point x="768" y="808"/>
			<point x="758" y="800"/>
			<point x="758" y="784" type="curve" smooth="yes"/>
			<point x="758" y="766"/>
			<point x="774" y="746"/>
			<point x="774" y="722" type="curve" smooth="yes"/>
			<point x="774" y="696"/>
			<point x="754" y="676"/>
			<point x="682" y="676" type="curve"/>
		</contour>
		<contour>
			<point x="118" y="648" type="line"/>
			<point x="238" y="648" type="line"/>
			<point x="254" y="648" type="line"/>
			<point x="372" y="648" type="line"/>
			<point x="378" y="676" type="line"/>
			<point x="124" y="676" type="line"/>
		</contour>
		<contour>
			<point x="542" y="648" type="line"/>
			<point x="666" y="648" type="line"/>
			<point x="674" y="648" type="line"/>
			<point x="674" y="676" type="line"/>
			<point x="548" y="676" type="line"/>
		</contour>
	</outline>
	<anchor name="aboveUC" x="452" y="696"/>
	<anchor name="belowLC" x="334" y="-20"/>
</glyph>
<glyph name="dotlessj" format="2">
	<unicode hex="0237"/>
	<advance width="256"/>
	<outline>
		<contour>
			<point x="-76" y="-252" type="line"/>
			<point x="3" y="-225"/>
			<point x="28" y="-194"/>
			<point x="48" y="-168" type="curve" smooth="yes"/>
			<point x="68" y="-142"/>
			<point x="96" y="-92"/>
			<point x="120" y="34" type="curve" smooth="yes"/>
			<point x="208" y="500" type="line"/>
			<point x="192" y="505" type="line"/>
			<point x="62" y="490" type="line"/>
			<point x="58" y="468" type="line"/>
			<point x="184" y="468" type="line"/>
			<point x="178" y="492" type="line"/>
			<point x="92" y="36" type="line" smooth="yes"/>
			<point x="72" y="-72"/>
			<point x="48" y="-120"/>
			<point x="28" y="-148" type="curve" smooth="yes"/>
			<point x="8" y="-176"/>
			<point x="-12" y="-209"/>
			<point x="-84" y="-232" type="curve"/>
		</contour>
	</outline>
	<anchor name="aboveLC" x="195" y="520"/>
</glyph>
<glyph name="schwa" format="2">
	<unicode hex="0259"/>
	<advance width="452"/>
	<outline>
		<contour>
			<point x="134" y="-12" type="curve" smooth="yes"/>
			<point x="276" y="-12"/>
			<point x="404" y="156"/>
			<point x="404" y="324" type="curve" smooth="yes"/>
			<point x="404" y="450"/>
			<point x="338" y="512"/>
			<point x="244" y="512" type="curve" smooth="yes"/>
			<point x="164" y="512"/>
			<point x="108" y="460"/>
			<point x="72" y="404" type="curve"/>
			<point x="90" y="390" type="line"/>
			<point x="132" y="444"/>
			<point x="172" y="485"/>
			<point x="238" y="485" type="curve" smooth="yes"/>
			<point x="320" y="485"/>
			<point x="374" y="432"/>
			<point x="374" y="320" type="curve" smooth="yes"/>
			<point x="374" y="172"/>
			<point x="260" y="14"/>
			<point x="138" y="14" type="curve" smooth="yes"/>
			<point x="92" y="14"/>
			<point x="66" y="34"/>
			<point x="66" y="74" type="curve" smooth="yes"/>
			<point x="66" y="168"/>
			<point x="176" y="244"/>
			<point x="388" y="290" type="curve"/>
			<point x="388" y="312" type="line"/>
			<point x="160" y="268"/>
			<point x="36" y="184"/>
			<point x="36" y="72" type="curve" smooth="yes"/>
			<point x="36" y="18"/>
			<point x="76" y="-12"/>
		</contour>
	</outline>
	<anchor name="aboveLC" x="253" y="532"/>
	<anchor name="belowLC" x="114" y="-22"/>
</glyph>
<glyph name="gscript" format="2">
	<unicode hex="0261"/>
	<advance width="532"/>
	<outline>
		<contour>
			<point x="164" y="-252" type="curve" smooth="yes"/>
			<point x="228" y="-252"/>
			<point x="280" y="-232"/>
			<point x="312" y="-200" type="curve" smooth="yes"/>
			<point x="352" y="-160"/>
			<point x="380" y="-84"/>
			<point x="408" y="184" type="curve"/>
			<point x="451" y="383" type="line"/>
			<point x="484" y="536" type="line"/>
			<point x="464" y="536" type="line"/>
			<point x="446" y="484" type="line"/>
			<point x="444" y="484" type="line"/>
			<point x="372" y="150" type="line"/>
			<point x="380" y="150" type="line"/>
			<point x="348" y="-76"/>
			<point x="332" y="-140"/>
			<point x="292" y="-180" type="curve" smooth="yes"/>
			<point x="260" y="-212"/>
			<point x="220" y="-228"/>
			<point x="160" y="-228" type="curve" smooth="yes"/>
			<point x="116" y="-228"/>
			<point x="87" y="-222"/>
			<point x="60" y="-212" type="curve"/>
			<point x="76" y="-220" type="line"/>
			<point x="66" y="-154" type="line" smooth="yes"/>
			<point x="62" y="-130"/>
			<point x="52" y="-120"/>
			<point x="36" y="-120" type="curve" smooth="yes"/>
			<point x="20" y="-120"/>
			<point x="12" y="-130"/>
			<point x="8" y="-144" type="curve"/>
			<point x="24" y="-212"/>
			<point x="76" y="-252"/>
		</contour>
		<contour>
			<point x="168" y="-12" type="curve" smooth="yes"/>
			<point x="236" y="-12"/>
			<point x="294" y="44"/>
			<point x="368" y="148" type="curve"/>
			<point x="396" y="148" type="line"/>
			<point x="396" y="212" type="line"/>
			<point x="300" y="84"/>
			<point x="244" y="14"/>
			<point x="176" y="14" type="curve" smooth="yes"/>
			<point x="120" y="14"/>
			<point x="90" y="52"/>
			<point x="90" y="140" type="curve" smooth="yes"/>
			<point x="90" y="240"/>
			<point x="136" y="332"/>
			<point x="176" y="380" type="curve" smooth="yes"/>
			<point x="216" y="428"/>
			<point x="276" y="483"/>
			<point x="360" y="483" type="curve" smooth="yes"/>
			<point x="404" y="483"/>
			<point x="432" y="473"/>
			<point x="460" y="453" type="curve"/>
			<point x="460" y="484" type="line"/>
			<point x="444" y="496"/>
			<point x="412" y="508"/>
			<point x="364" y="508" type="curve" smooth="yes"/>
			<point x="200" y="508"/>
			<point x="60" y="316"/>
			<point x="60" y="136" type="curve" smooth="yes"/>
			<point x="60" y="36"/>
			<point x="104" y="-12"/>
		</contour>
	</outline>
	<anchor name="aboveLC" x="370" y="532"/>
	<anchor name="belowLC" x="166" y="-240"/>
</glyph>
<glyph name="h.sups" format="2">
	<unicode hex="02B0"/>
	<advance width="387"/>
	<outline>
		<contour>
			<point x="140" y="409" type="line"/>
			<point x="162" y="412" type="line"/>
			<point x="208" y="636" type="line"/>
			<point x="205" y="636" type="line"/>
			<point x="261" y="892" type="line"/>
			<point x="246" y="896" type="line"/>
			<point x="154" y="884" type="line"/>
			<point x="151" y="865" type="line"/>
			<point x="236" y="859" type="line"/>
			<point x="227" y="875" type="line"/>
			<point x="130" y="412" type="line"/>
		</contour>
		<contour>
			<point x="369" y="405" type="curve" smooth="yes"/>
			<point x="403" y="405"/>
			<point x="431" y="435"/>
			<point x="460" y="476" type="curve"/>
			<point x="444" y="488" type="line"/>
			<point x="412" y="445"/>
			<point x="398" y="431"/>
			<point x="378" y="431" type="curve" smooth="yes"/>
			<point x="349" y="431"/>
			<point x="356" y="457"/>
			<point x="366" y="498" type="curve" smooth="yes"/>
			<point x="398" y="629" type="line" smooth="yes"/>
			<point x="405" y="658"/>
			<point x="409" y="681"/>
			<point x="409" y="697" type="curve" smooth="yes"/>
			<point x="409" y="728"/>
			<point x="387" y="748"/>
			<point x="350" y="748" type="curve" smooth="yes"/>
			<point x="307" y="748"/>
			<point x="270" y="721"/>
			<point x="219" y="649" type="curve"/>
			<point x="200" y="649" type="line"/>
			<point x="200" y="615" type="line"/>
			<point x="265" y="688"/>
			<point x="297" y="720"/>
			<point x="338" y="720" type="curve" smooth="yes"/>
			<point x="364" y="720"/>
			<point x="376" y="709"/>
			<point x="376" y="689" type="curve" smooth="yes"/>
			<point x="376" y="674"/>
			<point x="371" y="653"/>
			<point x="364" y="624" type="curve" smooth="yes"/>
			<point x="334" y="496" type="line" smooth="yes"/>
			<point x="329" y="479"/>
			<point x="325" y="461"/>
			<point x="325" y="446" type="curve" smooth="yes"/>
			<point x="325" y="422"/>
			<point x="342" y="405"/>
		</contour>
	</outline>
</glyph>
<glyph name="j.sups" format="2">
	<unicode hex="02B2"/>
	<advance width="173"/>
	<outline>
		<contour>
			<point x="230" y="856" type="curve" smooth="yes"/>
			<point x="247" y="856"/>
			<point x="259" y="870"/>
			<point x="259" y="887" type="curve" smooth="yes"/>
			<point x="259" y="902"/>
			<point x="250" y="912"/>
			<point x="236" y="912" type="curve" smooth="yes"/>
			<point x="219" y="912"/>
			<point x="207" y="898"/>
			<point x="207" y="881" type="curve" smooth="yes"/>
			<point x="207" y="866"/>
			<point x="216" y="856"/>
		</contour>
		<contour>
			<point x="34" y="270" type="line"/>
			<point x="83" y="286"/>
			<point x="104" y="305"/>
			<point x="119" y="323" type="curve" smooth="yes"/>
			<point x="134" y="341"/>
			<point x="153" y="371"/>
			<point x="169" y="454" type="curve" smooth="yes"/>
			<point x="226" y="757" type="line"/>
			<point x="212" y="757" type="line"/>
			<point x="116" y="743" type="line"/>
			<point x="116" y="723" type="line"/>
			<point x="201" y="723" type="line"/>
			<point x="197" y="744" type="line"/>
			<point x="143" y="457" type="line" smooth="yes"/>
			<point x="129" y="382"/>
			<point x="112" y="352"/>
			<point x="99" y="335" type="curve" smooth="yes"/>
			<point x="85" y="318"/>
			<point x="69" y="300"/>
			<point x="26" y="288" type="curve"/>
		</contour>
	</outline>
</glyph>
<glyph name="r.sups" format="2">
	<unicode hex="02B3"/>
	<advance width="296"/>
	<outline>
		<contour>
			<point x="189" y="571" type="line"/>
			<point x="233" y="665"/>
			<point x="267" y="721"/>
			<point x="290" y="737" type="curve"/>
			<point x="317" y="737" type="line"/>
			<point x="290" y="743" type="line"/>
			<point x="315" y="724"/>
			<point x="322" y="719"/>
			<point x="336" y="719" type="curve" smooth="yes"/>
			<point x="353" y="719"/>
			<point x="363" y="730"/>
			<point x="365" y="743" type="curve"/>
			<point x="360" y="754"/>
			<point x="347" y="764"/>
			<point x="320" y="764" type="curve" smooth="yes"/>
			<point x="266" y="764"/>
			<point x="241" y="712"/>
			<point x="207" y="632" type="curve"/>
			<point x="192" y="632" type="line"/>
		</contour>
		<contour>
			<point x="129" y="430" type="line"/>
			<point x="139" y="427" type="line"/>
			<point x="161" y="430" type="line"/>
			<point x="203" y="629" type="line"/>
			<point x="196" y="629" type="line"/>
			<point x="226" y="758" type="line"/>
			<point x="213" y="762" type="line"/>
			<point x="124" y="744" type="line"/>
			<point x="120" y="725" type="line"/>
			<point x="202" y="725" type="line"/>
			<point x="197" y="743" type="line"/>
		</contour>
	</outline>
</glyph>
<glyph name="w.sups" format="2">
	<unicode hex="02B7"/>
	<advance width="517"/>
	<outline>
		<contour>
			<point x="210" y="407" type="curve"/>
			<point x="243" y="409" type="line"/>
			<point x="286" y="481"/>
			<point x="333" y="565"/>
			<point x="365" y="639" type="curve"/>
			<point x="383" y="697" type="line"/>
			<point x="387" y="697" type="line"/>
			<point x="390" y="590"/>
			<point x="397" y="497"/>
			<point x="398" y="407" type="curve"/>
			<point x="427" y="409" type="line"/>
			<point x="477" y="471"/>
			<point x="530" y="562"/>
			<point x="550" y="600" type="curve" smooth="yes"/>
			<point x="568" y="637"/>
			<point x="587" y="678"/>
			<point x="587" y="723" type="curve" smooth="yes"/>
			<point x="587" y="734"/>
			<point x="586" y="741"/>
			<point x="584" y="746" type="curve"/>
			<point x="581" y="747"/>
			<point x="577" y="748"/>
			<point x="570" y="748" type="curve" smooth="yes"/>
			<point x="551" y="748"/>
			<point x="539" y="733"/>
			<point x="539" y="711" type="curve" smooth="yes"/>
			<point x="539" y="692"/>
			<point x="546.063352887" y="680.0294020782"/>
			<point x="559" y="652" type="curve"/>
			<point x="560" y="686" type="line"/>
			<point x="552" y="661"/>
			<point x="543" y="636"/>
			<point x="533" y="615" type="curve" smooth="yes"/>
			<point x="522" y="591"/>
			<point x="488" y="529"/>
			<point x="451" y="473" type="curve"/>
			<point x="429" y="428" type="line"/>
			<point x="424" y="428" type="line"/>
			<point x="421" y="541"/>
			<point x="413" y="642"/>
			<point x="408" y="740" type="curve"/>
			<point x="387" y="740" type="line"/>
			<point x="350" y="648"/>
			<point x="306" y="558"/>
			<point x="258" y="473" type="curve"/>
			<point x="240" y="428" type="line"/>
			<point x="235" y="428" type="line"/>
			<point x="235" y="544"/>
			<point x="229" y="647"/>
			<point x="226" y="687" type="curve" smooth="yes"/>
			<point x="222" y="731"/>
			<point x="207" y="748"/>
			<point x="178" y="748" type="curve" smooth="yes"/>
			<point x="149" y="748"/>
			<point x="130" y="727"/>
			<point x="104" y="675" type="curve"/>
			<point x="121" y="665" type="line"/>
			<point x="142" y="705"/>
			<point x="155" y="720"/>
			<point x="170" y="720" type="curve" smooth="yes"/>
			<point x="185" y="720"/>
			<point x="192" y="710"/>
			<point x="196" y="678" type="curve" smooth="yes"/>
			<point x="201" y="629"/>
			<point x="209" y="514"/>
		</contour>
	</outline>
</glyph>
<glyph name="y.sups" format="2">
	<unicode hex="02B8"/>
	<advance width="343"/>
	<outline>
		<contour>
			<point x="9" y="295" type="curve"/>
			<point x="12" y="283"/>
			<point x="26" y="269"/>
			<point x="59" y="269" type="curve" smooth="yes"/>
			<point x="109" y="269"/>
			<point x="137" y="298"/>
			<point x="170" y="332" type="curve" smooth="yes"/>
			<point x="196" y="360"/>
			<point x="221" y="396"/>
			<point x="248" y="439" type="curve" smooth="yes"/>
			<point x="278" y="486"/>
			<point x="321" y="564"/>
			<point x="352" y="626" type="curve" smooth="yes"/>
			<point x="371" y="664"/>
			<point x="385" y="694"/>
			<point x="394" y="717" type="curve" smooth="yes"/>
			<point x="401" y="734"/>
			<point x="404" y="744"/>
			<point x="404" y="751" type="curve" smooth="yes"/>
			<point x="404" y="760"/>
			<point x="399" y="766"/>
			<point x="389" y="766" type="curve" smooth="yes"/>
			<point x="379" y="766"/>
			<point x="374" y="759"/>
			<point x="369" y="742" type="curve" smooth="yes"/>
			<point x="343" y="659"/>
			<point x="296" y="557"/>
			<point x="236" y="440" type="curve"/>
			<point x="213" y="408"/>
			<point x="183" y="373"/>
			<point x="158" y="346" type="curve" smooth="yes"/>
			<point x="135" y="320"/>
			<point x="118" y="302"/>
			<point x="95" y="287" type="curve"/>
			<point x="107" y="290" type="line"/>
			<point x="73" y="290" type="line"/>
			<point x="92" y="287" type="line"/>
			<point x="72" y="307"/>
			<point x="60" y="315"/>
			<point x="41" y="315" type="curve" smooth="yes"/>
			<point x="21" y="315"/>
			<point x="11" y="305"/>
		</contour>
		<contour>
			<point x="231" y="442" type="line"/>
			<point x="228" y="551"/>
			<point x="220" y="655"/>
			<point x="215" y="702" type="curve" smooth="yes"/>
			<point x="210" y="747"/>
			<point x="195" y="766"/>
			<point x="165" y="766" type="curve" smooth="yes"/>
			<point x="137" y="766"/>
			<point x="116" y="746"/>
			<point x="91" y="694" type="curve"/>
			<point x="109" y="684" type="line"/>
			<point x="128" y="723"/>
			<point x="142" y="738"/>
			<point x="157" y="738" type="curve" smooth="yes"/>
			<point x="172" y="738"/>
			<point x="179" y="728"/>
			<point x="186" y="681" type="curve" smooth="yes"/>
			<point x="194" y="628"/>
			<point x="203" y="516"/>
			<point x="204" y="393" type="curve"/>
			<point x="246" y="442" type="line"/>
		</contour>
	</outline>
</glyph>
<glyph name="ringhalfrightmod" format="2">
	<unicode hex="02BE"/>
	<advance width="200"/>
	<outline>
		<contour>
			<point x="116" y="554" type="line"/>
			<point x="198" y="560"/>
			<point x="240" y="608"/>
			<point x="240" y="670" type="curve"/>
			<point x="240" y="720"/>
			<point x="206" y="752"/>
			<point x="152" y="758" type="curve"/>
			<point x="148" y="734" type="line"/>
			<point x="190" y="728"/>
			<point x="212" y="704"/>
			<point x="212" y="668" type="curve" smooth="yes"/>
			<point x="212" y="624"/>
			<point x="182" y="584"/>
			<point x="120" y="578" type="curve"/>
		</contour>
	</outline>
</glyph>
<glyph name="ringhalfleftmod" format="2">
	<unicode hex="02BF"/>
	<advance width="200"/>
	<outline>
		<contour>
			<point x="224" y="554" type="curve"/>
			<point x="228" y="578" type="line"/>
			<point x="186" y="584"/>
			<point x="164" y="608"/>
			<point x="164" y="644" type="curve" smooth="yes"/>
			<point x="164" y="688"/>
			<point x="194" y="728"/>
			<point x="256" y="734" type="curve"/>
			<point x="260" y="758" type="line"/>
			<point x="178" y="752"/>
			<point x="136" y="704"/>
			<point x="136" y="642" type="curve" smooth="yes"/>
			<point x="136" y="592"/>
			<point x="170" y="560"/>
		</contour>
	</outline>
</glyph>
<glyph name="verticallinemod" format="2">
	<unicode hex="02C8"/>
	<advance width="108"/>
	<outline>
		<contour>
			<point x="100" y="568" type="line"/>
			<point x="124" y="568" type="line"/>
			<point x="168" y="760" type="line"/>
			<point x="132" y="760" type="line"/>
		</contour>
	</outline>
</glyph>
